SplineFontDB: 3.0
FontName: Mutsuki
FullName: Mutsuki
FamilyName: Mutsuki
Weight: Regular
Copyright: 
Version: 
ItalicAngle: 0
UnderlinePosition: -100
UnderlineWidth: 50
Ascent: 860
Descent: 140
InvalidEm: 0
LayerCount: 3
Layer: 0 0 "+gMyXYgAA" 1
Layer: 1 0 "+Uk2XYgAA" 0
Layer: 2 0 "+gMyXYgAA 2" 1
HasVMetrics: 1
XUID: -1
OS2Version: 0
OS2_WeightWidthSlopeOnly: 0
OS2_UseTypoMetrics: 1
CreationTime: 1389377225
ModificationTime: 1497102930
PfmFamily: 17
TTFWeight: 500
TTFWidth: 5
LineGap: 90
VLineGap: 90
OS2TypoAscent: 0
OS2TypoAOffset: 1
OS2TypoDescent: 0
OS2TypoDOffset: 1
OS2TypoLinegap: 90
OS2WinAscent: 0
OS2WinAOffset: 1
OS2WinDescent: 0
OS2WinDOffset: 1
HheadAscent: 0
HheadAOffset: 1
HheadDescent: 0
HheadDOffset: 1
OS2Vendor: 'PfEd'
Lookup: 1 0 0 "'cv01' Character Variants 01 lookup 5" { "'cv01' Character Variants 01 lookup 5-1"  } ['cv01' ('DFLT' <'dflt' > 'hani' <'JAN ' 'dflt' > 'kana' <'JAN ' 'dflt' > ) ]
Lookup: 4 0 1 "'liga' +ahluljBuVAhbVwAA in +XnNO7lQNMGhyR07uVA0A lookup 3" { "'liga' +ahluljBuVAhbVwAA in +XnNO7lQNMGhyR07uVA0A lookup 3-1"  } ['ccmp' ('kana' <'JAN ' 'dflt' > ) 'liga' ('kana' <'JAN ' 'dflt' > ) ]
Lookup: 1 0 0 "'aalt' +MFkweTBmMG51cE9TW1cweDBuMKIwrzC7MLkA lookup 0" { "'aalt' +MFkweTBmMG51cE9TW1cweDBuMKIwrzC7MLkA lookup 0-1"  } ['aalt' ('DFLT' <'dflt' > 'cyrl' <'dflt' > 'grek' <'dflt' > 'hani' <'dflt' > 'kana' <'dflt' > 'latn' <'dflt' > 'math' <'dflt' > 'thai' <'dflt' > ) ]
Lookup: 1 0 0 "'vert' +fiZm+DBNW1dfYjAQXsNrYjAR lookup 1" { "'vert' +fiZm+DBNW1dfYjAQXsNrYjAR lookup 1-1"  } ['vert' ('DFLT' <'dflt' > 'cyrl' <'dflt' > 'grek' <'dflt' > 'hani' <'JAN ' 'dflt' > 'kana' <'JAN ' 'dflt' > 'latn' <'dflt' > ) ]
Lookup: 1 0 0 "'vrt2' +fiZm+DBNW1dfYjBoVt6O4m4IMH9lh1tX lookup 2" { "'vrt2' +fiZm+DBNW1dfYjBoVt6O4m4IMH9lh1tX lookup 2-1" ("vert") } ['vrt2' ('DFLT' <'dflt' > 'cyrl' <'dflt' > 'grek' <'dflt' > 'hani' <'JAN ' 'dflt' > 'kana' <'JAN ' 'dflt' > 'latn' <'dflt' > ) ]
MarkAttachClasses: 1
DEI: 91125

StartChar: uni3005
Encoding: 12293 12293 2
Width: 1000
Flags: HMW
LayerCount: 3
Back
SplineSet
440 232 m 7
 447 232 482 219 523 204 c 4
 557 192 597 164 613 144 c 4
 633 118 640 83 640 67 c 7
 640 51 631 36 622 30 c 4
 613 24 598 15 583 15 c 7
 560 15 537 29 528 44 c 4
 518 61 497 112 481 134 c 4
 465 156 437 195 430 204 c 4
 425 211 422 215 422 220 c 7
 422 226 430 232 440 232 c 7
681 451 m 3
 689 451 701 449 712 442 c 0
 722 435 736 421 752 406 c 0
 768 390 794 382 794 350 c 3
 794 325 765 321 754 316 c 0
 742 311 727 304 689 274 c 0
 646 240 589 182 568 162 c 0
 556 151 550 144 544 148 c 0
 539 151 538 155 538 164 c 0
 538 173 599 280 610 322 c 0
 625 378 602 396 594 403 c 1
 606 409 629 419 643 428 c 0
 654 435 673 451 681 451 c 3
423 411 m 25
 465 409 475 407 531 407 c 3
 587 407 608 409 658 409 c 1
 664 376 l 25
 612 378 588 381 531 381 c 3
 468 381 463 380 420 380 c 25
 423 411 l 25
544 538 m 3
 544 525 537 519 526 510 c 0
 515 501 504 491 495 478 c 0
 479 456 440 383 423 357 c 0
 380 291 297 189 256 150 c 0
 246 140 225 115 212 132 c 0
 209 136 203 140 213 152 c 0
 253 199 301 274 353 379 c 0
 400 475 408 539 412 560 c 1
 417 583 418 588 435 588 c 1
 484 588 544 558 544 538 c 3
EndSplineSet
Fore
SplineSet
544 598 m 0
 544 585 537 579 526 570 c 0
 515 561 504 551 495 538 c 0
 486 526 470 496 454 469 c 1
 475 468 492 467 531 467 c 0
 563 467 584 467 605 468 c 1
 617 474 633 481 643 488 c 0
 654 495 673 511 681 511 c 0
 689 511 701 509 712 502 c 0
 722 495 737 483 753 468 c 0
 769 452 794 442 794 410 c 0
 794 385 765 381 754 376 c 0
 742 371 727 364 689 334 c 0
 653 305 606 259 580 233 c 1
 594 223 606 213 613 204 c 0
 633 178 640 143 640 127 c 0
 640 111 631 96 622 90 c 0
 613 84 598 75 583 75 c 0
 560 75 537 89 528 104 c 0
 518 121 497 172 481 194 c 0
 465 216 437 255 430 264 c 0
 425 271 422 275 422 280 c 0
 422 286 430 292 440 292 c 0
 447 292 482 279 523 264 c 0
 532 261 541 257 550 252 c 1
 568 289 602 352 610 382 c 0
 613 394 615 405 615 414 c 0
 615 424 613 433 611 439 c 1
 587 440 565 441 531 441 c 0
 477 441 466 440 437 440 c 1
 432 431 427 423 423 417 c 0
 380 351 297 249 256 210 c 0
 248 202 235 186 223 186 c 3
 219 186 215 188 212 192 c 0
 210 194 207 197 207 201 c 3
 207 204 209 207 213 212 c 0
 253 259 301 334 353 439 c 0
 400 535 408 599 412 620 c 0
 417 643 418 648 435 648 c 0
 484 648 544 618 544 598 c 0
EndSplineSet
Validated: 1
EndChar

StartChar: uni303B
Encoding: 12347 12347 3
Width: 1000
Flags: HMW
LayerCount: 3
Fore
SplineSet
422 423 m 0
 430 439 443 451 452 464 c 0
 461 477 474 494 474 513 c 3
 474 525 474 528 464 538 c 0
 445 557 416 585 409 592 c 0
 404 597 402 603 402 607 c 3
 402 613 418 620 430 620 c 0
 446 620 482 606 502 595 c 0
 522 585 540 571 555 552 c 0
 568 536 573 511 573 495 c 3
 573 484 564 450 542 450 c 3
 512 450 498 446 481 440 c 0
 475 438 458 431 451 418 c 24
 441 401 440 381 440 369 c 3
 440 345 451 335 460 325 c 0
 470 314 507 292 531 286 c 0
 551 281 574 263 586 246 c 0
 596 231 598 211 598 185 c 3
 598 156 548 94 525 94 c 3
 500 94 489 119 478 142 c 0
 465 170 464 184 456 216 c 0
 449 242 445 258 431 285 c 1
 419 311 405 338 405 368 c 3
 405 386 414 407 422 423 c 0
EndSplineSet
Validated: 1
EndChar

StartChar: uni3041
Encoding: 12353 12353 4
Width: 1000
Flags: HMW
LayerCount: 3
Back
SplineSet
730 257 m 4x01300040
 730 237 750 203 750 191 c 4x01300020
 750 183 749 153 747 153 c 5
 747 153 737 121 735 107 c 5
 735 107 736 103 736 100 c 4
 736 95 735 91 730 91 c 5x01300040
 726 84 l 6
 726 82 727 80 727 78 c 4x013002
 727 72 719 68 714 58 c 4
 711 51 714 52 708 50 c 4
 699 47 703 33 690 28 c 4
 688 27 688 26 687 26 c 6
 687 26 686 25 685 25 c 4
 682 25 685 20 672 14 c 4
 670 13 639 -9 620 -13 c 4
 595 -19 606 -27 584 -28 c 4x11300020
 574 -28 570 -29 570 -31 c 4
 570 -32 563 -43 546 -43 c 6
 542 -43 l 6x40300020
 516 -43 482 -57 455 -57 c 4
 444 -57 437 -55 437 -45 c 4x80301020
 437 -42 443 -36 446 -36 c 4x803004
 451 -36 446 -32 458 -30 c 4
 486 -27 482 -22 493 -22 c 4x203004
 501 -22 512 -17 518 -17 c 4
 524 -17 529 -8 546 -6 c 4x403004
 548 -6 550 -6 550 -5 c 4
 550 -3 558 -3 561 0 c 4
 562 2 563 3 564 3 c 4
 568 3 563 6 579 14 c 4
 596 22 587 23 593 25 c 4
 595 25 595 26 595 27 c 4
 595 28 596 27 598 27 c 4
 609 27 622 39 622 43 c 4
 622 46 632 46 638 60 c 4
 641 66 646 65 646 68 c 4x103006
 646 69 646 70 647 70 c 4
 648 70 649 70 649 72 c 4
 649 79 666 96 670 100 c 4
 671 100 671 102 671 103 c 6
 671 103 679 118 679 128 c 4x10300040
 679 130 681 134 682 134 c 5
 682 141 690 144 690 167 c 4x10300020
 690 178 687 193 687 217 c 4
 687 224 685 222 685 225 c 4
 685 227 679 241 679 243 c 4x10300040
 679 246 676 244 675 258 c 4x10300080
 675 259 665 273 663 273 c 4
 662 273 659 280 658 280 c 4
 657 280 656 282 656 284 c 4
 656 297 645 299 639 305 c 4
 634 309 636 310 632 310 c 6
 628 310 l 6x113001
 618 310 614 320 610 320 c 5
 610 320 602 326 594 326 c 4x00b001
 578 327 589 337 534 337 c 4x007001
 512 337 506 334 506 332 c 4
 506 331 506 330 505 330 c 6
 505 330 504 328 504 326 c 4x00b005
 504 320 506 307 506 307 c 5
 506 292 509 301 509 279 c 6
 509 276 l 6
 509 270 506 271 506 267 c 4x023005
 506 266 506 265 505 265 c 6
 505 265 504 262 504 259 c 4
 503 245 478 192 478 168 c 4x023008
 478 158 481 158 482 153 c 5
 482 130 l 5x023020
 484 128 485 118 485 106 c 6
 485 96 l 6
 485 64 487 64 487 61 c 4
 487 60 487 59 485 57 c 5x023010
 482 47 l 5x023020
 478 40 479 39 473 39 c 4
 445 39 438 67 438 67 c 5
 438 69 437 71 437 71 c 5
 437 76 435 79 431 79 c 4
 424 79 398 55 398 50 c 4
 397 39 366 25 366 25 c 6
 365 25 364 24 364 24 c 5
 364 22 356 14 354 14 c 4
 340 14 350 9 327 9 c 4x0a3010
 296 9 292 23 284 23 c 4
 280 23 271 40 270 40 c 4x043210
 268 40 265 47 265 50 c 4
 265 54 261 59 261 60 c 5
 259 60 258 67 258 70 c 6
 258 72 l 5x0434
 256 97 250 107 250 117 c 4x0438
 250 121 251 125 255 131 c 4
 259 138 258 155 260 156 c 5
 270 172 l 5x0432
 270 175 274 176 274 179 c 4
 274 195 292 211 292 215 c 4x0431
 292 217 293 217 294 217 c 5
 294 219 l 6
 294 221 295 222 295 222 c 5
 317 243 l 6x043080
 317 244 324 254 324 256 c 4
 324 258 365 298 371 298 c 4
 373 298 386 309 390 311 c 4
 421 327 414 335 427 335 c 4
 437 335 434 337 439 339 c 5
 441 341 444 339 444 344 c 4
 444 347 444 371 442 387 c 4
 442 388 438 387 438 387 c 5
 434 389 430 390 426 390 c 4
 415 390 405 385 395 385 c 6
 383 385 l 6
 369 385 345 386 345 392 c 5
 345 392 344 393 343 393 c 4
 341 393 343 394 338 396 c 4
 336 396 322 404 322 406 c 4
 322 407 314 414 314 415 c 4
 314 421 297 420 297 433 c 4
 297 444 308 451 310 451 c 4
 315 451 318 443 320 443 c 6
 337 436 l 5
 337 430 393 427 393 427 c 6
 398 427 398 431 409 433 c 4
 437 438 445 451 445 455 c 4
 445 462 439 473 439 490 c 4
 439 498 440 505 440 511 c 4
 440 519 439 524 430 524 c 4
 424 524 416 527 408 533 c 4
 406 535 408 539 408 539 c 6
 408 547 408 551 423 551 c 5
 427 552 430 552 430 553 c 4
 430 555 438 554 438 555 c 6
 438 555 469 550 470 545 c 6
 474 527 l 5
 474 527 475 526 475 524 c 4
 475 522 479 516 479 514 c 4
 479 513 479 512 480 512 c 4
 482 512 498 495 510 485 c 4
 512 483 514 485 514 485 c 6
 516 485 518 485 518 486 c 4
 518 487 523 491 526 491 c 6
 528 491 l 5
 545 485 565 490 565 468 c 5
 565 468 562 452 558 449 c 4
 551 443 512 427 512 427 c 5
 512 424 494 414 486 413 c 4
 474 411 472 408 472 401 c 4
 472 393 475 384 475 371 c 4
 475 368 472 364 477 364 c 6
 483 364 l 6
 491 364 490 359 494 359 c 4
 498 359 510 364 561 364 c 4x067048
 595 364 583 364 599 362 c 4x00b048
 603 362 605 363 607 363 c 4
 608 363 609 362 609 361 c 4
 609 360 609 359 611 359 c 4
 614 359 613 357 621 356 c 4
 639 353 641 345 647 345 c 4
 650 345 665 339 665 333 c 4
 665 328 677 326 684 320 c 4
 686 319 686 315 686 315 c 6
 688 311 704 296 706 296 c 4
 709 296 721 278 722 278 c 6
 722 278 723 278 723 276 c 4x01304880
 723 271 730 274 730 257 c 4x01300040
362 104 m 5
 362 111 392 127 392 135 c 4
 392 136 393 136 394 136 c 4
 395 136 401 143 402 143 c 4
 403 143 404 143 404 144 c 4x0a3420
 404 147 408 150 410 155 c 4
 428 189 428 186 428 187 c 4
 428 189 434 201 434 204 c 4
 434 207 436 212 438 212 c 4
 439 212 439 219 439 226 c 4x0a3008
 439 236 446 261 446 286 c 4
 446 303 444 307 440 307 c 4
 434 307 424 299 415 299 c 4
 411 299 410 295 406 295 c 4
 404 295 403 295 403 294 c 6
 403 294 386 284 386 279 c 4
 386 277 381 277 381 275 c 4
 381 274 380 273 380 273 c 6
 379 273 378 272 378 271 c 4
 378 268 373 263 373 261 c 4x0a3044
 373 252 361 256 356 250 c 4
 350 244 354 238 346 232 c 4
 344 230 342 228 342 227 c 4x0a3080
 342 225 339 224 339 221 c 4
 339 218 329 208 329 202 c 4
 329 200 330 200 330 199 c 4x0a31
 330 195 324 196 322 184 c 4
 321 177 308 154 308 151 c 4x0a32
 308 149 302 144 302 134 c 4x0a38
 302 91 289 92 289 91 c 6
 289 91 291 90 291 87 c 4
 291 84 289 81 289 72 c 4
 289 70 288 69 288 67 c 4
 288 64 295 59 300 59 c 4x0a34
 309 59 316 66 322 68 c 4
 332 72 327 73 331 75 c 5
 345 87 l 6
 350 92 354 91 358 99 c 4
 359 101 361 104 362 104 c 5
EndSplineSet
Fore
Refer: 5 12354 N 0.86 0 0 0.86 70 -20 2
Validated: 1
Substitution2: "'vrt2' +fiZm+DBNW1dfYjBoVt6O4m4IMH9lh1tX lookup 2-1" uni3041.vert
Substitution2: "'vert' +fiZm+DBNW1dfYjAQXsNrYjAR lookup 1-1" uni3041.vert
EndChar

StartChar: uni3042
Encoding: 12354 12354 5
Width: 1000
Flags: HMW
LayerCount: 3
Back
SplineSet
481.6 169.686 m 4x111010
 481.6 128.886 484.66 128.886 484.66 124.806 c 4
 484.66 123.786 483.64 122.766 481.6 119.706 c 6
 477.52 107.466 l 5
 472.42 98.2861 474.46 97.2656 466.3 97.2656 c 4
 430.6 97.2656 422.44 131.946 422.44 131.946 c 5
 422.44 133.986 420.4 137.046 420.4 137.046 c 5
 420.4 141.126 419.38 143.166 417.34 147.246 c 4
 416.32 148.266 413.26 147.246 413.26 147.246 c 6
 404.08 147.246 370.42 116.646 370.42 110.526 c 4
 369.4 96.2461 329.62 78.9062 329.62 78.9062 c 6
 328.6 78.9062 327.58 77.8857 327.58 77.8857 c 5
 327.58 74.8262 316.36 64.626 314.32 64.626 c 4
 295.96 64.626 310.24 58.5059 280.66 58.5059 c 4
 240.88 58.5059 235.78 75.8457 225.58 75.8457 c 4
 220.48 75.8457 209.26 98.2861 208.24 98.2861 c 4
 206.2 98.2861 201.1 106.446 201.1 110.526 c 4
 201.1 115.626 196 122.766 196 123.786 c 5
 192.94 123.786 192.94 131.946 192.94 136.026 c 6
 192.94 139.086 l 5x111408
 190.9 170.706 182.74 182.946 182.74 196.206 c 4x1118
 182.74 201.306 183.76 207.426 188.86 214.566 c 4
 193.96 223.746 192.94 245.166 194.98 246.186 c 5
 207.22 266.586 l 5x1112
 207.22 270.666 212.32 270.666 212.32 274.746 c 4
 212.32 295.146 235.78 315.546 235.78 320.646 c 4x1111
 235.78 322.686 236.8 323.706 237.82 323.706 c 6
 237.82 323.706 238.84 325.746 238.84 326.766 c 4x111080
 238.84 328.806 239.86 329.826 239.86 329.826 c 5
 267.4 357.366 l 6x111040
 267.4 358.386 276.58 371.646 276.58 373.686 c 4
 276.58 376.746 329.62 426.726 336.76 426.726 c 4
 338.8 426.726 355.12 441.006 360.22 444.066 c 4
 400 464.466 391.84 473.646 408.16 473.646 c 4
 421.42 473.646 417.34 476.706 423.46 479.766 c 4
 425.5 481.806 429.58 479.766 429.58 485.886 c 4x181022
 429.58 489.966 428.56 519.546 426.52 539.946 c 4
 426.52 540.966 422.44 540.966 422.44 540.966 c 6
 417.34 543.006 411.22 544.026 406.12 544.026 c 4
 391.84 544.026 380.62 537.906 367.36 537.906 c 6
 352.06 537.906 l 6
 333.7 537.906 303.1 538.926 303.1 547.086 c 5
 303.1 547.086 302.08 548.106 301.06 548.106 c 4
 298 548.106 301.06 550.146 294.94 552.186 c 4
 291.88 552.186 273.52 562.386 273.52 564.426 c 4
 273.52 565.446 264.34 575.646 264.34 576.666 c 4
 264.34 583.806 241.9 582.786 241.9 599.106 c 4
 241.9 613.386 255.16 621.546 258.22 621.546 c 4
 264.34 621.546 269.44 612.366 271.48 612.366 c 6
 292.9 603.186 l 5
 292.9 594.006 343.9 596.046 358.18 592.986 c 4
 361.24 591.966 363.28 591.966 364.3 591.966 c 4
 370.42 591.966 370.42 597.066 384.7 599.106 c 4
 420.4 605.226 430.6 621.546 430.6 626.646 c 4
 430.6 635.826 423.46 650.106 423.46 671.526 c 4
 423.46 681.726 424.48 690.906 424.48 699.066 c 4
 424.48 709.266 422.44 715.386 411.22 715.386 c 4
 403.06 715.386 393.88 719.466 383.68 726.606 c 4
 381.64 728.646 383.68 734.766 383.68 734.766 c 6
 383.68 744.966 383.68 750.066 403.06 750.066 c 4
 408.16 750.066 412.24 751.086 412.24 752.106 c 4
 412.24 754.146 422.44 754.146 422.44 755.166 c 6x185008
 422.44 755.166 462.22 748.026 463.24 741.906 c 6
 468.34 718.446 l 5
 468.34 718.446 469.36 717.426 469.36 715.386 c 4
 469.36 712.326 474.46 705.186 474.46 702.126 c 4
 474.46 701.106 474.46 700.086 475.48 700.086 c 4
 477.52 700.086 497.92 677.646 513.22 665.406 c 4
 515.26 663.366 519.34 665.406 519.34 665.406 c 6
 522.4 665.406 523.42 665.406 523.42 666.426 c 4
 523.42 667.446 529.54 673.566 533.62 673.566 c 6
 535.66 673.566 l 5
 557.08 665.406 583.6 672.546 583.6 643.986 c 5
 583.6 643.986 580.54 623.586 575.439 619.506 c 4
 566.26 611.346 516.28 591.966 516.28 591.966 c 5
 516.28 587.886 493.84 574.626 483.64 573.606 c 4
 468.34 571.566 465.28 567.486 465.28 558.306 c 4
 465.28 548.106 469.36 536.886 469.36 520.566 c 4
 469.36 516.486 465.28 511.386 471.4 511.386 c 6
 479.56 511.386 l 6
 489.76 511.386 488.74 504.246 493.84 504.246 c 4
 498.94 504.246 513.22 511.386 578.5 511.386 c 4x10b002
 622.36 511.386 607.061 510.366 627.46 508.326 c 4
 632.561 508.326 635.62 509.346 637.66 509.346 c 4x111002
 638.68 509.346 639.7 508.326 639.7 507.306 c 4
 639.7 506.286 640.72 505.266 642.76 505.266 c 4x121002
 646.84 505.266 644.8 502.206 655 501.186 c 4
 678.46 498.126 681.52 486.906 688.66 486.906 c 4x141002
 692.74 486.906 711.1 478.746 711.1 471.606 c 4
 711.1 465.486 726.4 462.426 735.58 455.286 c 4
 737.62 454.266 738.64 449.166 738.64 449.166 c 6
 741.7 444.066 760.06 424.686 763.12 424.686 c 4
 767.2 424.686 783.52 401.226 784.54 401.226 c 6
 784.54 401.226 785.56 401.226 785.56 399.186 c 4x12100280
 785.56 393.066 793.72 396.126 793.72 374.706 c 4x12100040
 793.72 351.246 801.88 348.186 806.98 330.846 c 4
 808 327.786 806.98 322.686 810.04 322.686 c 5
 814.12 309.426 819.22 300.246 819.22 290.046 c 4x12100020
 819.22 279.846 818.2 242.106 816.16 242.106 c 5
 816.16 242.106 803.92 200.286 800.86 182.946 c 5
 800.86 182.946 801.88 178.866 801.88 174.786 c 4
 801.88 168.666 800.86 162.546 794.74 162.546 c 5
 789.64 154.386 l 5
 789.64 151.326 790.66 148.266 790.66 146.226 c 4
 790.66 138.066 780.46 133.986 774.34 120.726 c 4
 770.26 111.546 774.34 113.586 766.18 110.526 c 4
 754.96 106.446 760.06 89.1064 743.74 82.9863 c 4
 741.7 81.9658 739.66 80.9463 739.66 79.9258 c 6
 739.66 79.9258 738.64 78.9062 737.62 78.9062 c 4
 733.54 78.9062 736.6 72.7861 720.28 64.626 c 4
 718.24 63.6064 678.46 35.0459 653.98 29.9463 c 4
 622.36 22.8057 636.64 12.6064 608.08 11.5859 c 4x321001
 594.82 11.5859 590.74 10.5664 590.74 7.50586 c 4
 590.74 6.48633 580.54 -7.79395 559.12 -7.79395 c 6
 555.04 -7.79395 l 6x501001
 521.38 -7.79395 478.54 -25.1338 443.86 -25.1338 c 4
 429.58 -25.1338 420.4 -23.0938 420.4 -10.8535 c 4
 420.4 -6.77441 427.54 1.38574 431.62 1.38574 c 4x901001
 437.74 1.38574 431.62 6.48633 446.92 8.52637 c 4
 482.62 12.6064 477.52 18.7256 491.8 18.7256 c 4
 502 18.7256 517.3 25.8662 524.439 25.8662 c 4x501001
 531.58 25.8662 538.72 36.0664 560.14 39.126 c 4
 563.2 39.126 564.22 40.1465 564.22 41.166 c 4
 564.22 44.2256 574.42 43.2061 578.5 47.2861 c 4
 579.52 49.3262 581.561 50.3457 582.58 50.3457 c 4
 587.68 50.3457 581.561 54.4258 601.96 64.626 c 4
 623.38 74.8262 612.16 76.8662 619.3 78.9062 c 4
 621.34 78.9062 622.36 79.9258 622.36 80.9463 c 4
 622.36 81.9658 623.38 81.9658 625.42 81.9658 c 4
 639.7 81.9658 657.04 97.2656 657.04 102.366 c 4
 657.04 106.446 669.28 106.446 677.439 123.786 c 4
 681.52 130.926 687.64 129.906 687.64 133.986 c 4x301001
 687.64 135.006 687.64 136.026 688.66 136.026 c 4
 689.68 136.026 690.7 137.046 690.7 139.086 c 4
 690.7 150.306 707.02 158.466 713.14 169.686 c 4
 715.18 172.746 717.22 174.786 717.22 174.786 c 6
 718.24 174.786 719.26 176.826 719.26 177.846 c 6
 719.26 177.846 729.46 198.246 729.46 210.486 c 4x30100040
 729.46 213.546 731.5 217.626 732.52 217.626 c 5
 732.52 226.806 742.72 230.886 742.72 260.466 c 4x30100020
 742.72 274.746 739.66 293.106 739.66 323.706 c 4
 739.66 332.886 736.6 329.826 736.6 333.906 c 4
 736.6 336.966 729.46 353.286 729.46 356.346 c 4x30100040
 729.46 360.426 725.38 357.366 724.36 375.726 c 4
 724.36 376.746 712.12 395.106 709.06 395.106 c 4
 708.04 395.106 702.939 404.286 701.92 404.286 c 4
 700.9 404.286 699.88 406.326 699.88 409.386 c 4
 699.88 425.706 686.62 427.746 678.46 435.906 c 4
 672.34 441.006 674.38 442.026 669.28 442.026 c 6
 664.18 442.026 l 6x34100080
 650.92 442.026 645.82 455.286 640.72 455.286 c 5x12100080
 640.72 455.286 631.54 462.426 621.34 462.426 c 4x11100080
 600.939 463.446 614.2 476.706 543.82 476.706 c 4x10900080
 515.26 476.706 509.14 471.606 509.14 469.566 c 4
 509.14 468.546 508.12 467.526 507.1 467.526 c 6
 507.1 467.526 506.08 465.486 506.08 462.426 c 4
 506.08 454.266 509.14 438.966 509.14 438.966 c 5
 509.14 419.586 512.2 430.806 512.2 403.266 c 6
 512.2 399.186 l 6
 512.2 391.026 509.14 393.066 509.14 387.966 c 4x11100480
 509.14 386.946 508.12 384.906 507.1 384.906 c 6
 507.1 384.906 506.08 381.846 506.08 377.766 c 4
 505.06 357.366 500.98 362.466 497.92 352.266 c 4
 487.72 319.626 472.42 282.906 472.42 261.486 c 4
 472.42 249.246 476.5 248.226 477.52 242.106 c 6
 478.54 212.526 l 5
 480.58 209.466 481.6 197.226 481.6 181.926 c 4
 481.6 177.846 481.6 173.766 481.6 169.686 c 4x111010
324.52 179.886 m 5
 324.52 189.066 363.28 208.446 363.28 218.646 c 4
 363.28 219.666 364.3 220.686 365.32 220.686 c 4
 366.34 220.686 375.52 228.846 376.54 228.846 c 4
 377.56 228.846 377.56 229.866 377.56 230.886 c 4x181410
 377.56 234.966 382.66 238.026 385.72 244.146 c 4
 408.16 286.986 409.18 284.946 409.18 285.966 c 4
 409.18 288.006 417.34 303.306 417.34 307.386 c 4
 417.34 311.466 420.4 317.586 422.44 317.586 c 4x181008
 423.46 317.586 423.46 325.746 423.46 334.926 c 4
 423.46 348.186 431.62 379.806 431.62 411.426 c 4
 431.62 432.846 429.58 437.946 424.48 437.946 c 4
 416.32 437.946 404.08 427.746 392.86 427.746 c 4
 387.76 427.746 386.74 423.666 381.64 423.666 c 4
 379.6 423.666 377.56 422.646 377.56 421.626 c 6
 377.56 421.626 356.14 409.386 356.14 403.266 c 4
 356.14 401.226 349 400.206 349 397.146 c 4
 349 396.126 347.98 395.106 347.98 395.106 c 6
 346.96 395.106 345.94 393.066 345.94 392.046 c 4
 345.94 387.966 338.8 382.866 338.8 379.806 c 4x181030
 338.8 368.586 323.5 372.666 317.38 365.526 c 4
 310.24 357.366 315.34 351.246 305.14 343.086 c 5
 303.1 340.026 300.04 337.986 300.04 336.966 c 4x181040
 300.04 333.906 295.96 332.886 295.96 328.806 c 4x181080
 295.96 324.726 282.7 311.466 282.7 304.326 c 4
 282.7 302.286 283.72 301.266 283.72 300.246 c 4x1811
 283.72 295.146 275.56 297.186 273.52 281.886 c 4
 272.5 272.706 256.18 243.126 256.18 239.046 c 4x1812
 256.18 237.006 248.02 230.886 248.02 217.626 c 4x1818
 248.02 162.546 231.7 164.586 231.7 163.566 c 6
 231.7 163.566 234.76 161.526 234.76 157.446 c 4
 234.76 153.366 231.7 150.306 231.7 139.086 c 4
 231.7 136.026 230.68 133.986 230.68 131.946 c 4
 230.68 127.866 239.86 121.746 245.98 121.746 c 4
 257.2 121.746 267.4 130.926 274.54 133.986 c 4
 286.78 139.086 280.66 140.106 285.76 143.166 c 6
 303.1 157.446 l 6
 309.22 163.566 314.32 162.546 319.42 172.746 c 4
 320.44 175.806 323.5 179.886 324.52 179.886 c 5
EndSplineSet
Fore
SplineSet
308 409 m 0
 358 456 417 479 425 487 c 1
 425 552 l 1
 407 548 385 541 352 541 c 0
 318 541 304 547 294 552 c 0
 275 561 266 569 258 576 c 0
 249 584 241 586 241 603 c 0
 241 616 254 626 260 626 c 0
 263 626 284 612 299 605 c 0
 313 599 333 596 352 596 c 0
 383 596 396 604 425 622 c 1
 425 634 425 649 425 663 c 0
 425 691 424 717 416 719 c 0
 402 722 383 726 383 737 c 0
 383 754 411 757 423 757 c 0
 443 757 462 750 465 743 c 0
 467 738 468 731 468 720 c 0
 468 714 468 706 467 697 c 0
 466 685 465 676 465 666 c 0
 465 660 465 652 466 642 c 1
 493 662 522 676 542 676 c 0
 558 676 583 669 583 647 c 0
 583 625 575 621 558 612 c 0
 528 597 490 580 467 570 c 1
 467 565 467 555 467 546 c 0
 467 532 467 515 469 501 c 1
 502 509 553 516 572 516 c 0
 666 516 726 477 758 439 c 0
 789 403 817 326 817 275 c 0
 817 231 806 144 739 85 c 0
 695 46 642 18 594 2 c 0
 550 -12 491 -26 439 -26 c 0
 424 -26 420 -15 420 -11 c 0
 420 0 442 8 462 12 c 0
 611 44 741 142 741 273 c 0
 741 326 733 367 699 413 c 0
 676 445 616 477 559 477 c 0
 531 477 518 477 504 470 c 1
 509 453 512 431 512 413 c 0
 512 386 490 313 472 269 c 1
 475 200 484 163 484 136 c 0
 484 120 475 103 462 103 c 0
 431 103 427 124 420 163 c 1
 384 126 379 115 348 92 c 0
 321 72 297 62 267 62 c 0
 232 62 223 82 210 97 c 0
 193 117 182 162 182 190 c 0
 182 226 193 260 211 295 c 0
 227 325 249 354 308 409 c 0
291 322 m 0
 250 266 231 183 231 149 c 0
 231 133 234 126 245 126 c 0
 269 126 301 148 315 162 c 0
 336 183 364 209 383 235 c 0
 395 251 412 279 425 332 c 1
 425 443 l 1
 358 411 326 370 291 322 c 0
EndSplineSet
Validated: 1
EndChar

StartChar: uni3043
Encoding: 12355 12355 6
Width: 1000
Flags: HMW
LayerCount: 3
Back
SplineSet
605 385 m 22xe1
 606 385 609 388 614 388 c 4
 627 388 633 385 645 385 c 4
 659 385 661 388 673 388 c 4
 695 388 695 371 710 371 c 4
 717 371 740 337 746 334 c 4
 752 330 754 323 754 323 c 5
 756 323 756 323 756 320 c 4
 756 318 760 315 762 308 c 6
 766 290 l 5
 766 290 770 281 770 278 c 4
 770 272 773 275 773 269 c 4
 773 261 761 235 759 235 c 5
 759 235 758 233 758 231 c 6
 758 227 l 5
 752 227 760 207 730 207 c 4
 709 207 702 219 702 221 c 6
 702 224 l 6
 702 226 701 228 698 234 c 4
 684 255 693 264 686 308 c 4
 684 321 682 309 675 326 c 4
 666 350 650 342 650 347 c 4
 650 351 630 346 620 356 c 4
 616 360 605 363 605 363 c 5
 601 363 592 365 592 374 c 4
 592 377 593 379 595 379 c 4
 597 379 598 380 598 380 c 5
 598 382 605 385 605 385 c 22xe1
402 140 m 13
 402 141 403 141 403 142 c 4
 403 143 403 144 404 144 c 4
 405 144 410 165 418 175 c 4
 420 177 422 178 422 180 c 4
 422 185 431 198 440 198 c 4
 447 198 450 187 450 181 c 4xe3
 450 174 447 171 447 171 c 6
 447 169 446 169 446 169 c 6
 445 169 445 169 445 167 c 4
 445 166 434 156 434 142 c 4
 434 129 431 134 431 129 c 4
 431 125 432 121 432 119 c 4
 432 116 430 117 430 111 c 4
 430 104 432 95 433 93 c 5
 433 82 436 87 436 82 c 4
 436 79 439 79 439 68 c 4
 439 55 446 48 446 40 c 4
 446 30 434 16 417 16 c 4
 405 16 393 23 380 25 c 4
 362 28 355 40 353 40 c 4
 351 40 343 45 339 45 c 4
 335 45 330 50 330 52 c 4
 330 58 313 71 313 74 c 4
 313 79 311 75 311 79 c 4
 311 81 311 81 310 81 c 4
 308 81 302 85 302 87 c 4
 302 89 303 90 302 90 c 4
 301 90 297 97 287 107 c 4
 257 137 261 174 251 183 c 4
 249 185 250 192 250 199 c 6
 250 213 l 6
 250 224 248 234 242 239 c 5
 242 263 l 6xf5
 242 293 246 286 246 303 c 4
 246 307 255 373 255 381 c 4
 256 399 258 410 259 410 c 4
 260 410 261 410 261 411 c 4
 261 412 264 423 264 431 c 4
 264 436 263 440 258 441 c 4
 251 442 240 455 238 455 c 4
 236 455 227 459 227 465 c 4
 227 467 232 469 232 471 c 4
 232 479 241 481 278 481 c 4
 283 481 280 478 289 475 c 4
 302 472 304 457 306 457 c 4
 308 457 308 451 310 451 c 4
 311 451 322 423 322 391 c 4xe9
 322 374 319 376 319 371 c 5
 319 371 311 344 311 336 c 4
 311 334 313 335 313 330 c 4
 313 321 308 310 306 310 c 4
 302 310 300 284 300 261 c 4xf1
 300 241 302 222 304 222 c 4
 309 222 306 194 314 188 c 4
 317 186 322 181 322 178 c 4
 322 177 321 176 322 176 c 4
 323 176 324 175 324 173 c 4
 324 170 327 159 329 159 c 4
 330 159 330 157 330 155 c 4
 330 149 331 153 334 147 c 4
 340 135 350 137 350 135 c 5
 350 135 355 132 361 132 c 4
 366 132 366 134 373 134 c 4
 376 134 378 133 378 132 c 6
 378 132 380 131 383 131 c 4
 386 131 388 132 388 133 c 4xed
 388 134 394 134 394 136 c 4
 394 138 400 140 402 140 c 13
EndSplineSet
Fore
Refer: 7 12356 N 0.86 0 0 0.86 70 -20 2
Substitution2: "'vrt2' +fiZm+DBNW1dfYjBoVt6O4m4IMH9lh1tX lookup 2-1" uni3043.vert
Substitution2: "'vert' +fiZm+DBNW1dfYjAQXsNrYjAR lookup 1-1" uni3043.vert
EndChar

StartChar: uni3044
Encoding: 12356 12356 7
Width: 1000
Flags: HMW
LayerCount: 3
Back
SplineSet
633 528 m 18xe0
 634 528 638 532 644 532 c 0
 660 532 667 528 682 528 c 0
 700 528 702 532 717 532 c 0
 743 532 743 511 762 511 c 0
 771 511 799 469 807 465 c 0
 815 460 817 452 817 452 c 1
 820 452 819 452 819 448 c 0
 819 445 824 443 826 434 c 2
 830 411 l 1
 830 411 836 400 836 396 c 0
 836 388 839 392 839 385 c 0
 839 375 826 343 823 343 c 1
 823 343 822 341 822 338 c 0
 822 335 821 334 821 334 c 1
 814 334 823 310 786 310 c 0
 761 310 752 324 752 327 c 0
 752 329 753 329 753 331 c 0
 753 333 752 335 748 342 c 0
 731 367 741 380 732 434 c 0
 730 450 728 434 720 455 c 0
 709 484 689 476 689 482 c 0
 689 487 664 480 652 492 c 0
 647 497 633 501 633 501 c 1
 628 501 618 503 618 514 c 0
 618 518 619 521 622 521 c 0
 624 521 625 522 625 522 c 1
 625 525 633 528 633 528 c 18xe0
385 228 m 9
 385 229 386 229 386 230 c 0
 386 231 386 233 387 233 c 0
 388 233 395 259 405 271 c 0
 407 273 409 275 409 277 c 0
 409 283 421 298 432 298 c 0
 441 298 444 285 444 278 c 0
 444 269 440 266 440 266 c 2
 440 264 439 263 439 263 c 2
 438 263 437 262 437 260 c 0xe040
 437 259 424 247 424 230 c 0
 424 214 421 220 421 214 c 0
 421 209 422 204 422 201 c 0
 422 197 420 200 420 192 c 0
 420 183 422 172 423 170 c 1
 423 156 427 162 427 156 c 0
 427 152 431 154 431 140 c 0
 431 124 438 115 438 105 c 0
 438 93 424 76 403 76 c 0
 388 76 374 85 358 87 c 0
 336 91 327 105 325 105 c 0
 322 105 313 111 308 111 c 0
 303 111 296 117 296 120 c 0
 296 128 276 142 276 146 c 0xe880
 276 152 274 147 274 152 c 0
 274 154 273 154 272 154 c 0
 270 154 263 161 263 163 c 0
 263 165 263 166 262 166 c 0
 261 166 256 175 244 187 c 0
 207 224 213 269 200 280 c 0
 197 283 198 290 198 299 c 2
 198 317 l 2
 198 331 197 343 189 349 c 1
 189 378 l 2xf0
 189 415 194 407 194 428 c 0xe8
 194 433 205 513 205 523 c 0xe4
 206 545 209 558 210 558 c 0
 211 558 212 559 212 560 c 0
 212 561 216 573 216 583 c 0xe2
 216 589 215 595 209 596 c 0
 200 597 186 613 184 613 c 0
 181 613 171 620 171 627 c 0
 171 630 177 630 177 632 c 0
 177 642 188 645 233 645 c 0
 239 645 235 641 246 638 c 0
 262 633 266 616 268 616 c 0
 270 616 270 609 272 609 c 0
 273 609 286 574 286 535 c 0xe4
 286 514 284 516 284 510 c 1
 284 510 274 478 274 468 c 0
 274 465 276 466 276 460 c 0xe8
 276 449 269 435 267 435 c 0
 262 435 260 404 260 376 c 0xf0
 260 352 262 328 265 328 c 0
 271 328 268 294 278 287 c 0
 282 285 286 278 286 274 c 0
 286 273 286 272 287 272 c 0
 288 272 289 270 289 268 c 0
 289 264 293 250 295 250 c 0
 296 250 296 248 296 245 c 0
 296 237 298 244 302 236 c 0
 310 221 321 225 321 222 c 1
 321 222 327 218 334 218 c 0
 340 218 340 220 349 220 c 0
 353 220 355 219 355 218 c 2
 355 218 358 217 362 217 c 0
 366 217 368 218 368 219 c 0xe3
 368 220 376 221 376 223 c 0xe080
 376 225 382 228 385 228 c 9
EndSplineSet
Fore
SplineSet
805.969726562 470.76953125 m 0
 818.709960938 454.110351562 837.330078125 414.91015625 837.330078125 377.669921875 c 0
 837.330078125 333.5703125 806.950195312 310.049804688 786.370117188 310.049804688 c 0
 758.9296875 310.049804688 745.209960938 329.650390625 738.349609375 358.0703125 c 0
 736.389648438 365.91015625 736.389648438 372.76953125 736.389648438 379.629882812 c 0
 736.389648438 387.469726562 736.389648438 393.349609375 736.389648438 401.190429688 c 0
 736.389648438 416.870117188 734.4296875 434.509765625 718.75 457.049804688 c 0
 703.0703125 481.549804688 675.629882812 485.469726562 647.209960938 493.309570312 c 0
 628.58984375 498.209960938 617.809570312 500.169921875 617.809570312 510.950195312 c 0
 617.809570312 526.629882812 655.049804688 536.4296875 679.549804688 536.4296875 c 0
 726.58984375 536.4296875 742.26953125 527.610351562 755.009765625 519.76953125 c 0
 781.469726562 503.110351562 773.629882812 513.889648438 805.969726562 470.76953125 c 0
367.91015625 214.009765625 m 0
 391.4296875 214.009765625 401.23046875 298.290039062 431.610351562 298.290039062 c 0
 436.509765625 298.290039062 444.349609375 290.450195312 444.349609375 277.709960938 c 0
 444.349609375 269.870117188 435.530273438 262.030273438 428.669921875 246.349609375 c 0
 423.76953125 235.5703125 420.830078125 222.830078125 420.830078125 203.23046875 c 0
 420.830078125 191.469726562 424.75 165.990234375 427.690429688 155.209960938 c 0
 432.58984375 136.58984375 438.469726562 117.969726562 438.469726562 106.209960938 c 0
 438.469726562 92.490234375 420.830078125 75.830078125 403.190429688 75.830078125 c 0
 312.049804688 75.830078125 189.549804688 194.41015625 189.549804688 377.669921875 c 0
 189.549804688 442.349609375 203.26953125 508.990234375 203.26953125 587.389648438 c 0
 203.26953125 602.08984375 183.669921875 609.9296875 183.669921875 623.650390625 c 1
 183.669921875 637.370117188 192.490234375 647.169921875 216.009765625 647.169921875 c 0
 228.75 647.169921875 246.389648438 641.290039062 259.129882812 628.549804688 c 0
 275.790039062 611.889648438 286.5703125 585.4296875 286.5703125 554.0703125 c 0
 286.5703125 505.0703125 263.049804688 437.450195312 263.049804688 399.23046875 c 0
 263.049804688 339.450195312 271.870117188 295.349609375 296.370117188 251.25 c 0
 310.08984375 226.75 323.809570312 214.009765625 367.91015625 214.009765625 c 0
EndSplineSet
EndChar

StartChar: uni3046
Encoding: 12358 12358 9
Width: 1000
Flags: HMW
LayerCount: 3
Back
SplineSet
620 487 m 5x8040
 620 481 648 468 648 452 c 4x8040
 648 440 665 436 666 413 c 4
 667 398 669 412 669 393 c 6
 669 389 l 6x8020
 669 381 673 351 673 310 c 4
 673 286 671 290 671 285 c 4
 671 274 662 273 662 259 c 5
 662 259 659 255 659 251 c 4
 659 248 658 244 657 244 c 4
 655 244 656 236 656 235 c 4
 656 227 648 210 648 207 c 6x8040
 646 201 l 5
 646 194 641 192 641 190 c 4x8080
 641 184 636 187 635 172 c 4
 633 151 614 144 614 139 c 4
 614 136 606 130 606 128 c 4x81
 606 127 606 126 605 126 c 4
 603 126 605 121 594 110 c 4
 584 100 578 89 578 89 c 5
 578 86 572 81 568 81 c 4
 566 81 564 81 564 80 c 4
 564 79 553 74 542 63 c 4
 518 41 533 66 495 31 c 4
 482 18 485 29 468 17 c 4
 452 7 436 6 427 -3 c 4
 417 -13 374 -22 354 -22 c 4
 351 -22 350 -19 350 -13 c 4
 350 18 391 9 423 38 c 4
 449 61 468 65 468 68 c 4
 468 69 470 67 472 71 c 4
 475 76 482 86 485 86 c 4
 490 86 500 94 500 98 c 4x82
 500 106 510 110 510 115 c 4
 510 126 533 135 533 140 c 4x81
 533 141 544 154 547 154 c 4
 548 154 549 155 549 156 c 6
 549 156 560 172 561 172 c 4
 563 174 562 175 562 176 c 4x8080
 562 191 572 199 575 217 c 5
 575 217 588 275 592 275 c 4
 596 275 602 334 602 334 c 5
 602 344 600 359 600 365 c 4
 600 377 603 379 603 381 c 6
 603 383 l 5
 599 391 604 404 596 413 c 4
 592 417 586 434 584 434 c 4x8020
 583 434 583 437 583 441 c 4
 583 445 578 456 577 456 c 4
 575 456 570 462 567 462 c 4x4040
 561 462 568 467 554 470 c 5
 554 470 534 472 515 472 c 4x2040
 499 472 485 471 485 466 c 4
 485 464 479 462 479 460 c 4
 479 458 460 441 459 441 c 6
 447 435 l 5
 447 435 435 428 426 428 c 4
 421 428 420 430 415 430 c 4
 409 430 409 426 401 426 c 4
 396 426 381 431 376 431 c 4
 360 431 335 451 335 466 c 4
 335 469 332 468 332 473 c 5
 332 473 327 479 327 487 c 4
 327 494 332 499 335 499 c 4
 339 499 353 501 364 501 c 4
 379 501 371 499 392 499 c 4
 398 499 404 500 414 500 c 4
 436 500 431 505 435 505 c 4x8040
 437 505 445 510 450 510 c 4
 451 510 473 517 491 518 c 4x1040
 505 518 511 530 527 530 c 4x2040
 537 530 534 528 550 526 c 4
 570 524 560 517 575 517 c 4x4040
 591 517 594 505 598 505 c 4
 599 505 620 487 620 487 c 5x8040
438 691 m 5x04
 436 691 l 6
 432 691 427 692 419 700 c 4
 406 713 397 713 397 724 c 4
 397 736 407 743 515 743 c 6
 517 743 l 5x04
 517 743 521 744 527 744 c 4
 554 744 553 732 566 732 c 4
 570 732 586 722 586 722 c 5
 586 718 593 712 593 705 c 4
 593 701 591 699 590 697 c 4
 582 665 584 683 575 666 c 4
 574 663 557 652 544 652 c 6
 528 652 l 6x08
 507 652 515 646 502 646 c 4
 491 646 478 635 476 635 c 4
 473 635 470 625 461 625 c 5
 461 625 441 627 441 640 c 4
 441 654 463 669 463 677 c 4
 463 681 450 684 450 686 c 4
 450 688 438 689 438 691 c 5x04
EndSplineSet
Fore
SplineSet
602 369 m 0
 602 450 571 472 517 472 c 0
 466 472 479 426 399 426 c 0
 353 426 327 457 327 489 c 0
 327 497 336 502 358 502 c 0
 371 502 389 498 406 498 c 0
 426 498 495 530 524 530 c 0
 624 530 676 432 676 370 c 0
 676 218 632 135 562 74 c 0
 504 23 402 -25 359 -25 c 0
 355 -25 341 -23 341 -11 c 0
 341 2 364 12 394 24 c 0
 471 56 602 173 602 369 c 0
538 651 m 0
 487 648 457 621 448 621 c 0
 440 621 437 625 437 632 c 0
 437 650 461 661 461 676 c 0
 461 685 383 708 383 722 c 0
 383 734 417 744 517 744 c 0
 552 744 594 722 594 703 c 0
 594 678 566 653 538 651 c 0
EndSplineSet
Validated: 1
EndChar

StartChar: uni3048
Encoding: 12360 12360 11
Width: 1000
Flags: HMW
LayerCount: 3
Fore
SplineSet
253 491 m 0
 273 491 275 440 310 440 c 0
 327 440 487 508 576 508 c 0
 626 508 652 477 652 439 c 0
 652 380 500 327 412 255 c 1
 428 258 446 261 458 261 c 0
 533 261 580 233 580 166 c 0
 580 138 584 117 589 105 c 0
 593 95 614 93 633 93 c 0
 655 93 707 118 755 118 c 0
 780 118 829 93 829 58 c 0
 829 35 816 14 692 14 c 0
 614 14 523 45 516 119 c 0
 509 198 496 229 459 229 c 0
 418 229 381 202 342 128 c 0
 321 89 327 2 283 2 c 0
 255 2 236 44 236 91 c 0
 236 120 296 200 346 250 c 0
 404 309 532 402 532 426 c 0
 532 448 523 450 516 450 c 0
 491 450 340 363 296 363 c 0
 261 363 227 378 227 425 c 0
 227 452 239 491 253 491 c 0
404 757 m 0
 423 757 444 704 493 692 c 0
 547 679 631 676 631 641 c 0
 631 594 602 591 500 582 c 0
 430 576 351 522 323 522 c 0
 299 522 294 526 294 536 c 0
 294 560 382 592 442 618 c 1
 415 655 381 697 381 719 c 0
 381 741 385 757 404 757 c 0
EndSplineSet
Validated: 1
Substitution2: "'cv01' Character Variants 01 lookup 5-1" u1B001
EndChar

StartChar: uni304A
Encoding: 12362 12362 13
Width: 1000
Flags: HM
LayerCount: 3
Fore
SplineSet
383 548 m 1
 384 517 l 1
 401 521 411 525 420 532 c 1
 383 548 l 1
324 223 m 25
 266 175 l 25
 325 133 l 25
 324 223 l 25
783 564 m 0
 842 564 894 513 894 462 c 0
 894 445 877 430 852 430 c 0
 808 430 811 489 770 489 c 0
 723 489 698 480 683 480 c 0
 673 480 669 487 669 500 c 0
 669 521 727 564 783 564 c 0
154 502 m 0
 169 502 207 489 236 489 c 0
 265 489 289 496 323 501 c 17
 321 565 313 627 291 644 c 0
 263 666 253 670 253 692 c 0
 253 709 269 719 293 719 c 0
 323 719 374 673 379 590 c 1
 408 551 503 570 503 541 c 0
 503 503 444 495 385 471 c 9
 385 318 l 17
 474 368 544 381 594 381 c 0
 694 381 796 339 796 250 c 0
 796 91 629 29 562 29 c 0
 512 29 486 80 486 130 c 0
 486 193 526 261 544 261 c 0
 552 261 558 255 558 249 c 0
 558 237 543 204 543 168 c 0
 543 132 548 111 569 111 c 0
 627 111 720 171 720 250 c 0
 720 315 650 342 594 342 c 0
 543 342 511 337 386 262 c 1
 386 188 392 113 392 77 c 0
 392 56 372 24 345 24 c 0
 307 24 264 139 237 139 c 0
 223 139 202 96 166 96 c 3
 130 96 126 114 126 129 c 0
 126 188 189 179 323 285 c 9
 323 448 l 17
 284 433 243 415 222 415 c 0
 194 415 137 451 137 480 c 0
 137 495 142 502 154 502 c 0
EndSplineSet
Substitution2: "'cv01' Character Variants 01 lookup 5-1" u1B015
EndChar

StartChar: uni304B
Encoding: 12363 12363 14
Width: 1000
Flags: HMW
LayerCount: 3
Back
SplineSet
832 287 m 4xe014
 817 287 784 310 749 310 c 6
 739 310 l 6
 710 310 686 324 686 324 c 5
 686 326 672 329 672 331 c 5
 672 331 671 332 670 332 c 4
 666 332 660 337 660 340 c 4
 660 359 751 354 776 369 c 4
 801 383 814 384 814 403 c 4xe014
 814 411 811 422 810 422 c 4
 809 422 808 426 808 430 c 4
 808 432 805 436 805 436 c 5
 805 449 799 470 797 470 c 5
 797 470 781 491 779 491 c 5xe018
 779 491 772 497 770 501 c 4
 769 502 723 534 723 534 c 6
 722 534 697 551 697 561 c 4
 697 568 704 572 715 572 c 4xc818
 730 572 742 560 778 552 c 4
 789 549 793 541 805 541 c 4
 807 541 808 540 808 540 c 5
 808 538 816 539 829 522 c 4
 834 515 833 521 837 515 c 4
 849 497 856 505 875 483 c 4
 879 478 884 468 884 464 c 4xe018
 884 460 900 433 902 412 c 4
 903 399 906 401 906 386 c 4
 906 378 895 351 895 347 c 4
 895 346 894 344 894 344 c 5
 892 344 887 311 875 311 c 6
 868 311 l 6
 857 311 850 295 845 295 c 4
 844 295 843 294 843 293 c 4
 843 291 835 290 835 288 c 5
 835 288 834 287 832 287 c 4xe014
345 82 m 4
 345 83 334 110 331 116 c 4
 329 121 324 123 324 125 c 4
 324 127 310 144 310 147 c 4
 310 154 299 159 297 159 c 4
 295 159 289 166 289 169 c 4
 289 170 288 171 287 171 c 4
 286 171 286 173 286 175 c 4
 286 179 289 195 300 195 c 4
 317 195 313 185 343 171 c 4
 363 162 369 158 374 158 c 4
 381 158 385 164 408 172 c 4
 415 174 446 230 446 230 c 5
 446 232 453 238 453 244 c 4
 453 258 492 334 492 462 c 4
 492 498 486 493 481 518 c 4
 478 533 463 533 463 533 c 5
 450 537 452 537 449 537 c 4xc4b0
 443 537 422 532 422 529 c 4
 422 528 421 527 420 527 c 4
 419 527 410 522 408 520 c 6
 401 512 l 5
 372 495 l 5
 368 495 355 481 349 476 c 4
 347 475 349 470 349 470 c 6
 349 457 341 452 341 445 c 4
 341 436 324 414 324 407 c 4
 324 398 320 404 312 362 c 4
 303 310 289 321 288 287 c 5
 278 248 l 6
 277 246 278 239 273 227 c 4
 271 223 270 219 270 218 c 4
 270 217 257 197 257 195 c 4xd1b0
 257 187 234 142 234 136 c 4
 234 127 222 114 222 107 c 4
 222 94 195 56 195 56 c 5
 195 53 188 43 170 43 c 4
 132 43 127 70 127 77 c 4xd210
 127 81 128 84 129 88 c 4
 144 137 129 100 160 150 c 6
 178 178 l 5
 178 180 205 227 205 227 c 5
 205 233 217 246 217 257 c 4
 217 273 248 311 253 321 c 4
 273 365 276 418 276 418 c 6
 276 421 272 423 267 423 c 4
 255 423 236 417 219 417 c 4
 215 417 210 418 207 418 c 4
 137 434 128 456 128 456 c 6
 127 456 124 461 124 463 c 5
 123 463 117 473 117 474 c 4
 117 477 114 474 114 485 c 4
 114 492 114 503 119 503 c 4
 126 503 140 495 148 495 c 4
 155 495 162 480 194 480 c 4
 209 480 203 482 210 482 c 4
 214 482 279 496 279 496 c 5
 301 514 l 5
 313 514 321 563 321 563 c 5
 321 580 327 593 327 607 c 4xd1b0
 327 627 316 627 311 641 c 4
 311 643 289 655 289 671 c 4
 289 678 311 679 326 679 c 4
 338 679 350 677 351 672 c 4
 352 668 366 654 366 646 c 4xd050
 366 641 373 642 373 629 c 4
 373 624 372 619 372 619 c 5
 372 586 375 599 375 583 c 4
 375 572 384 568 395 568 c 4xd030
 419 568 425 579 443 579 c 4xc430
 456 579 468 575 482 571 c 4
 492 569 492 564 502 555 c 4
 527 534 530 514 530 514 c 5
 532 509 538 506 543 493 c 4
 550 473 550 406 553 400 c 4
 554 398 555 396 555 393 c 4
 555 384 552 374 552 365 c 4
 552 356 554 361 554 325 c 6
 554 323 l 6
 554 293 549 292 545 273 c 4
 539 250 547 253 528 214 c 4
 523 204 516 184 506 165 c 4
 498 150 498 155 498 146 c 6
 498 144 l 6
 498 141 497 138 496 138 c 4
 495 138 494 137 494 136 c 4
 494 127 463 110 463 104 c 4
 463 101 447 85 435 75 c 4
 433 74 430 75 430 75 c 5
 409 74 408 57 393 57 c 4
 374 57 345 72 345 82 c 4
EndSplineSet
Fore
SplineSet
871 320 m 0
 849 308 836 311 787 290 c 0
 764 280 711 242 701 242 c 3
 696 242 690 249 690 257 c 0
 690 264 694 273 703 281 c 0
 711 289 725 300 736 307 c 0
 765 327 781 361 781 384 c 0
 781 428 747 449 712 478 c 0
 694 492 667 504 667 521 c 0
 667 526 670 534 688 534 c 0
 777 534 891 428 891 355 c 0
 891 340 881 325 871 320 c 0
491 121 m 0
 477 91 424 56 386 56 c 0
 376 56 359 67 350 82 c 0
 324 126 306 167 276 216 c 1
 263 177 241 129 236 108 c 0
 232 91 182 18 156 18 c 0
 143 18 132 30 132 52 c 0
 132 95 173 147 194 179 c 0
 222 222 232 245 250 293 c 0
 265 332 282 382 287 414 c 1
 273 403 252 398 240 398 c 0
 229 398 191 410 159 428 c 0
 146 435 140 452 140 466 c 3
 140 478 144 486 151 486 c 0
 163 486 184 474 210 474 c 0
 236 474 292 489 311 513 c 1
 322 545 326 605 326 632 c 0
 326 638 325 651 320 658 c 0
 306 678 294 680 294 704 c 0
 294 714 319 720 328 720 c 0
 358 720 364 706 369 701 c 0
 382 689 392 676 392 660 c 0
 392 621 388 620 382 604 c 0
 376 588 369 559 366 542 c 1
 385 548 413 554 432 554 c 0
 457 554 486 530 510 518 c 0
 554 496 556 465 556 444 c 0
 556 334 535 211 491 121 c 0
288 260 m 1
 314 206 372 154 392 154 c 0
 426 154 437 199 454 250 c 0
 466 286 477 380 477 430 c 3
 477 476 453 503 425 503 c 0
 393 503 356 464 342 442 c 1
 328 381 310 306 288 260 c 1
EndSplineSet
Validated: 1
EndChar

StartChar: uni304C
Encoding: 12364 12364 15
Width: 1000
Flags: HMW
LayerCount: 3
Back
SplineSet
692 242 m 4xdbc3
 688 242 680 248 680 257 c 4
 680 266 688 276 688 276 c 5
 721 303 l 5
 723 303 732 311 739 316 c 4
 748 322 771 366 771 384 c 4
 771 395 758 407 758 414 c 4
 758 415 754 425 754 425 c 5
 754 428 746 440 743 444 c 4
 734 457 702 477 702 478 c 6
 685 491 l 5
 681 491 658 508 658 522 c 4
 658 530 667 534 678 534 c 4
 725 534 829 476 837 445 c 4
 838 440 848 429 850 429 c 4
 851 429 854 423 854 422 c 4
 854 419 876 400 876 395 c 4
 878 380 880 368 880 357 c 4
 880 337 873 323 848 315 c 4
 821 306 813 301 792 296 c 4
 777 292 764 279 755 276 c 4
 734 269 729 258 721 258 c 4
 720 258 719 258 719 257 c 4
 719 255 696 242 692 242 c 4xdbc3
807 663 m 5
 841 652 844 631 846 631 c 4
 847 631 848 630 848 629 c 6
 848 629 851 617 851 606 c 4
 851 585 836 585 836 585 c 6
 835 585 834 585 834 584 c 4
 834 582 823 573 813 573 c 4
 797 573 763 605 763 605 c 5
 759 605 753 620 742 622 c 4
 739 622 719 636 719 636 c 6
 719 637 718 637 717 637 c 4
 712 639 698 653 698 656 c 4
 698 657 697 658 696 658 c 4
 694 658 692 663 695 665 c 4
 706 674 704 680 729 680 c 4
 761 680 795 668 795 668 c 5
 795 666 807 665 807 663 c 5
918 680 m 4
 926 671 932 649 932 642 c 4
 932 629 924 605 902 605 c 4
 887 605 884 607 872 621 c 5
 863 644 l 5
 863 644 849 663 830 669 c 4
 828 669 806 684 802 684 c 4
 798 684 793 691 793 697 c 4
 793 702 795 706 801 709 c 6
 814 714 l 5
 824 716 819 717 838 717 c 4
 889 717 894 703 918 680 c 4
180 474 m 4
 203 475 212 484 235 484 c 4
 245 484 251 482 255 482 c 4
 280 482 298 512 298 514 c 4
 298 517 306 529 306 537 c 4
 306 538 314 554 314 588 c 4
 314 599 315 618 315 632 c 4
 315 643 314 650 314 650 c 6
 313 650 316 658 295 678 c 4
 285 687 284 704 284 704 c 5
 284 716 315 720 325 720 c 4
 332 720 331 717 340 717 c 4
 347 717 355 701 359 701 c 4
 362 701 366 694 367 692 c 5
 379 683 382 672 382 660 c 4xe3eb
 382 648 379 636 379 628 c 4
 379 607 371 611 369 593 c 4
 367 581 366 576 365 576 c 4
 364 576 364 572 364 568 c 4xe3d3
 364 551 369 556 382 552 c 4
 385 552 381 551 389 551 c 4
 401 551 414 553 416 553 c 4
 430 553 461 540 461 540 c 6
 475 536 500 512 507 512 c 4
 508 512 520 504 520 503 c 4
 520 501 527 497 527 496 c 4
 535 485 537 470 540 470 c 5
 540 470 543 457 543 442 c 4xe7e7
 543 419 535 413 535 384 c 4
 535 377 536 370 536 362 c 4
 536 321 525 326 524 270 c 4
 523 224 496 154 496 154 c 6
 496 152 491 140 490 140 c 4
 489 140 489 135 488 132 c 4
 485 127 481 124 481 121 c 4
 481 112 452 91 452 91 c 5
 448 91 440 76 430 71 c 4
 419 65 403 64 400 63 c 4
 398 63 392 59 390 59 c 4
 384 59 379 55 372 55 c 4
 349 55 332 100 309 128 c 4
 297 142 289 147 282 164 c 4
 278 175 272 181 270 185 c 4
 269 188 270 188 267 188 c 4
 261 188 254 170 250 170 c 4
 249 170 238 152 229 110 c 4
 227 96 200 57 193 51 c 4
 191 50 177 39 177 39 c 5
 177 39 160 18 146 18 c 4
 139 18 121 29 121 49 c 4
 121 65 133 80 133 88 c 4
 133 93 155 139 160 145 c 5
 160 145 164 149 164 152 c 5
 164 152 167 160 177 173 c 6
 201 202 l 5
 201 210 207 204 216 229 c 6
 228 261 l 5
 228 267 242 304 252 318 c 5
 259 347 l 6
 263 363 271 362 271 384 c 4
 271 394 270 395 269 395 c 4
 268 395 267 396 267 397 c 6
 267 397 262 404 255 404 c 4xe7cb
 247 404 245 398 230 398 c 4
 219 398 212 403 211 403 c 4
 210 403 170 413 157 424 c 5
 153 426 150 429 148 429 c 4
 143 429 130 440 130 464 c 4
 130 483 134 486 140 486 c 4
 149 486 166 474 180 474 c 4
286 282 m 5
 283 278 282 273 282 267 c 4
 282 248 294 225 294 225 c 5
 294 221 301 216 301 214 c 4
 301 204 349 168 354 167 c 4
 360 166 361 156 381 156 c 4
 399 156 384 157 409 176 c 4
 411 177 413 179 413 180 c 4
 413 183 429 205 431 224 c 4
 433 241 456 288 456 301 c 4xc7cb
 456 315 466 376 466 433 c 4
 466 482 463 468 442 494 c 4
 438 499 430 503 417 503 c 4xc7c7
 398 503 373 493 352 464 c 4
 311 409 317 359 310 338 c 4
 301 311 286 282 286 282 c 5
EndSplineSet
Fore
Refer: 90 12441 N 1 0 0 1 974 -17 2
Refer: 14 12363 N 1 0 0 1 0 0 2
Validated: 1
EndChar

StartChar: uni304D
Encoding: 12365 12365 16
Width: 1000
Flags: HMW
LayerCount: 3
Back
SplineSet
590.09 249.45 m 0xc40780
 618.8 249.45 635.63 264.3 635.63 267.271 c 0
 635.63 269.25 634.64 271.23 634.64 274.2 c 0
 634.64 280.141 631.67 288.061 631.67 289.05 c 2
 631.67 289.05 628.7 291.03 627.71 297.96 c 0
 627.71 301.92 625.73 306.87 624.74 309.84 c 2
 620.78 319.74 l 2
 616.82 327.66 611.87 328.65 605.93 340.53 c 0
 595.04 362.311 577.22 370.23 577.22 370.23 c 1
 571.28 370.23 575.24 379.141 541.58 379.141 c 0xcc0780
 508.91 379.141 501.98 370.23 476.24 369.24 c 0xd00780
 437.63 368.25 432.68 365.28 421.79 365.28 c 0
 381.2 365.28 323.78 387.061 323.78 393 c 0
 323.78 394.98 293.09 410.82 293.09 415.771 c 0xe01380
 293.09 418.74 273.29 435.57 273.29 439.53 c 0xe00b80
 273.29 443.49 264.38 446.46 264.38 458.34 c 0
 264.38 461.311 268.34 469.23 274.28 474.181 c 0
 275.27 476.16 280.22 474.181 280.22 474.181 c 2
 287.15 474.181 293.09 471.21 293.09 468.24 c 0xe01380
 293.09 465.271 304.97 456.36 304.97 454.38 c 0
 304.97 453.391 304.97 453.391 306.95 453.391 c 0
 309.92 453.391 320.81 441.51 328.73 439.53 c 0
 340.61 436.561 345.56 434.58 345.56 433.59 c 0
 345.56 431.61 370.31 424.681 387.14 424.681 c 2
 412.88 424.681 l 2xe00b80
 413.87 424.681 482.18 433.59 495.05 443.49 c 1
 498.02 444.48 500.99 446.46 501.98 446.46 c 0xd00b80
 504.95 446.46 518.81 452.4 518.81 454.38 c 0
 518.81 455.37 518.81 456.36 519.8 456.36 c 0
 520.79 456.36 520.79 457.351 520.79 458.34 c 2
 520.79 458.34 525.74 466.26 525.74 476.16 c 0
 525.74 488.04 520.79 487.05 520.79 493.98 c 0
 520.79 496.95 510.89 515.76 510.89 518.73 c 0
 510.89 520.71 509.9 521.7 508.91 521.7 c 0
 503.96 521.7 510.89 542.49 456.44 546.45 c 2
 433.67 548.43 l 2
 423.77 549.42 376.25 554.37 376.25 558.33 c 0
 376.25 559.32 375.26 560.311 373.28 560.311 c 2xcd0b80
 373.28 560.311 348.53 568.23 348.53 569.221 c 0
 348.53 570.21 340.61 572.19 337.64 575.16 c 0
 330.71 582.09 323.78 591 322.79 591 c 0
 321.8 591 320.81 591.99 320.81 592.98 c 2
 320.81 592.98 301.01 613.771 301.01 616.74 c 2
 301.01 616.74 297.05 623.67 297.05 630.601 c 0
 297.05 640.5 303.98 646.44 307.94 646.44 c 0xc08b80
 310.91 646.44 313.88 643.471 319.82 638.521 c 2
 328.73 630.601 l 2
 337.64 622.68 364.37 611.79 381.2 611.79 c 0
 392.09 611.79 388.13 615.75 399.02 615.75 c 2
 406.94 615.75 l 2
 416.84 615.75 427.73 615.75 427.73 627.63 c 0
 427.73 629.61 427.73 631.59 426.74 631.59 c 0
 425.75 631.59 424.76 633.57 424.76 634.561 c 0
 424.76 636.54 413.87 656.34 409.91 660.3 c 0
 404.96 665.25 388.13 678.12 380.21 687.03 c 0
 380.21 688.021 375.26 691.98 373.28 691.98 c 0xc14b80
 372.29 691.98 364.37 698.91 355.46 700.891 c 0xc02b80
 351.5 701.88 292.1 702.87 292.1 724.65 c 0
 292.1 734.55 303.98 741.48 303.98 742.471 c 2xc04b80
 303.98 742.471 309.92 756.33 329.72 756.33 c 0xc02b80
 352.49 756.33 384.17 742.471 384.17 742.471 c 2
 388.13 741.48 441.59 692.971 448.52 674.16 c 0
 450.5 669.21 466.34 648.42 466.34 646.44 c 0
 466.34 643.471 479.21 633.57 494.06 633.57 c 0
 500 633.57 510.89 634.561 523.76 634.561 c 0
 564.35 634.561 574.25 617.73 574.25 605.851 c 0
 574.25 582.09 554.45 579.12 554.45 564.271 c 0
 554.45 549.42 562.37 548.43 562.37 548.43 c 1
 572.27 544.471 582.17 541.5 592.07 541.5 c 0xc2cb80
 621.77 538.53 617.81 532.59 639.59 532.59 c 0
 663.35 532.59 697.01 525.66 702.95 525.66 c 0
 705.92 525.66 721.76 518.73 724.73 518.73 c 0
 728.69 518.73 735.62 511.8 735.62 502.891 c 2
 735.62 497.94 l 2
 735.62 474.181 730.67 478.141 730.67 474.181 c 0
 730.67 473.19 729.68 472.2 729.68 472.2 c 1
 727.7 472.2 719.78 460.32 705.92 453.391 c 1
 703.94 450.42 698.99 441.51 686.12 436.561 c 0
 681.17 435.57 655.43 418.74 641.57 415.771 c 0
 630.68 413.79 621.77 403.891 621.77 400.92 c 0
 621.77 395.97 628.7 392.01 628.7 387.061 c 0
 628.7 382.11 642.56 365.28 642.56 362.311 c 0
 642.56 359.34 652.46 354.391 652.46 345.48 c 0
 652.46 340.53 667.31 314.79 667.31 309.84 c 1
 667.31 309.84 689.09 282.12 689.09 279.15 c 0
 689.09 278.16 694.04 270.24 695.03 270.24 c 2
 695.03 270.24 703.94 261.33 703.94 254.4 c 0
 702.95 229.65 695.03 193.021 692.06 193.021 c 0
 689.09 193.021 674.24 153.42 648.5 153.42 c 0
 647.51 153.42 614.84 160.351 606.92 167.28 c 0
 586.13 185.101 568.31 211.83 506.93 217.771 c 1
 506.93 217.771 479.21 224.7 455.45 224.7 c 0
 434.66 224.7 425.75 218.76 405.95 217.771 c 0
 369.32 216.78 371.3 201.931 354.47 193.021 c 0
 341.6 186.09 327.74 157.38 327.74 136.59 c 0
 327.74 124.71 331.7 122.73 331.7 121.74 c 0
 331.7 119.76 345.56 107.88 346.55 107.88 c 0
 350.51 107.88 365.36 85.1104 426.74 85.1104 c 0
 449.51 85.1104 467.33 90.0605 491.09 90.0605 c 0
 501.98 90.0605 511.88 89.0703 525.74 87.0898 c 0
 537.62 85.1104 575.24 62.3398 575.24 58.3799 c 0
 575.24 56.4004 578.21 51.4502 578.21 51.4502 c 2
 579.2 51.4502 583.16 42.54 583.16 31.6504 c 0
 583.16 -3 528.71 -3.99023 518.81 -5.96973 c 1
 511.88 -8.93945 501.98 -9.92969 490.1 -9.92969 c 0
 436.64 -9.92969 352.49 9.87012 352.49 20.7598 c 0
 352.49 21.75 351.5 21.75 350.51 21.75 c 0
 343.58 21.75 318.83 40.5605 313.88 46.5 c 2
 313.88 46.5 290.12 78.1807 290.12 81.1504 c 0
 290.12 84.1201 284.18 100.95 284.18 122.73 c 0
 284.18 167.28 311.9 196.98 311.9 197.97 c 1
 313.88 197.97 333.68 214.8 336.65 220.74 c 0
 353.48 246.48 470.3 259.351 498.02 259.351 c 0
 509.9 259.351 502.97 256.38 520.79 256.38 c 0
 529.7 256.38 538.61 257.37 547.52 257.37 c 0
 565.34 257.37 565.34 249.45 590.09 249.45 c 0xc40780
564.35 508.83 m 0xc20380
 558.41 508.83 555.44 508.83 555.44 494.97 c 0
 555.44 486.061 557.42 475.17 566.33 470.22 c 1
 584.15 472.2 l 2xc40380
 589.1 472.2 592.07 474.181 596.03 474.181 c 1
 596.03 474.181 604.94 478.141 604.94 482.101 c 0
 604.94 487.05 590.09 504.87 584.15 504.87 c 1
 584.15 504.87 574.25 508.83 564.35 508.83 c 0xc20380
EndSplineSet
Fore
SplineSet
612 490 m 9
 544 526 l 25
 572 472 l 17
 588 478 598 484 612 490 c 9
332 756 m 3
 386 756 422 719 476 632 c 1
 489 634 506 635 517 635 c 3
 553 635 575 624 575 607 c 3
 575 587 554 570 537 558 c 1
 658 508 737 546 737 497 c 3
 737 463 681 432 620 405 c 1
 669 308 704 270 704 250 c 3
 704 200 670 154 653 154 c 3
 639 154 610 161 596 178 c 0
 568 211 500 225 454 225 c 3
 396 225 327 204 327 134 c 3
 327 111 375 85 419 85 c 3
 445 85 478 91 498 91 c 3
 549 91 584 57 584 31 c 3
 584 2 536 -9 500 -9 c 3
 416 -9 284 9 284 127 c 3
 284 214 370 260 498 260 c 3
 552 260 574 250 594 250 c 3
 614 250 621 259 638 264 c 17
 630 299 623 320 580 388 c 1
 551 378 469 366 426 366 c 3
 331 366 264 436 264 456 c 3
 264 466 271 475 279 475 c 0
 282 475 289 473 293 468 c 0
 307 451 341 424 398 424 c 3
 441 424 493 437 537 460 c 9
 495 544 l 17
 327 544 297 612 297 632 c 3
 297 636 300 646 308 646 c 3
 318 646 334 612 380 612 c 3
 400 612 419 615 438 622 c 1
 396 680 371 700 344 702 c 0
 306 705 292 716 292 724 c 3
 292 736 312 756 332 756 c 3
EndSplineSet
Validated: 1
EndChar

StartChar: uni304E
Encoding: 12366 12366 17
Width: 1000
Flags: HMW
LayerCount: 3
Back
SplineSet
566 475 m 1x83f0
 565 468 567 470 569 466 c 2
 578 448 l 1
 583 444 591 442 597 442 c 0
 607 442 614 447 614 459 c 2
 614 461 l 2
 614 465 614 467 602 470 c 2
 583 476 l 1
 581 479 578 480 573 480 c 0
 567 480 568 480 566 477 c 1
 566 475 l 1x83f0
807 577 m 0
 808 577 813 565 813 558 c 1
 813 558 814 536 807 529 c 1
 807 527 782 509 782 509 c 1
 773 509 744 519 744 530 c 0x85f0
 744 531 723 551 723 553 c 0
 723 570 670 592 670 619 c 0
 670 626 674 631 683 631 c 0
 689 631 683 630 712 628 c 1
 724 628 l 2
 735 628 742 626 767 607 c 0
 778 599 791 594 807 577 c 0
756 671 m 0
 756 680 760 682 777 682 c 0
 801 682 830 671 850 671 c 0
 859 671 905 653 908 622 c 0
 909 617 909 612 909 607 c 0
 909 586 901 567 871 567 c 0
 850 567 840 579 840 581 c 0
 840 582 839 583 839 583 c 1
 834 583 819 604 805 616 c 1
 805 616 756 641 756 671 c 0
655 220 m 0
 655 255 631 265 631 280 c 1
 631 280 612 331 572 331 c 0
 538 331 515 296 500 296 c 0
 498 296 443 280 414 280 c 0xd1f0
 379 280 330 287 326 287 c 1x89f0
 326 287 272 304 272 345 c 2
 272 359 l 2
 272 372 287 382 293 383 c 0
 296 383 304 372 322 351 c 0
 325 348 342 344 362 344 c 0
 378 344 439 358 439 362 c 0
 439 363 441 363 442 363 c 0
 447 363 453 369 464 370 c 0
 485 372 498 382 516 387 c 0
 524 389 522 396 524 396 c 1
 524 396 533 411 533 414 c 0
 533 427 513 440 513 441 c 2
 513 441 499 464 498 464 c 0
 494 469 488 469 485 473 c 0
 476 481 468 484 456 484 c 0
 439 484 418 478 393 478 c 0
 290 478 313 492 282 513 c 0
 279 514 278 518 278 521 c 0
 278 529 284 538 294 538 c 0
 306 538 303 530 322 530 c 0x95f0
 341 530 424 537 424 566 c 0
 424 574 417 584 400 601 c 0
 398 604 377 615 338 620 c 0
 326 622 323 618 314 635 c 0
 312 638 312 642 312 645 c 0
 312 665 340 684 360 684 c 0
 368 684 409 670 409 670 c 1
 418 664 420 655 421 655 c 0
 422 653 432 643 433 639 c 0
 436 633 435 625 445 613 c 0
 449 607 454 603 455 603 c 0
 457 603 457 603 457 602 c 2
 483 596 l 1
 490 596 503 603 509 604 c 2
 520 606 l 1
 522 606 l 2
 531 606 547 595 547 594 c 0
 547 593 548 593 549 593 c 0
 556 593 560 578 560 567 c 0
 560 561 559 557 556 557 c 1
 556 557 551 539 551 532 c 0
 551 520 561 526 571 517 c 0
 574 515 577 514 578 514 c 0x83f0
 671 478 672 478 687 478 c 0
 725 478 716 466 725 449 c 0
 726 447 726 446 726 444 c 0
 726 426 683 397 683 396 c 0
 683 395 669 385 667 385 c 0
 665 385 651 383 651 362 c 1
 651 362 655 338 669 324 c 0
 678 314 669 307 695 285 c 0
 703 277 714 254 714 248 c 2
 714 248 728 190 728 146 c 0
 728 108 704 101 704 87 c 0
 704 86 700 81 698 81 c 0
 694 81 691 68 675 68 c 0
 633 68 636 86 621 91 c 0
 610 95 606 102 604 102 c 0
 602 102 591 112 589 112 c 0xc5f0
 586 112 578 122 575 123 c 0
 566 125 531 122 517 129 c 0
 514 131 506 131 496 131 c 0
 402 131 382 97 381 97 c 2
 381 97 347 74 347 58 c 0
 347 31 379 18 379 18 c 2
 380 18 379 13 403 13 c 0
 416 13 423 8 424 8 c 0
 428 8 437 3 457 3 c 0
 468 3 493 12 519 12 c 0
 549 12 578 -3 578 -24 c 0
 578 -32 575 -38 575 -43 c 0
 575 -58 536 -82 474 -82 c 0
 397 -82 372 -64 334 -39 c 0
 325 -33 325 -24 321 -14 c 1
 305 10 l 2
 304 10 295 30 295 39 c 0
 295 69 301 62 301 68 c 0
 301 74 324 103 326 103 c 0
 334 103 352 128 368 133 c 0
 374 134 421 158 441 164 c 1
 441 164 478 167 503 173 c 0
 512 175 550 173 550 176 c 0
 550 177 555 178 561 178 c 0xa1f0
 571 178 583 177 593 177 c 0xc1f0
 603 177 639 184 639 185 c 1
 648 185 655 202 655 220 c 0
EndSplineSet
Fore
Refer: 90 12441 N 1 0 0 1 872 3 2
Refer: 16 12365 N 1 0 0 1 0 0 2
Validated: 1
EndChar

StartChar: uni304F
Encoding: 12367 12367 18
Width: 1000
Flags: HMW
LayerCount: 3
Back
SplineSet
547.122070312 580.926757812 m 5x81
 547.276367188 576.9296875 515.456054688 545.681640625 514.45703125 545.642578125 c 4
 513.458007812 545.604492188 486.595703125 515.546875 484.596679688 515.470703125 c 4
 483.59765625 515.431640625 479.79296875 510.28125 479.83203125 509.282226562 c 4
 479.947265625 506.284179688 473.18359375 500.01953125 468.45703125 492.83203125 c 4
 465.61328125 488.719726562 463.9609375 479.649414062 461.962890625 479.572265625 c 4
 458.96484375 479.456054688 457.428710938 467.388671875 448.782226562 458.047851562 c 4
 442.978515625 452.821289062 444.170898438 447.86328125 439.444335938 440.67578125 c 6
 428.107421875 423.2265625 l 5
 426.109375 423.149414062 415.427734375 388.711914062 415.427734375 388.711914062 c 5
 415.697265625 381.717773438 411.047851562 372.53125 411.471679688 361.540039062 c 4xd1
 412.241210938 341.5546875 435.91796875 324.454101562 436.1875 317.458984375 c 4
 436.341796875 313.461914062 449.5625 307.966796875 449.678710938 304.96875 c 5
 456.174804688 292.209960938 l 5
 456.174804688 292.209960938 511.600585938 230.298828125 514.022460938 219.383789062 c 4xa8
 514.060546875 218.384765625 529.51171875 206.971679688 529.588867188 204.97265625 c 4x84
 529.666015625 202.974609375 556.532226562 180.993164062 556.802734375 173.998046875 c 4x82
 556.87890625 171.999023438 566.450195312 157.357421875 568.44921875 157.434570312 c 5
 568.44921875 157.434570312 601.004882812 117.658203125 602.736328125 98.7109375 c 4
 602.813476562 96.712890625 608.6953125 73.9228515625 609.694335938 73.9609375 c 4
 610.693359375 73.9990234375 619.075195312 38.2958984375 619.11328125 37.296875 c 4
 619.614257812 24.3056640625 616.578125 25.189453125 616.732421875 21.1923828125 c 4
 617.772460938 -5.787109375 589.448242188 -23.8916015625 569.462890625 -24.662109375 c 4
 551.4765625 -25.35546875 542.904296875 -10.6748046875 526.454101562 0.7001953125 c 4
 523.379882812 2.5830078125 526.069335938 10.693359375 526.069335938 10.693359375 c 5
 517.955078125 65.4208984375 510.23046875 58.1181640625 509.73046875 71.1083984375 c 13
 508.538085938 76.06640625 l 5
 508.383789062 80.0634765625 l 22x81
 507.999023438 90.0556640625 507.038085938 89.0185546875 506.922851562 92.015625 c 4
 506.845703125 94.0146484375 506.807617188 95.013671875 505.807617188 94.9755859375 c 6
 487.357421875 132.291992188 l 6
 485.166015625 137.211914062 486.010742188 141.247070312 485.01171875 141.208984375 c 4
 484.012695312 141.169921875 483.974609375 142.168945312 483.858398438 145.166992188 c 4x82
 483.704101562 149.1640625 469.864257812 196.666015625 462.870117188 196.396484375 c 4
 461.87109375 196.358398438 460.833007812 197.319335938 460.833007812 197.319335938 c 5x84
 460.640625 202.315429688 450.532226562 204.927734375 450.223632812 212.921875 c 4
 450.0703125 216.918945312 423.393554688 259.923828125 422.39453125 259.884765625 c 4
 421.395507812 259.846679688 413.131835938 266.533203125 413.0546875 268.53125 c 4
 412.862304688 273.528320312 405.8671875 273.258789062 405.674804688 278.254882812 c 5
 405.674804688 278.254882812 404.63671875 279.215820312 403.637695312 279.176757812 c 4
 401.638671875 279.099609375 394.834960938 299.853515625 393.8359375 299.814453125 c 4
 392.8359375 299.776367188 388.608398438 305.6171875 388.53125 307.616210938 c 4xa8
 388.376953125 311.61328125 369.8515625 324.909179688 369.119140625 343.895507812 c 4
 368.811523438 351.889648438 368.502929688 359.883789062 369.501953125 359.921875 c 4
 370.501953125 359.9609375 370.424804688 361.958984375 370.270507812 365.956054688 c 6
 370.116210938 369.953125 l 6
 366.842773438 454.889648438 432.481445312 517.46484375 434.249023438 523.537109375 c 5
 434.249023438 523.537109375 480.439453125 597.37109375 483.4375 597.486328125 c 4
 484.436523438 597.525390625 495.158203125 604.943359375 494.965820312 609.939453125 c 4
 494.696289062 616.934570312 516.5234375 647.797851562 516.447265625 649.796875 c 4xd080
 516.29296875 653.793945312 526.899414062 664.209960938 526.629882812 671.205078125 c 4
 526.552734375 673.203125 537.236328125 681.62109375 536.889648438 690.614257812 c 4
 536.774414062 693.612304688 535.659179688 696.571289062 534.66015625 696.533203125 c 4
 533.661132812 696.494140625 525.7421875 720.20703125 523.743164062 720.129882812 c 4
 521.745117188 720.052734375 519.4765625 726.970703125 519.20703125 733.965820312 c 4
 518.783203125 744.95703125 526.700195312 747.263671875 534.694335938 747.572265625 c 4
 546.685546875 748.034179688 555.103515625 737.350585938 557.1015625 737.427734375 c 4
 582.622070312 724.400390625 611.063476562 713.48828125 612.642578125 672.518554688 c 6
 613.182617188 658.529296875 l 5x8040
 612.182617188 658.490234375 611.415039062 652.456054688 611.453125 651.45703125 c 4x8080
 605.919921875 639.235351562 582.823242188 615.328125 582.823242188 615.328125 c 6
 581.82421875 615.2890625 560.534179688 596.455078125 560.534179688 596.455078125 c 5
 560.611328125 594.45703125 549.12109375 581.00390625 547.122070312 580.926757812 c 5x81
EndSplineSet
Fore
SplineSet
524 734 m 0
 524 743 530 748 536 748 c 0
 537 748 539 748 540 747 c 0
 583 729 620 692 620 665 c 0
 620 659 618 653 613 648 c 0
 476 511 411 428 411 366 c 0
 411 331 621 157 621 29 c 0
 621 0 588 -26 569 -26 c 0
 551 -26 529 -18 527 1 c 0
 511 169 369 308 369 366 c 0
 369 511 481 558 540 690 c 16
 541 692 541 695 541 697 c 0
 541 712 524 728 524 734 c 0
EndSplineSet
Validated: 1
EndChar

StartChar: uni3050
Encoding: 12368 12368 19
Width: 1000
Flags: HMW
LayerCount: 3
Back
SplineSet
683 616 m 0xe020
 734 616 753 584 757 584 c 0
 759 584 764 577 769 572 c 0
 773 568 784 568 784 527 c 0
 784 522 784 516 783 509 c 0
 783 507 773 489 758 489 c 0
 748 489 724 504 717 504 c 0
 715 504 710 511 707 511 c 0
 706 511 706 512 706 513 c 0
 706 514 696 522 696 524 c 0
 696 525 696 526 695 526 c 0
 694 526 682 548 682 548 c 1
 682 553 652 586 652 604 c 0
 652 612 660 616 683 616 c 0xe020
742 661 m 1
 747 669 763 670 769 670 c 0
 783 670 789 665 789 665 c 1
 817 665 855 646 862 644 c 0
 866 643 872 641 882 608 c 2
 886 595 l 2
 887 593 887 590 887 587 c 0
 887 580 886 572 885 563 c 0
 885 559 864 545 864 545 c 2
 864 544 858 542 857 542 c 0
 853 542 851 539 845 539 c 0
 830 539 818 563 812 563 c 0
 808 563 800 580 798 580 c 0
 797 580 797 581 797 582 c 0
 797 584 785 600 778 600 c 1
 776 601 774 603 773 603 c 0
 771 603 766 608 766 610 c 0
 766 615 751 622 746 634 c 0
 743 641 738 644 738 649 c 0
 738 653 740 661 742 661 c 1
589 -20 m 0
 588 -20 581 -43 556 -43 c 0
 535 -43 541 -43 535 -38 c 0
 534 -37 504 6 504 13 c 1
 504 13 489 90 486 90 c 0
 484 90 486 99 480 105 c 0
 476 109 461 164 458 171 c 1
 457 176 446 185 446 189 c 0xe0a0
 446 192 425 221 425 232 c 0xe120
 425 234 411 251 403 262 c 0
 401 265 378 313 375 313 c 0
 373 313 368 322 368 327 c 0xe420
 368 328 362 346 362 347 c 0xe820
 362 355 354 374 354 398 c 0xf020
 354 435 377 460 379 472 c 0
 381 490 394 508 394 508 c 2
 394 510 397 518 398 518 c 2
 398 518 399 523 399 524 c 0
 406 537 421 553 422 553 c 0
 427 553 460 615 461 615 c 0
 462 615 462 616 462 618 c 0
 462 625 475 633 478 654 c 0
 479 662 508 703 508 725 c 0
 508 733 502 738 500 738 c 0
 496 738 493 744 493 750 c 0
 493 761 509 764 526 764 c 0
 553 764 566 749 568 742 c 0
 572 729 600 707 600 680 c 0
 600 653 585 634 585 634 c 2
 584 632 546 600 546 592 c 0
 546 591 530 572 529 572 c 0
 528 572 504 554 504 548 c 0
 504 546 495 536 494 536 c 1
 494 532 473 511 473 509 c 0xe260
 473 505 450 483 449 479 c 0
 446 472 437 465 434 462 c 1
 434 460 434 459 433 459 c 0
 431 459 433 454 428 446 c 2
 410 417 l 1
 410 412 401 405 401 402 c 0
 401 398 396 398 396 394 c 0xf020
 396 385 400 372 401 372 c 2
 407 357 l 1xe820
 407 352 424 336 424 332 c 0
 424 330 426 326 426 326 c 1xe420
 426 326 433 321 437 309 c 0
 440 298 459 284 466 272 c 0
 469 267 473 263 473 263 c 2xe120
 473 262 474 261 475 261 c 0
 478 261 481 242 490 239 c 0
 497 237 508 214 526 193 c 0
 528 191 535 186 535 180 c 0xe0a0
 535 174 554 148 554 142 c 0
 554 140 556 134 557 134 c 0
 558 134 560 127 560 125 c 0
 560 123 563 115 563 112 c 0
 563 107 581 94 584 89 c 0
 585 86 586 84 587 84 c 2
 587 84 592 70 592 69 c 0
 592 68 598 34 598 20 c 0
 598 11 595 4 595 -2 c 0
 595 -7 591 -20 589 -20 c 0
EndSplineSet
Fore
Refer: 90 12441 N 1 0 0 1 942 -90 2
Refer: 18 12367 N 1 0 0 1 0 0 2
Validated: 1
EndChar

StartChar: uni3051
Encoding: 12369 12369 20
Width: 1000
Flags: HMW
LayerCount: 3
Back
SplineSet
297 305 m 5x9030
 327 352 l 5
 327 352 330 353 330 356 c 4
 330 361 338 366 338 369 c 5
 346 384 l 5
 356 412 369 414 369 420 c 4
 369 421 380 434 380 439 c 4
 380 441 380 442 381 442 c 4
 383 442 390 466 398 466 c 4
 399 466 400 466 401 466 c 4
 411 466 412 461 412 456 c 6
 412 448 l 6
 412 447 411 442 411 440 c 4
 411 436 404 415 397 399 c 4
 393 388 384 374 384 373 c 4
 384 358 347 298 347 287 c 4
 347 283 344 282 344 281 c 4x9030
 344 272 321 271 313 187 c 4
 312 172 311 170 311 167 c 6x8410
 311 167 318 113 319 113 c 4
 320 113 320 113 320 111 c 6x8210
 320 111 335 48 335 39 c 4
 335 34 334 29 330 22 c 4
 329 19 332 16 313 16 c 4
 271 16 275 39 259 39 c 4
 255 39 238 67 238 71 c 4x8090
 238 80 234 79 234 85 c 4
 234 86 233 87 232 87 c 4
 226 87 229 117 221 131 c 4
 221 132 220 136 220 138 c 4x8210
 220 152 213 147 212 181 c 4x8410
 211 203 202 270 202 291 c 4x9010
 202 324 205 379 208 380 c 4
 209 380 209 383 209 386 c 4x8810
 209 394 233 494 235 540 c 4
 236 564 240 591 240 610 c 4x8050
 240 618 240 624 238 628 c 6x8090
 230 648 l 5
 228 648 223 659 223 661 c 4
 223 669 199 696 198 716 c 4
 198 718 199 719 199 721 c 4
 199 726 205 730 214 730 c 4
 238 730 287 651 287 650 c 4x8110
 290 641 297 627 299 627 c 4
 300 627 311 612 311 601 c 4x8410
 311 599 311 597 310 596 c 5
 310 593 310 590 310 587 c 4x8050
 310 554 307 561 307 553 c 4
 307 536 292 512 287 482 c 4x8110
 280 447 268 439 268 420 c 4
 268 412 258 402 258 355 c 6
 258 327 l 6x8810
 258 308 256 316 256 305 c 4
 256 270 271 268 271 266 c 5
 277 266 296 298 296 303 c 4
 296 304 297 305 297 305 c 5x9030
627 288 m 5
 626 288 627 291 627 294 c 4
 627 295 630 303 630 310 c 4
 630 315 631 318 632 318 c 6
 632 318 636 368 636 409 c 4
 636 433 635 455 629 461 c 4
 628 461 627 462 627 464 c 4
 622 485 559 476 538 487 c 4
 527 492 522 493 519 493 c 4
 510 493 485 511 485 511 c 5
 474 525 470 533 470 538 c 4
 470 547 477 549 481 549 c 4
 487 549 489 544 496 544 c 4xc012
 530 544 561 533 583 533 c 4
 601 533 603 538 613 545 c 4
 626 553 628 564 628 577 c 4
 628 593 623 610 623 626 c 4
 623 637 625 640 625 643 c 4
 625 646 623 643 623 660 c 4
 623 692 591 715 591 726 c 5
 591 726 595 748 618 748 c 4
 625 748 633 746 638 745 c 5
 641 745 l 6
 655 745 672 726 675 722 c 4
 680 716 700 704 700 675 c 4
 700 638 711 646 731 625 c 4
 739 616 751 615 763 615 c 6
 783 615 l 6
 816 615 822 598 822 585 c 4
 822 568 808 555 793 543 c 4
 764 520 707 511 705 503 c 4
 696 475 696 475 696 455 c 4
 696 427 699 434 699 420 c 4xa014
 699 406 703 420 703 391 c 6
 703 386 l 6xa012
 703 384 708 349 708 322 c 4
 708 293 699 236 699 226 c 4xa014
 699 218 694 222 693 208 c 4
 692 203 691 199 690 199 c 4
 689 199 692 196 688 192 c 4
 687 191 686 190 686 189 c 4
 686 186 678 170 678 166 c 4xa018
 678 165 661 137 658 137 c 4
 657 137 657 136 657 135 c 6
 650 122 l 5
 648 122 647 120 647 119 c 4
 647 113 631 107 623 91 c 4xa014
 621 87 619 84 618 84 c 4
 616 84 617 75 614 75 c 5
 614 75 613 74 613 72 c 4
 613 71 551 7 538 7 c 4
 530 7 515 -14 501 -18 c 4
 492 -20 483 -26 474 -26 c 4
 464 -26 463 -21 463 -12 c 6
 463 -5 l 6
 463 2 494 25 502 30 c 5
 512 42 l 5
 514 42 528 54 528 56 c 4
 528 57 540 68 541 68 c 4
 546 68 557 88 564 94 c 4
 574 102 576 117 576 117 c 6
 577 117 578 118 578 120 c 4
 578 130 599 154 599 166 c 4xa018
 599 170 602 169 602 172 c 4
 602 187 624 196 624 256 c 5
 624 256 623 263 623 268 c 4xa014
 623 273 627 285 627 288 c 5
EndSplineSet
Fore
SplineSet
695 644 m 9
 698 554 l 17
 716 562 731 571 745 582 c 1
 725 607 712 625 695 644 c 9
256 349 m 0
 256 294 261 273 270 246 c 1
 296 302 303 315 339 375 c 0
 364 417 392 467 400 467 c 0
 407 467 412 464 412 452 c 0
 412 435 384 358 341 282 c 0
 320 245 313 214 313 170 c 0
 313 118 335 72 335 39 c 0
 335 20 330 15 312 15 c 0
 255 15 236 71 221 128 c 0
 210 170 201 251 201 291 c 0
 201 331 202 353 209 386 c 0
 225 456 240 550 240 617 c 0
 240 641 198 695 198 716 c 0
 198 725 201 730 214 730 c 0
 238 730 312 630 312 596 c 0
 312 514 256 430 256 349 c 0
537 2 m 0
 519 -12 492 -26 476 -26 c 0
 467 -26 462 -22 462 -12 c 0
 462 4 484 16 502 30 c 0
 570 82 637 209 637 327 c 0
 637 389 637 431 633 476 c 1
 591 476 470 491 470 535 c 0
 470 545 473 549 485 549 c 0
 504 549 552 533 583 533 c 0
 594 533 612 534 630 537 c 1
 628 583 627 658 621 676 c 0
 614 698 591 718 591 726 c 0
 591 732 598 748 622 748 c 0
 670 748 691 706 697 686 c 0
 704 663 728 639 739 632 c 0
 747 627 773 615 782 615 c 0
 783 615 l 1
 802 615 822 606 822 585 c 0
 822 553 785 533 701 497 c 1
 705 433 706 405 706 322 c 0
 706 185 664 101 537 2 c 0
EndSplineSet
EndChar

StartChar: uni3052
Encoding: 12370 12370 21
Width: 1000
Flags: HMW
LayerCount: 3
Back
SplineSet
829 631 m 4x090c40
 826 631 828 626 816 626 c 4x090c40
 803 626 782 632 782 640 c 5
 782 640 743 672 737 672 c 4
 729 672 727 684 718 691 c 4
 715 693 712 696 712 697 c 6
 712 697 708 706 708 713 c 4
 708 722 719 730 729 730 c 4x050c40
 770 730 795 716 796 716 c 6
 796 716 835 689 835 670 c 4
 835 667 838 668 838 662 c 4x090c20
 838 656 841 660 841 650 c 4
 841 642 838 644 838 641 c 4
 838 638 832 631 829 631 c 4x090c40
810 533 m 5
 774 517 l 5
 774 517 773 516 771 516 c 4
 764 516 759 503 736 501 c 4
 723 500 698 493 698 493 c 5
 691 490 687 488 687 476 c 4
 687 458 685 453 685 440 c 4x850c80
 685 392 689 356 689 320 c 4
 689 255 653 150 653 150 c 6
 652 146 641 128 632 113 c 6
 627 104 l 5
 626 93 611 78 603 63 c 4
 590 40 554 17 550 17 c 4
 549 17 527 -7 521 -7 c 4
 514 -7 444 -56 420 -56 c 4
 402 -56 397 -46 397 -43 c 4
 397 -38 403 -32 403 -30 c 4
 403 -26 439 0 448 1 c 4
 449 1 461 6 468 12 c 4
 473 15 476 22 478 22 c 5
 535 74 524 74 529 79 c 4
 563 118 558 132 562 132 c 4
 563 132 562 134 562 136 c 4
 562 142 579 175 579 180 c 4
 579 188 587 192 587 195 c 4
 587 199 592 204 592 208 c 4
 592 209 595 214 596 217 c 4
 597 222 601 269 604 270 c 4
 605 270 606 276 606 278 c 4x850d
 606 317 618 345 618 377 c 4
 618 391 620 401 620 411 c 4
 620 420 616 429 616 433 c 4
 616 440 615 452 603 456 c 4
 596 458 594 466 580 466 c 4
 574 466 573 465 565 465 c 4x850c80
 545 465 521 474 521 474 c 5x210c80
 514 474 480 505 459 505 c 4
 439 505 416 452 402 429 c 5
 402 429 389 408 389 401 c 4
 389 390 366 356 364 350 c 4
 363 346 356 327 355 327 c 4
 354 327 336 277 336 273 c 4
 336 269 333 274 327 244 c 4
 327 243 324 240 324 238 c 6
 324 238 312 205 312 200 c 4
 312 170 316 164 316 153 c 4
 316 150 318 146 318 146 c 5
 313 61 312 61 312 61 c 6
 312 59 307 49 293 49 c 6
 289 49 l 5
 240 55 249 52 235 66 c 4
 220 82 220 80 208 100 c 4
 181 146 196 123 175 187 c 5
 173 199 l 6
 165 247 170 326 165 326 c 5x118c80
 165 329 166 338 166 342 c 4
 166 379 185 435 185 435 c 5
 188 435 189 451 189 465 c 4x414c
 189 492 194 478 194 493 c 4
 194 511 209 556 209 562 c 4
 209 571 219 596 219 624 c 4x412c
 219 667 197 662 197 691 c 4
 197 698 197 704 198 704 c 4
 201 704 198 709 202 711 c 4
 211 716 216 718 220 718 c 5
 252 708 l 5
 252 706 265 702 271 695 c 4
 280 684 288 669 288 664 c 4x411c
 288 662 294 657 294 654 c 5
 300 644 301 644 301 637 c 4x412c
 301 618 288 588 288 584 c 4x411c
 288 579 284 567 282 567 c 4
 280 567 276 556 274 556 c 4
 273 556 271 549 271 547 c 4
 271 543 263 530 263 528 c 6
 263 528 245 480 244 463 c 4
 241 434 239 439 239 434 c 4x414c
 239 423 229 431 229 384 c 4
 229 360 226 362 226 306 c 4
 226 287 229 291 229 283 c 4
 229 278 234 278 234 270 c 4
 234 263 240 234 257 234 c 4
 272 234 278 265 281 265 c 4
 285 265 288 275 290 275 c 4
 291 275 291 276 291 278 c 4
 291 282 305 301 305 307 c 5
 325 345 320 355 323 355 c 4
 325 355 341 388 341 388 c 5
 341 392 362 417 374 437 c 4
 387 458 382 469 401 490 c 4
 402 491 406 496 406 497 c 4
 406 512 419 511 427 528 c 4
 428 530 431 536 433 536 c 6x118c
 433 536 471 546 496 546 c 4
 513 546 512 534 528 534 c 4x418c
 545 534 572 542 583 542 c 4
 616 542 608 558 614 558 c 5
 614 558 615 563 615 571 c 6
 615 571 612 624 610 624 c 4
 604 624 610 656 599 677 c 4
 596 681 594 686 594 687 c 4
 594 693 557 702 553 702 c 4
 548 702 545 709 545 711 c 4
 545 716 542 718 542 723 c 4
 542 727 545 729 545 732 c 4
 545 734 549 738 552 738 c 4x838e
 555 738 568 749 586 749 c 4
 605 749 609 739 613 739 c 4
 616 739 628 730 631 730 c 4
 634 730 636 722 638 722 c 4
 640 722 646 714 646 712 c 4
 646 711 648 709 650 708 c 4
 654 704 667 687 667 685 c 4
 667 684 671 679 672 679 c 4
 673 679 681 663 683 663 c 4
 684 663 688 644 690 644 c 5
 690 644 695 639 695 637 c 4
 696 634 700 631 700 631 c 6
 701 631 712 621 713 621 c 4
 718 621 716 614 734 611 c 4
 750 608 772 600 773 600 c 4
 790 600 818 560 818 542 c 4x858e
 818 537 816 533 810 533 c 5
915 700 m 4x030c20
 915 685 910 676 887 676 c 4
 855 676 859 696 847 702 c 4
 842 705 838 710 838 714 c 4
 838 720 802 745 795 745 c 4
 794 745 777 754 777 763 c 4
 777 774 792 776 807 776 c 4
 828 776 854 773 861 771 c 4
 878 767 889 770 902 755 c 4
 907 749 908 742 909 742 c 4
 910 742 911 741 911 740 c 4
 911 728 915 713 915 700 c 4x030c20
EndSplineSet
Fore
Refer: 90 12441 N 1 0 0 1 1020 54 2
Refer: 20 12369 N 1 0 0 1 0 0 2
EndChar

StartChar: uni3053
Encoding: 12371 12371 22
Width: 1000
Flags: HMW
LayerCount: 3
Back
SplineSet
299 116 m 0
 299 127 270 140 270 195 c 0
 270 216 274 233 288 233 c 0
 294 233 296 232 296 225 c 0
 296 203 332 179 332 179 c 1
 336 179 331 173 355 161 c 0
 372 153 394 138 415 138 c 0
 423 138 430 139 430 139 c 2
 432 139 434 139 436 139 c 0
 588 139 637 178 671 178 c 0
 676 178 681 177 698 175 c 0
 730 172 730 137 730 123 c 0
 730 109 729 94 697 76 c 1
 682 71 l 2
 669 66 553 44 511 44 c 0
 475 44 435 49 391 53 c 0
 376 55 360 69 354 69 c 0
 352 69 344 74 344 75 c 0
 344 84 299 100 299 116 c 0
590 680 m 0
 621 680 639 653 639 652 c 0
 639 650 646 643 646 641 c 2
 646 631 l 2
 646 626 645 619 642 616 c 0
 565 551 496 542 479 542 c 0
 470 542 463 545 463 552 c 0
 463 561 487 564 487 574 c 0
 487 576 483 584 473 584 c 0
 467 584 459 581 446 581 c 0
 442 581 415 583 407 585 c 1
 382 604 l 1
 369 608 364 621 350 628 c 0
 344 630 331 638 331 649 c 0
 331 650 330 650 330 651 c 0
 330 656 331 663 343 664 c 2
 356 665 l 1
 376 662 412 647 449 647 c 2
 454 647 l 1
 460 646 466 647 471 647 c 0
 497 647 513 655 545 672 c 1
 557 673 572 680 590 680 c 0
EndSplineSet
Fore
SplineSet
539 23 m 3
 394 23 244 69 244 205 c 3
 244 272 254 302 280 302 c 3
 290 302 296 290 296 281 c 3
 296 274 294 266 292 258 c 0
 289 250 289 242 289 233 c 3
 289 164 360 118 499 118 c 3
 534 118 555 121 567 124 c 0
 589 129 625 133 648 133 c 3
 698 133 741 122 741 84 c 3
 741 58 667 23 539 23 c 3
436 654 m 3
 473 654 541 687 561 687 c 3
 608 687 650 660 650 633 c 3
 650 603 588 586 552 582 c 0
 535 580 516 583 468 553 c 0
 447 540 429 520 411 520 c 0
 406 520 400 522 400 528 c 0
 400 540 413 549 459 585 c 1
 408 591 377 607 346 625 c 0
 329 635 318 648 318 673 c 3
 318 681 320 687 329 687 c 3
 340 687 362 654 436 654 c 3
EndSplineSet
Validated: 1
EndChar

StartChar: uni3054
Encoding: 12372 12372 23
Width: 1000
Flags: HMW
LayerCount: 3
Back
SplineSet
672 42 m 4x4170
 623 29 584 25 551 25 c 4
 518 25 475 30 464 30 c 4
 455 30 450 29 443 29 c 4x8170
 436 29 427 31 408 38 c 5
 395 42 l 5
 389 42 396 44 375 46 c 4
 346 48 342 64 327 67 c 4
 320 68 317 75 309 79 c 4
 294 86 265 120 262 126 c 4
 253 142 245 170 245 170 c 6
 245 172 244 174 243 174 c 4
 242 174 241 181 241 205 c 5x4170
 242 219 l 5
 242 219 244 331 275 359 c 4
 281 364 278 365 283 365 c 6
 287 365 l 6
 297 365 303 364 303 331 c 4x40f0
 303 318 301 295 295 295 c 5
 295 295 294 292 294 289 c 6
 291 218 l 6
 291 216 290 215 290 213 c 4
 290 199 299 185 299 185 c 6
 300 185 305 176 305 173 c 4
 305 163 345 144 366 138 c 6
 398 129 l 6
 400 128 413 126 417 126 c 4x4170
 422 126 417 125 460 125 c 6
 499 125 l 6x8170
 600 125 565 141 630 141 c 4
 674 141 714 127 724 118 c 4
 727 116 729 114 730 114 c 4
 735 114 740 102 740 91 c 4
 740 67 713 60 712 58 c 5
 712 54 694 53 694 51 c 5
 694 51 693 50 692 50 c 4
 691 50 675 42 672 42 c 4x4170
663 538 m 4
 663 551 674 555 684 555 c 4
 702 555 725 544 725 544 c 5
 766 535 767 532 782 511 c 4
 797 490 802 473 802 462 c 4
 802 452 799 446 799 445 c 4
 799 440 786 438 771 438 c 4x2870
 754 438 735 441 730 447 c 6
 730 447 705 472 705 482 c 4x1070
 705 489 663 516 663 538 c 4
866 485 m 4
 849 485 834 500 830 501 c 4
 830 502 829 502 828 502 c 6
 828 502 816 520 809 526 c 4
 795 536 792 555 780 555 c 5
 780 555 741 566 741 581 c 4
 741 590 760 610 784 610 c 4x0870
 797 610 807 606 814 606 c 4
 822 606 845 599 864 590 c 4x0470
 866 589 900 564 900 533 c 4
 900 509 883 491 883 488 c 4
 883 487 874 485 866 485 c 4
359 444 m 4x1470
 353 444 351 455 351 457 c 4
 351 461 354 464 354 466 c 4
 354 467 368 480 368 482 c 5
 370 482 374 491 378 492 c 4
 388 495 420 540 420 540 c 5
 436 552 437 554 440 567 c 4
 441 572 450 580 450 585 c 4
 450 588 447 590 434 590 c 4x1470
 409 590 430 595 396 598 c 4
 366 601 364 617 356 617 c 5
 356 617 319 643 319 665 c 4
 319 672 318 675 318 683 c 4
 318 697 332 697 333 697 c 4
 335 697 346 679 360 674 c 4
 369 671 375 665 382 665 c 4x0270
 403 665 418 654 439 654 c 4
 466 654 497 670 497 670 c 6
 512 675 504 670 524 677 c 6
 538 682 l 5
 546 687 554 688 563 688 c 4
 588 688 614 675 614 675 c 6
 618 675 636 660 649 647 c 4
 652 644 652 639 652 634 c 6
 652 629 l 6
 652 625 652 621 651 621 c 4
 649 621 645 606 644 606 c 4
 643 606 642 606 642 605 c 4
 642 602 626 588 601 586 c 4
 551 581 589 580 539 575 c 4
 510 572 513 573 503 563 c 4
 503 562 475 545 475 539 c 4
 475 531 444 519 441 516 c 4
 420 495 398 479 398 476 c 4
 398 466 371 444 359 444 c 4x1470
EndSplineSet
Fore
Refer: 90 12441 N 1 0 0 1 960 -155 2
Refer: 22 12371 N 1 0 0 1 0 0 2
Validated: 1
EndChar

StartChar: uni3055
Encoding: 12373 12373 24
Width: 1000
Flags: HMW
LayerCount: 3
Back
SplineSet
722.599609375 387.299804688 m 0x0130
 722.599609375 384.150390625 744.650390625 350.549804688 744.650390625 340.049804688 c 1
 748.849609375 331.650390625 763.549804688 312.75 763.549804688 282.299804688 c 0
 763.549804688 280.200195312 766.700195312 279.150390625 766.700195312 260.25 c 0
 766.700195312 242.400390625 763.549804688 244.5 763.549804688 241.349609375 c 0
 763.549804688 238.200195312 755.150390625 227.700195312 755.150390625 224.549804688 c 0
 755.150390625 221.400390625 750.950195312 209.849609375 740.450195312 204.599609375 c 0
 728.900390625 199.349609375 718.400390625 176.25 697.400390625 176.25 c 0
 670.099609375 176.25 638.599609375 199.349609375 633.349609375 207.75 c 0
 630.200195312 211.950195312 611.299804688 224.549804688 596.599609375 231.900390625 c 0
 594.5 234 551.450195312 267.599609375 529.400390625 267.599609375 c 0x1128
 516.799804688 267.599609375 519.950195312 281.25 464.299804688 281.25 c 0
 423.349609375 281.25 395 270.75 356.150390625 216.150390625 c 0
 351.950195312 209.849609375 350.900390625 200.400390625 350.900390625 193.049804688 c 0
 350.900390625 186.75 351.950195312 182.549804688 351.950195312 182.549804688 c 1
 354.049804688 163.650390625 l 1
 361.400390625 138.450195312 372.950195312 139.5 391.849609375 122.700195312 c 0
 393.950195312 120.599609375 401.299804688 115.349609375 402.349609375 115.349609375 c 0
 405.5 115.349609375 407.599609375 108 421.25 108 c 0x28a8
 433.849609375 108 440.150390625 101.700195312 454.849609375 101.700195312 c 0x80a8
 473.75 101.700195312 475.849609375 98.5498046875 494.75 96.4501953125 c 2
 528.349609375 92.25 l 2
 533.599609375 92.25 539.900390625 91.2001953125 542 91.2001953125 c 2
 552.5 85.9501953125 l 1
 595.549804688 69.150390625 596.599609375 40.7998046875 596.599609375 38.7001953125 c 0
 596.599609375 21.900390625 570.349609375 11.400390625 563 11.400390625 c 2
 547.25 11.400390625 l 2x40a8
 525.200195312 11.400390625 519.950195312 8.25 494.75 8.25 c 0x80a8
 447.5 8.25 428.599609375 22.9501953125 428.599609375 22.9501953125 c 2
 426.5 22.9501953125 412.849609375 31.349609375 409.700195312 31.349609375 c 2
 379.25 38.7001953125 l 1
 375.049804688 40.7998046875 365.599609375 49.2001953125 365.599609375 50.25 c 0
 322.549804688 73.349609375 287.900390625 137.400390625 287.900390625 163.650390625 c 0x20a8
 287.900390625 185.700195312 302.599609375 203.549804688 302.599609375 218.25 c 0
 302.599609375 228.75 314.150390625 236.099609375 318.349609375 246.599609375 c 0
 333.049804688 279.150390625 411.799804688 309.599609375 430.700195312 309.599609375 c 0
 442.25 309.599609375 435.950195312 311.700195312 481.099609375 311.700195312 c 0x2860
 519.950195312 311.700195312 516.799804688 307.5 519.950195312 307.5 c 2
 519.950195312 307.5 605 287.549804688 653.299804688 287.549804688 c 0
 679.549804688 287.549804688 691.099609375 291.75 691.099609375 315.900390625 c 0x1068
 691.099609375 336.900390625 680.599609375 356.849609375 680.599609375 365.25 c 1
 657.5 410.400390625 l 1
 639.650390625 441.900390625 588.200195312 478.650390625 588.200195312 478.650390625 c 2
 588.200195312 479.700195312 585.049804688 481.799804688 581.900390625 481.799804688 c 0
 578.75 481.799804688 557.75 498.599609375 528.349609375 498.599609375 c 0x1230
 526.25 498.599609375 524.150390625 498.599609375 521 497.549804688 c 2
 490.549804688 494.400390625 l 1
 453.799804688 489.150390625 428.599609375 486 399.200195312 486 c 0
 298.400390625 486 233.299804688 546.900390625 233.299804688 583.650390625 c 0
 233.299804688 591 235.400390625 598.349609375 242.75 598.349609375 c 0
 271.099609375 597.299804688 280.549804688 572.099609375 307.849609375 564.75 c 0
 348.799804688 553.200195312 404.450195312 550.049804688 416 550.049804688 c 0x0430
 440.150390625 550.049804688 441.200195312 551.099609375 442.25 552.150390625 c 0
 444.349609375 554.25 476.900390625 565.799804688 476.900390625 582.599609375 c 0
 476.900390625 609.900390625 406.549804688 652.950195312 403.400390625 657.150390625 c 0
 397.099609375 667.650390625 396.049804688 672.900390625 396.049804688 677.099609375 c 2
 396.049804688 679.200195312 l 2
 396.049804688 705.450195312 408.650390625 705.450195312 408.650390625 706.5 c 0
 408.650390625 707.549804688 435.950195312 711.75 435.950195312 711.75 c 1
 482.150390625 711.75 474.799804688 680.25 548.299804688 675 c 0
 560.900390625 673.950195312 585.049804688 666.599609375 607.099609375 666.599609375 c 0
 631.25 666.599609375 635.450195312 676.049804688 648.049804688 676.049804688 c 0
 663.799804688 676.049804688 676.400390625 661.349609375 679.549804688 655.049804688 c 1
 702.650390625 627.75 703.700195312 628.799804688 703.700195312 619.349609375 c 0
 703.700195312 615.150390625 702.650390625 612 701.599609375 604.650390625 c 0
 697.400390625 588.900390625 647 550.049804688 635.450195312 550.049804688 c 0
 618.650390625 550.049804688 615.5 534.299804688 615.5 534.299804688 c 2
 615.5 533.25 614.450195312 532.200195312 614.450195312 529.049804688 c 0
 614.450195312 517.5 621.799804688 511.200195312 621.799804688 509.099609375 c 0
 621.799804688 496.5 675.349609375 459.75 675.349609375 449.25 c 0
 675.349609375 448.200195312 701.599609375 417.75 701.599609375 415.650390625 c 0
 701.599609375 409.349609375 722.599609375 390.450195312 722.599609375 387.299804688 c 0x0130
504.200195312 615.150390625 m 0
 507.349609375 607.799804688 522.049804688 589.950195312 531.5 589.950195312 c 0x0220
 534.650390625 589.950195312 539.900390625 591 545.150390625 595.200195312 c 0
 551.450195312 599.400390625 568.25 600.450195312 568.25 614.099609375 c 0
 568.25 621.450195312 557.75 638.25 540.950195312 640.349609375 c 0
 522.049804688 643.5 505.25 648.75 494.75 648.75 c 0
 489.5 648.75 485.299804688 646.650390625 485.299804688 640.349609375 c 0
 485.299804688 630.900390625 500 624.599609375 500 620.400390625 c 0
 500 619.349609375 503.150390625 615.150390625 504.200195312 615.150390625 c 0
EndSplineSet
Fore
SplineSet
398 117 m 0
 448 91 493 106 557 84 c 0
 587 74 597 47 597 39 c 3
 597 21 577 8 495 8 c 3
 370 8 288 115 288 164 c 3
 288 258 378 312 472 312 c 16
 547 312 568 288 653 288 c 0
 679 288 691 292 691 316 c 3
 691 378 647 413 607 468 c 0
 592 489 578 502 563 516 c 1
 541 508 520 498 491 494 c 0
 458 489 437 486 408 486 c 3
 290 486 233 552 233 584 c 3
 233 591 236 598 243 598 c 3
 271 598 281 572 308 565 c 0
 349 553 404 550 416 550 c 0
 428 550 460 556 500 573 c 1
 464 607 448 629 410 653 c 0
 400 659 396 668 396 690 c 3
 396 700 407 711 439 711 c 3
 484 711 492 666 595 666 c 3
 634 666 630 676 648 676 c 3
 664 676 671 667 680 655 c 0
 697 635 704 626 704 616 c 3
 704 579 635 549 599 532 c 1
 624 509 648 483 675 449 c 0
 721 391 764 312 764 282 c 3
 764 234 745 176 697 176 c 3
 670 176 654 190 633 208 c 0
 589 246 520 281 464 281 c 8
 408 281 351 240 351 193 c 3
 351 156 365 134 398 117 c 0
608 637 m 1
 587 637 567 638 541 640 c 0
 511 642 493 649 464 654 c 1
 489 629 513 608 535 589 c 1
 559 602 584 617 608 637 c 1
EndSplineSet
EndChar

StartChar: uni3056
Encoding: 12374 12374 25
Width: 1000
Flags: HMW
LayerCount: 3
Back
SplineSet
603 523 m 0x954a
 603 515 646 453 646 447 c 0
 646 445 647 444 648 444 c 0
 649 444 653 433 657 426 c 0
 660 421 665 417 665 415 c 0
 665 413 676 403 676 396 c 0
 676 395 677 396 690 358 c 1
 690 350 699 347 699 343 c 1
 707 320 l 2
 707 318 710 313 711 313 c 2
 711 313 717 307 717 297 c 0
 717 290 715 282 708 272 c 0
 707 272 703 258 699 247 c 0
 699 246 694 237 694 235 c 0
 694 232 689 216 678 209 c 0
 665 200 640 198 640 198 c 1
 634 198 633 195 631 195 c 2
 631 195 624 191 617 191 c 0
 603 191 592 216 592 218 c 0
 592 227 543 252 540 252 c 0xd54a
 538 252 525 262 521 262 c 0
 518 262 510 272 508 272 c 0
 504 272 507 277 438 277 c 0
 395 277 384 273 376 269 c 2
 363 263 l 2
 358 261 348 245 348 245 c 1
 348 243 341 236 341 234 c 0
 341 232 325 221 325 205 c 0
 325 164 341 149 341 145 c 0
 341 144 365 116 370 115 c 2
 370 115 416 94 477 94 c 0
 493 94 497 96 527 96 c 0
 562 96 582 79 582 79 c 1
 590 72 l 2
 597 66 599 62 599 59 c 0
 599 54 595 51 595 48 c 0
 595 33 544 8 502 8 c 0
 405 8 425 17 405 17 c 0
 391 17 319 40 298 64 c 0
 278 87 277 92 277 98 c 0
 277 118 263 123 263 162 c 0
 263 241 316 272 323 279 c 2
 335 291 l 1
 356 306 425 317 471 317 c 0xa056
 519 317 574 303 590 303 c 0
 602 303 606 300 609 300 c 1
 609 300 637 315 637 336 c 0
 637 350 626 364 626 369 c 1
 626 369 612 383 612 397 c 0
 612 401 612 402 611 402 c 0
 609 402 602 428 592 444 c 0
 585 455 571 467 571 470 c 0
 571 472 565 475 566 477 c 1
 565 477 562 480 558 484 c 2
 543 500 l 1
 541 504 535 506 528 506 c 0
 512 506 441 487 427 487 c 0
 421 487 427 484 411 484 c 0
 405 484 400 485 400 485 c 1
 400 488 400 488 396 488 c 2
 388 488 l 2xd056
 363 488 351 499 345 499 c 0
 343 499 338 506 336 506 c 0
 333 506 309 515 301 523 c 0
 295 528 295 529 294 529 c 2
 290 529 l 2
 285 529 278 533 278 536 c 0
 278 537 268 543 268 548 c 0
 268 549 268 550 267 550 c 0
 266 550 262 564 262 576 c 0
 262 585 265 591 274 591 c 0x8862
 279 591 285 590 291 589 c 0
 293 589 309 574 309 572 c 0
 309 567 340 561 341 560 c 0
 346 552 366 549 385 549 c 0
 413 549 417 555 420 555 c 0
 422 555 423 554 427 554 c 0
 433 554 451 558 457 558 c 0
 470 558 481 564 481 574 c 0
 481 579 479 586 478 586 c 2
 478 586 477 587 477 589 c 0x9066
 477 597 456 612 456 615 c 0
 456 616 452 620 450 620 c 0
 446 620 447 630 431 641 c 0
 426 645 417 653 417 655 c 0
 417 661 403 666 403 679 c 0
 403 681 405 686 406 691 c 17
 414 691 399 723 455 723 c 0
 503 723 496 697 526 683 c 0
 533 680 530 685 545 677 c 2
 563 667 l 2
 572 663 573 659 580 658 c 0
 582 657 584 657 584 656 c 0
 584 647 662 645 668 640 c 0
 670 638 672 637 673 637 c 0
 675 637 676 629 684 625 c 0
 695 619 697 611 697 603 c 0
 697 580 678 571 678 571 c 1
 676 571 676 570 676 570 c 2
 676 569 644 555 644 552 c 0
 644 551 624 543 624 543 c 1
 620 543 605 533 605 531 c 0
 605 530 603 526 603 523 c 0x954a
550 595 m 0
 559 595 561 600 564 600 c 0
 566 600 566 601 566 602 c 0
 566 608 547 628 538 628 c 0
 536 628 537 633 529 636 c 0
 519 641 518 645 513 645 c 0
 511 645 509 643 509 640 c 0x814a
 509 636 511 631 517 622 c 0
 519 619 518 610 527 605 c 0
 537 599 539 597 539 596 c 2x8146
 539 596 545 595 550 595 c 0
843 656 m 0
 843 619 836 620 836 617 c 0
 836 612 820 607 804 607 c 0x8242
 757 607 756 651 738 665 c 0
 737 666 710 680 710 692 c 1
 710 692 709 693 708 693 c 2
 708 693 704 701 704 708 c 0
 704 709 704 710 704 711 c 0
 704 712 705 716 705 716 c 1x80c2
 707 716 707 725 728 725 c 0
 741 725 755 721 767 720 c 0x8242
 793 718 840 671 842 664 c 0
 843 662 843 659 843 656 c 0
808 781 m 0
 808 792 828 793 833 793 c 0
 848 793 860 788 878 780 c 0
 918 764 929 749 929 726 c 0
 929 721 928 716 926 712 c 0
 921 700 927 689 907 685 c 0
 895 683 895 682 894 682 c 2
 894 682 893 683 889 683 c 1
 889 683 869 697 863 711 c 0
 861 715 851 722 849 725 c 0
 846 730 834 743 832 743 c 0
 831 743 808 767 808 781 c 0
EndSplineSet
Fore
Refer: 90 12441 N 1 0 0 1 1002 30 2
Refer: 24 12373 N 1 0 0 1 0 0 2
EndChar

StartChar: uni3057
Encoding: 12375 12375 26
Width: 1000
Flags: HMW
LayerCount: 3
Back
SplineSet
254.254882812 272.705078125 m 4xc2
 252.11328125 313.569335938 256.112304688 272.802734375 258.041992188 378.137695312 c 4
 258.435546875 388.40234375 260.584960938 382.927734375 261.858398438 394.169921875 c 6
 266.708007812 443.78125 l 5
 269.791015625 456.048828125 269.892578125 471.885742188 268.918945312 490.4609375 c 4x92
 268.286132812 502.534179688 273.9140625 537.286132812 275.143554688 567.151367188 c 4
 276.760742188 589.586914062 273.541015625 615.494140625 274.765625 627.665039062 c 4
 275.548828125 630.5 276.087890625 637.978515625 275.991210938 639.8359375 c 6x86
 275.991210938 639.8359375 277.506835938 646.43359375 277.069335938 654.79296875 c 4
 275.998046875 675.224609375 266.7109375 674.73828125 266.467773438 679.381835938 c 4
 266.224609375 684.025390625 245.943359375 697.862304688 245.69921875 702.505859375 c 4
 245.553710938 705.29296875 239.8828125 706.857421875 239.688476562 710.573242188 c 4
 239.590820312 712.4296875 241.306640625 733.008789062 255.237304688 733.73828125 c 4
 258.953125 733.93359375 263.64453125 733.248046875 263.64453125 733.248046875 c 6
 271.075195312 733.63671875 275.668945312 734.809570312 280.313476562 735.052734375 c 4
 305.389648438 736.3671875 352.254882812 695.052734375 353.034179688 680.193359375 c 4x8a
 353.375 673.692382812 349.022460938 667.876953125 349.4609375 659.517578125 c 4x86
 350.434570312 640.944335938 343.443359375 632.1953125 340.65234375 614.354492188 c 4
 336.588867188 585.272460938 336.188476562 539.618164062 334.330078125 539.521484375 c 4
 333.40234375 539.47265625 330.072265625 514.154296875 330.12109375 513.225585938 c 4x92
 330.607421875 503.938476562 320.379882812 450.319335938 321.791992188 423.385742188 c 5
 320.86328125 423.337890625 318.7578125 410.189453125 318.85546875 408.33203125 c 4
 319.633789062 393.47265625 314.114257812 409.9453125 316.83984375 357.9375 c 4
 319.126953125 314.288085938 314.669921875 274.939453125 316.422851562 241.505859375 c 4xc2
 317.493164062 221.07421875 321.059570312 206.360351562 321.984375 188.71484375 c 4
 322.081054688 186.857421875 330.625976562 148.19140625 336.291992188 128.931640625 c 4
 338.44140625 123.456054688 355.446289062 101.06640625 355.689453125 96.421875 c 4
 355.787109375 94.564453125 364.583007812 86.64453125 367.370117188 86.791015625 c 4
 374.799804688 87.1796875 397.572265625 61.365234375 475.584960938 65.4541015625 c 4
 518.306640625 67.693359375 552.721679688 86.259765625 573.985351562 89.236328125 c 4
 582.294921875 90.603515625 633.28515625 130.52734375 656.016601562 141.03125 c 4
 660.563476562 143.131835938 679.09375 162.728515625 683.736328125 162.971679688 c 5
 683.736328125 162.971679688 707.006835938 180.955078125 706.958984375 181.8828125 c 4
 706.91015625 182.811523438 720.354492188 192.829101562 721.282226562 192.877929688 c 4
 722.211914062 192.926757812 727.345703125 201.577148438 738.883789062 212.42578125 c 4
 745.092773438 218.338867188 753.159179688 224.348632812 754.87109375 227.232421875 c 4
 757.365234375 232.952148438 767.389648438 254.896484375 785.96484375 255.870117188 c 4
 793.39453125 256.258789062 795.592773438 249.85546875 795.982421875 242.424804688 c 4
 797.977539062 204.34765625 759.405273438 176.25 748.748046875 166.37890625 c 4
 737.209960938 155.53125 714.76171875 104.065429688 646.22265625 61.359375 c 4
 640.796875 58.28125 638.25390625 53.4912109375 627.254882812 50.12109375 c 4
 626.327148438 50.072265625 606.283203125 41.572265625 606.33203125 40.6435546875 c 4
 606.575195312 35.9990234375 523.181640625 10.2109375 509.494140625 4.8359375 c 4
 497.614257812 0.48828125 480.115234375 -3.22265625 460.612304688 -4.244140625 c 4
 418.819335938 -6.4345703125 368.1328125 1.15234375 335.387695312 21.787109375 c 4
 316.083007812 34.7451171875 275.43359375 117.360351562 275.336914062 119.217773438 c 4xa2
 275.239257812 121.075195312 272.846679688 131.194335938 271.91796875 131.145507812 c 4
 265.416992188 130.805664062 257.174804688 216.981445312 254.254882812 272.705078125 c 4xc2
EndSplineSet
Fore
SplineSet
276 736 m 3
 302 736 354 706 354 691 c 3
 354 676 316 340 316 288 c 3
 316 236 317 65 448 65 c 3
 528 65 660 107 752 226 c 0
 768 247 772 256 786 256 c 3
 797 256 800 246 800 236 c 3
 800 208 651 -5 439 -5 c 3
 330 -5 251 65 251 282 c 3
 251 322 278 512 278 653 c 3
 278 682 240 698 240 712 c 3
 240 727 249 736 276 736 c 3
EndSplineSet
EndChar

StartChar: uni3058
Encoding: 12376 12376 27
Width: 1000
Flags: HMW
LayerCount: 3
Back
SplineSet
600 496 m 4x10
 600 465 574 459 557 459 c 4
 531 459 527 477 524 484 c 4
 521 489 487 535 487 535 c 6
 487 536 486 537 486 537 c 6
 485 537 478 562 478 563 c 6
 478 568 l 6
 478 577 479 586 498 586 c 4
 515 586 530 572 537 572 c 4
 548 572 552 563 557 563 c 4
 561 563 572 555 572 552 c 4
 572 551 578 543 579 543 c 4
 580 543 582 538 582 537 c 4
 582 535 600 523 600 496 c 4x10
551 623 m 4
 551 636 565 646 570 646 c 4
 603 646 645 628 649 626 c 6
 661 621 l 5
 676 616 672 613 678 605 c 4
 680 603 683 594 683 591 c 6
 683 552 l 6
 683 549 676 534 676 534 c 5
 676 534 659 524 647 524 c 4
 632 524 551 606 551 623 c 4
679 105 m 5
 657 81 619 49 618 49 c 4x38
 616 49 587 23 585 23 c 4x58
 526 -8 496 -11 430 -11 c 4
 381 -11 324 -4 280 41 c 4
 272 49 269 62 252 93 c 4
 237 121 233 161 233 193 c 4x98
 233 221 236 243 236 243 c 5
 236 299 248 331 248 353 c 4x94
 248 367 259 394 259 440 c 4x92
 259 444 264 459 264 472 c 5
 264 472 273 528 274 529 c 5
 278 529 282 586 285 589 c 4
 288 592 288 616 288 633 c 4
 288 690 266 678 266 698 c 5
 257 716 l 6
 256 716 256 718 256 721 c 4
 256 731 260 733 266 733 c 4
 275 733 288 725 294 723 c 4
 310 719 312 705 322 705 c 4
 332 705 344 682 349 682 c 5
 353 681 369 658 369 623 c 4x91
 369 590 362 546 362 544 c 6
 347 507 l 5
 347 507 339 481 339 480 c 4x92
 339 471 322 434 321 372 c 4x94
 321 362 297 209 297 191 c 4
 297 184 298 180 298 171 c 4
 298 109 303 120 307 108 c 5
 314 97 l 5
 317 97 341 60 431 60 c 4x98
 474 60 508 67 508 67 c 5x58
 520 71 599 103 599 105 c 5
 615 116 l 5x38
 615 116 641 138 644 138 c 4
 645 138 646 139 646 140 c 4
 646 143 690 176 696 187 c 4
 700 194 711 202 720 213 c 6
 730 224 l 6
 735 230 749 249 761 249 c 4
 765 249 767 245 767 240 c 4
 767 230 761 216 759 210 c 4
 759 209 754 202 754 200 c 5
 754 200 732 157 716 143 c 4
 707 134 693 115 691 115 c 4
 689 115 681 105 679 105 c 5
EndSplineSet
Fore
Refer: 90 12441 N 1 0 0 1 793 -106 2
Refer: 26 12375 N 1 0 0 1 0 0 2
EndChar

StartChar: uni3059
Encoding: 12377 12377 28
Width: 985
Flags: HMW
LayerCount: 3
Back
SplineSet
555.799804688 502.450195312 m 0xe2a0
 555.799804688 405.549804688 573.849609375 421.700195312 591.900390625 382.75 c 1
 597.599609375 382.75 621.349609375 297.25 621.349609375 291.549804688 c 0
 621.349609375 286.799804688 627.049804688 253.549804688 627.049804688 243.099609375 c 2
 627.049804688 230.75 l 2
 627.049804688 226 621.349609375 220.299804688 621.349609375 220.299804688 c 1xe2c0
 618.5 220.299804688 616.599609375 187.049804688 614.700195312 187.049804688 c 0
 613.75 187.049804688 611.849609375 183.25 611.849609375 181.349609375 c 0xe284
 611.849609375 163.299804688 596.650390625 146.200195312 596.650390625 140.5 c 1xe288
 594.75 140.5 584.299804688 99.650390625 568.150390625 77.7998046875 c 0
 549.150390625 51.2001953125 511.150390625 17 511.150390625 17 c 1
 509.25 17 494.049804688 7.5 494.049804688 5.599609375 c 0
 494.049804688 3.7001953125 465.549804688 -21.9501953125 443.700195312 -29.5498046875 c 0
 424.700195312 -35.25 399.049804688 -39.0498046875 381.950195312 -39.0498046875 c 0
 372.450195312 -39.0498046875 365.799804688 -38.099609375 365.799804688 -35.25 c 0
 367.700195312 -3.900390625 391.450195312 -12.4501953125 410.450195312 1.7998046875 c 0
 417.099609375 6.5498046875 433.25 13.2001953125 437.049804688 18.900390625 c 0
 447.5 32.2001953125 501.650390625 57.849609375 519.700195312 94.900390625 c 0xe290
 520.650390625 96.7998046875 542.5 130.049804688 542.5 154.75 c 0xe288
 542.5 157.599609375 543.450195312 163.299804688 543.450195312 169 c 0xe284
 543.450195312 175.650390625 541.549804688 183.25 533 183.25 c 0
 521.599609375 183.25 505.450195312 164.25 488.349609375 164.25 c 0
 485.5 164.25 482.650390625 165.200195312 479.799804688 166.150390625 c 0
 443.700195312 183.25 433.25 168.049804688 411.400390625 242.150390625 c 0
 408.549804688 250.700195312 402.849609375 247.849609375 400.950195312 271.599609375 c 0
 398.099609375 304.849609375 388.599609375 304.849609375 388.599609375 326.700195312 c 1
 388.599609375 326.700195312 383.849609375 350.450195312 383.849609375 369.450195312 c 0
 383.849609375 387.5 389.549804688 384.650390625 389.549804688 391.299804688 c 0
 389.549804688 395.099609375 398.099609375 422.650390625 398.099609375 422.650390625 c 1
 398.099609375 426.450195312 408.549804688 438.799804688 408.549804688 440.700195312 c 0
 408.549804688 442.599609375 416.150390625 453.049804688 417.099609375 454.950195312 c 0
 428.5 473.950195312 498.799804688 489.150390625 509.25 489.150390625 c 0
 511.150390625 489.150390625 512.099609375 492.950195312 512.099609375 498.650390625 c 0
 512.099609375 503.400390625 511.150390625 510.049804688 511.150390625 513.849609375 c 0
 511.150390625 523.349609375 513.049804688 516.700195312 513.049804688 530.950195312 c 0
 513.049804688 563.25 512.099609375 563.25 510.200195312 564.200195312 c 0
 496.900390625 568 488.349609375 568 481.700195312 568 c 0xe2a0
 466.5 568 464.599609375 561.349609375 451.299804688 561.349609375 c 0
 437.049804688 561.349609375 426.599609375 554.700195312 423.75 554.700195312 c 0
 422.799804688 554.700195312 421.849609375 553.75 421.849609375 552.799804688 c 0
 421.849609375 549 393.349609375 533.799804688 384.799804688 533.799804688 c 0xe8a0
 383.849609375 533.799804688 351.549804688 524.299804688 351.549804688 524.299804688 c 2
 350.599609375 524.299804688 349.650390625 524.299804688 349.650390625 523.349609375 c 0
 349.650390625 521.450195312 336.349609375 518.599609375 327.799804688 516.700195312 c 0
 316.400390625 514.799804688 311.650390625 504.349609375 292.650390625 503.400390625 c 0
 254.650390625 500.549804688 237.549804688 492.950195312 222.349609375 492.950195312 c 0
 197.650390625 492.950195312 145.400390625 532.849609375 145.400390625 549 c 0
 145.400390625 555.650390625 149.200195312 562.299804688 149.200195312 567.049804688 c 0
 149.200195312 569.900390625 154.900390625 581.299804688 173.900390625 581.299804688 c 0
 191 581.299804688 200.5 573.700195312 218.549804688 573.700195312 c 0xf0a0
 229.950195312 573.700195312 303.099609375 581.299804688 323.049804688 589.849609375 c 0
 327.799804688 591.75 352.5 601.25 355.349609375 601.25 c 0xe8a0
 357.25 601.25 363.900390625 604.099609375 364.849609375 604.099609375 c 2
 364.849609375 604.099609375 458.900390625 613.599609375 470.299804688 617.400390625 c 1xe2a0
 481.700195312 617.400390625 501.650390625 626.900390625 508.299804688 628.799804688 c 1
 512.099609375 628.799804688 519.700195312 628.799804688 519.700195312 663 c 0
 519.700195312 714.299804688 501.650390625 724.75 481.700195312 747.549804688 c 2
 470.299804688 760.849609375 l 2
 469.349609375 761.799804688 467.450195312 763.700195312 467.450195312 769.400390625 c 0
 467.450195312 785.549804688 475.049804688 795.049804688 498.799804688 795.049804688 c 0
 507.349609375 795.049804688 516.849609375 794.099609375 530.150390625 791.25 c 0
 534.900390625 789.349609375 559.599609375 771.299804688 566.25 757.049804688 c 1
 571.950195312 746.599609375 l 2
 572.900390625 745.650390625 572.900390625 743.75 572.900390625 742.799804688 c 0
 572.900390625 737.099609375 583.349609375 726.650390625 583.349609375 723.799804688 c 0
 583.349609375 721.900390625 601.400390625 699.099609375 616.599609375 695.299804688 c 0
 636.549804688 689.599609375 660.299804688 664.900390625 712.549804688 664.900390625 c 0xe190
 723.950195312 664.900390625 722.049804688 661.099609375 747.700195312 659.200195312 c 0
 782.849609375 657.299804688 757.200195312 652.549804688 800.900390625 650.650390625 c 0xe490
 809.450195312 649.700195312 811.349609375 644 814.200195312 644 c 0
 815.150390625 644 816.099609375 643.049804688 816.099609375 643.049804688 c 2
 816.099609375 642.099609375 831.299804688 636.400390625 831.299804688 630.700195312 c 0
 831.299804688 627.849609375 837.950195312 618.349609375 837.950195312 617.400390625 c 0xe290
 837.950195312 615.5 844.599609375 613.599609375 844.599609375 605.049804688 c 0
 844.599609375 600.299804688 841.75 593.650390625 833.200195312 584.150390625 c 0
 819.900390625 569.900390625 784.75 568 784.75 568 c 1xe490
 780 568 776.200195312 568 776.200195312 568.950195312 c 0
 776.200195312 570.849609375 712.549804688 577.5 712.549804688 577.5 c 1
 689.75 577.5 710.650390625 580.349609375 683.099609375 580.349609375 c 0
 643.200195312 580.349609375 640.349609375 578.450195312 632.75 578.450195312 c 0
 624.200195312 578.450195312 614.700195312 582.25 602.349609375 582.25 c 0xe190
 584.299804688 582.25 573.849609375 575.599609375 569.099609375 575.599609375 c 0
 568.150390625 575.599609375 561.5 568.950195312 561.5 568 c 0
 561.5 564.200195312 556.75 561.349609375 556.75 556.599609375 c 0
 555.799804688 535.700195312 555.799804688 517.650390625 555.799804688 502.450195312 c 0xe2a0
576.700195312 667.75 m 1xe090
 576.700195312 649.700195312 l 2
 576.700195312 647.799804688 577.650390625 647.799804688 579.549804688 647.799804688 c 0
 583.349609375 647.799804688 590 651.599609375 590.950195312 653.5 c 0
 590.950195312 655.400390625 577.650390625 667.75 576.700195312 667.75 c 1xe090
508.299804688 385.599609375 m 0
 508.299804688 404.599609375 497.849609375 405.549804688 497.849609375 409.349609375 c 0
 497.849609375 412.200195312 458.900390625 429.299804688 443.700195312 429.299804688 c 0
 436.099609375 429.299804688 421.849609375 404.599609375 421.849609375 392.25 c 0
 421.849609375 386.549804688 419.950195312 380.849609375 419.950195312 372.299804688 c 0
 419.950195312 320.049804688 448.450195312 290.599609375 448.450195312 288.700195312 c 1
 448.450195312 288.700195312 464.599609375 272.549804688 485.5 272.549804688 c 0
 493.099609375 272.549804688 507.349609375 289.650390625 507.349609375 312.450195312 c 1
 505.450195312 324.799804688 l 2
 504.5 327.650390625 504.5 328.599609375 504.5 330.5 c 0
 504.5 339.049804688 509.25 338.099609375 509.25 354.25 c 0
 509.25 366.599609375 507.349609375 367.549804688 507.349609375 377.049804688 c 0xe0c0
 507.349609375 379.900390625 508.299804688 382.75 508.299804688 385.599609375 c 0
EndSplineSet
Fore
SplineSet
560 445 m 1
 576 426 621 340 621 258 c 0
 621 123 583 66 504 17 c 0
 463 -8 421 -22 384 -22 c 0
 372 -22 360 -19 360 -12 c 0
 360 -2 376 13 389 17 c 0
 497 47 557 131 557 216 c 1
 537 189 501 173 473 173 c 0
 421 173 382 292 382 359 c 0
 382 438 434 473 479 473 c 0
 492 473 503 472 514 468 c 1
 512 496 512 538 512 563 c 1
 398 548 291 492 230 492 c 0
 211 492 155 527 155 557 c 0
 155 573 175 579 184 579 c 0
 200 579 210 571 234 571 c 0
 277 571 409 599 515 621 c 1
 517 640 519 655 519 669 c 0
 519 716 468 739 468 759 c 0
 468 770 478 785 498 785 c 0
 571 785 545 726 624 677 c 0
 661 654 732 652 774 647 c 0
 818 642 836 632 836 606 c 0
 836 588 818 565 788 565 c 0
 751 565 706 581 630 581 c 0
 608 581 580 573 554 570 c 1
 554 507 556 488 560 445 c 1
563 697 m 1
 563 669 562 654 560 630 c 1
 575 632 593 637 609 637 c 1
 591 666 583 680 563 697 c 1
525 348 m 0
 525 412 463 428 447 428 c 0
 432 428 422 400 422 363 c 0
 422 313 456 269 478 269 c 0
 503 269 525 313 525 348 c 0
EndSplineSet
EndChar

StartChar: uni305A
Encoding: 12378 12378 29
Width: 985
Flags: HMW
LayerCount: 3
Back
SplineSet
720 428 m 0xa82028
 720 434 722 441 731 441 c 0
 754 441 800 415 800 408 c 0
 800 407 800 406 801 406 c 0xc02028
 802 406 819 388 819 388 c 1
 823 388 823 379 823 371 c 2
 823 362 l 2
 823 352 822 344 822 344 c 2xa02018
 821 344 818 324 814 324 c 0xc02018
 811 324 810 314 786 314 c 0
 758 314 747 339 747 344 c 0xa02018
 747 373 736 387 736 387 c 2
 736 389 733 394 733 397 c 1
 733 397 720 413 720 428 c 0xa82028
923 370 m 1
 923 364 910 357 910 355 c 0
 910 354 899 351 888 351 c 0
 867 351 857 377 857 382 c 1
 855 385 843 438 835 438 c 0
 834 438 830 449 830 452 c 0
 830 454 825 459 825 463 c 0
 825 473 850 475 853 475 c 0xc42008
 862 475 886 461 886 461 c 1
 902 446 l 1
 904 446 926 416 926 406 c 1
 926 406 928 397 928 387 c 0
 928 375 923 370 923 370 c 1
561 541 m 2
 561 540 545 534 545 522 c 0
 545 519 546 516 546 516 c 1x806418
 544 459 542 444 542 430 c 2
 542 422 l 1
 581 371 619 322 619 313 c 2x806088
 619 313 627 264 627 219 c 0x806108
 627 188 618 146 615 146 c 1
 615 146 614 142 614 137 c 1
 614 137 611 116 603 114 c 0
 599 112 595 86 585 76 c 0
 582 73 580 70 580 69 c 0
 580 67 562 50 562 48 c 0
 562 45 560 45 560 41 c 0
 560 37 549 27 549 25 c 0
 549 19 529 1 528 -2 c 0
 526 -8 485 -62 423 -62 c 0
 383 -62 383 -53 379 -53 c 0
 375 -53 371 -50 371 -44 c 0
 371 -34 376 -28 388 -28 c 0
 411 -28 476 0 476 4 c 0
 476 7 493 25 493 28 c 0
 493 30 507 42 507 48 c 1
 520 80 521 80 521 80 c 2
 521 82 535 108 535 129 c 0
 535 146 531 147 529 147 c 2
 529 147 510 138 506 138 c 0
 505 138 497 133 488 133 c 0
 476 133 475 140 469 140 c 0
 467 140 462 147 460 147 c 0
 450 147 402 227 402 230 c 0
 402 238 392 260 390 267 c 2
 385 286 l 2
 383 292 382 299 382 301 c 2x806848
 382 301 378 325 378 340 c 0
 378 400 392 392 392 398 c 0
 392 406 437 445 478 445 c 0
 482 445 484 444 487 444 c 1
 489 455 491 476 491 497 c 2
 491 499 l 2
 491 516 491 526 481 526 c 0
 473 526 441 520 436 516 c 0
 425 506 406 510 398 502 c 0
 376 481 373 493 332 479 c 0
 297 466 296 470 272 459 c 0
 261 454 257 448 253 448 c 0
 220 440 217 439 214 439 c 0
 188 439 162 467 157 467 c 1
 151 477 134 475 134 501 c 0
 134 519 138 524 144 525 c 0
 201 535 280 529 290 537 c 0
 304 548 473 567 473 572 c 0
 473 573 474 574 475 574 c 0x933408
 478 574 489 584 492 584 c 1
 492 584 493 586 493 587 c 2
 498 615 l 2
 499 615 499 620 499 632 c 2
 499 640 l 2
 499 644 499 646 498 646 c 1
 498 648 l 2
 498 652 501 665 501 679 c 0
 501 713 473 715 473 719 c 0
 473 720 472 720 471 720 c 0
 469 720 455 732 447 741 c 0
 446 742 447 745 447 745 c 2
 447 751 444 748 444 760 c 0
 444 780 479 784 479 784 c 1
 486 784 493 778 500 778 c 0
 510 778 546 748 547 748 c 0
 548 748 561 736 569 726 c 0
 571 723 569 718 569 718 c 1
 571 682 576 685 576 677 c 1
 576 677 595 666 596 666 c 0
 600 666 604 660 614 658 c 0
 631 656 636 641 662 637 c 0
 676 635 727 614 747 614 c 0
 753 614 758 615 758 615 c 1
 780 614 823 613 823 602 c 1
 839 590 844 577 844 566 c 0
 844 539 819 532 805 532 c 0
 799 532 794 533 787 533 c 0
 776 533 776 532 773 532 c 0
 769 532 764 535 764 535 c 1
 764 537 745 546 723 546 c 0
 699 546 669 540 656 540 c 0
 649 540 652 542 646 542 c 0
 640 542 633 540 629 540 c 0x80a218
 628 540 624 543 604 543 c 0x806218
 585 543 561 541 561 541 c 2
561 591 m 0
 565 591 605 598 605 603 c 0
 605 605 603 606 599 609 c 2
 583 622 l 2
 583 623 578 631 568 631 c 0
 566 631 565 630 562 629 c 1
 562 627 l 2x806048
 562 619 560 610 560 599 c 0
 560 592 560 591 561 591 c 0
450 397 m 2x882908
 442 397 l 2
 420 397 424 383 418 365 c 0
 416 356 413 352 413 343 c 0x883108
 413 329 423 320 423 311 c 0
 423 310 424 309 425 309 c 0
 427 309 430 296 433 296 c 1
 433 296 434 295 434 293 c 0
 434 284 447 265 450 265 c 1
 450 265 479 245 481 245 c 1
 481 245 505 249 505 283 c 0
 505 299 501 311 497 330 c 0
 493 350 492 381 480 381 c 9x902908
 458 396 456 397 450 397 c 2x882908
EndSplineSet
Fore
Refer: 90 12441 N 1 0 0 1 990 -245 2
Refer: 28 12377 N 1 0 0 1 0 0 2
EndChar

StartChar: uni305B
Encoding: 12379 12379 30
Width: 1000
Flags: HMW
LayerCount: 3
Back
SplineSet
729 72 m 4x8192
 729 39 716 17 604 17 c 4x8192
 566 17 536 22 508 22 c 4
 484 22 487 23 483 23 c 4
 445 23 381 75 378 75 c 4
 377 75 376 76 376 77 c 4
 376 80 366 82 356 112 c 5
 356 117 356 121 355 121 c 4
 352 121 334 210 334 222 c 4
 334 264 335 295 335 317 c 4
 335 351 332 368 311 368 c 4
 291 368 260 350 260 350 c 5
 254 350 225 330 216 330 c 4x4932
 206 330 200 333 190 333 c 4
 182 333 180 337 164 344 c 4x1132
 124 360 139 376 130 386 c 4
 128 388 127 389 127 390 c 6
 127 390 123 405 123 418 c 4
 123 436 137 442 137 442 c 5
 135 442 141 446 144 447 c 5
 154 447 191 413 232 413 c 4
 259 413 291 436 310 438 c 4
 327 440 333 455 333 488 c 4x0952
 333 503 331 515 331 515 c 5
 331 533 332 545 332 556 c 4
 332 578 331 587 325 596 c 4
 324 598 300 611 295 611 c 4
 279 614 272 618 272 639 c 4
 272 653 301 666 312 666 c 4
 331 666 354 649 363 644 c 4
 403 621 412 627 413 553 c 4x0992
 413 543 404 492 404 468 c 6
 404 466 l 6
 404 462 407 461 430 461 c 4
 453 461 481 463 481 463 c 5
 502 467 l 6
 528 471 590 485 601 493 c 5
 601 499 602 503 602 507 c 4
 602 515 601 518 601 522 c 4
 601 575 602 578 602 587 c 4
 602 595 600 608 600 614 c 4
 600 619 601 624 601 629 c 4
 601 664 556 639 556 677 c 4
 556 693 557 703 581 703 c 4
 588 703 594 705 601 705 c 4
 632 705 689 665 689 631 c 4x0556
 689 623 679 600 679 587 c 4
 679 579 684 582 684 578 c 4
 684 574 697 569 702 562 c 4
 706 556 726 542 729 535 c 4
 729 534 731 532 734 531 c 4
 744 524 740 519 761 517 c 4
 866 506 849 506 870 485 c 5
 872 485 877 478 877 467 c 4
 877 450 864 427 813 427 c 4
 758 427 796 441 703 441 c 4
 687 441 684 439 673 432 c 5
 671 426 671 419 671 419 c 5
 671 405 661 311 657 306 c 4
 656 306 655 302 655 299 c 4
 655 296 654 293 654 293 c 6
 653 293 652 291 652 288 c 4
 652 269 631 261 621 252 c 4
 617 248 613 245 612 245 c 4
 611 245 611 242 610 242 c 4
 609 242 596 230 594 230 c 4
 593 230 593 229 593 228 c 4
 593 225 582 214 568 214 c 4x231a
 565 214 527 225 527 257 c 4
 527 264 526 270 525 270 c 4
 524 270 520 288 509 291 c 4
 508 291 506 293 506 293 c 6
 506 294 506 295 505 295 c 4
 503 295 478 314 478 335 c 4
 478 350 483 354 489 354 c 4
 499 354 513 344 517 344 c 4x111a
 523 344 542 314 562 314 c 4
 571 314 583 320 583 351 c 5
 593 384 598 404 598 416 c 4
 598 426 594 429 586 429 c 4
 496 429 450 410 441 410 c 4
 438 410 414 398 408 395 c 4
 404 393 401 386 401 377 c 4
 401 329 396 286 396 265 c 4x253a
 396 256 404 174 404 172 c 4x2552
 404 168 409 167 409 162 c 4
 409 160 412 151 413 151 c 4
 415 151 420 143 420 140 c 4
 420 136 433 123 433 121 c 4
 433 120 434 120 435 120 c 6
 435 120 461 105 496 105 c 4x6592
 546 105 558 118 620 118 c 4
 666 118 729 111 729 72 c 4x8192
686 522 m 4
 690 522 693 522 693 526 c 4
 693 535 676 553 676 553 c 6
 675 553 675 547 675 539 c 6
 675 526 l 6
 675 522 683 522 686 522 c 4
EndSplineSet
Fore
SplineSet
579 535 m 1
 579 638 577 674 566 685 c 0
 551 700 533 708 533 721 c 0
 533 737 541 749 563 749 c 0
 586 749 614 740 624 732 c 0
 642 718 649 676 652 650 c 0
 655 622 736 580 745 577 c 0
 793 563 879 570 879 520 c 0
 879 486 839 483 822 483 c 0
 807 483 724 499 671 499 c 0
 661 499 649 498 642 497 c 1
 642 468 638 338 635 317 c 0
 630 284 620 259 610 243 c 0
 600 227 588 216 557 216 c 0
 519 216 482 294 441 335 c 0
 437 339 410 366 410 374 c 0
 410 378 413 381 417 381 c 0
 456 381 510 319 557 319 c 0
 578 319 577 467 578 484 c 1
 514 472 494 469 461 461 c 0
 441 455 413 447 365 427 c 1
 365 345 366 249 374 188 c 0
 385 104 412 89 456 89 c 0
 483 89 550 93 586 98 c 0
 613 102 690 109 715 109 c 0
 746 109 777 96 777 66 c 0
 777 15 634 11 556 11 c 0
 476 11 459 20 414 32 c 0
 393 38 343 79 328 106 c 0
 306 145 306 245 306 277 c 0
 306 301 308 383 309 403 c 1
 248 388 220 370 190 370 c 0
 164 370 97 402 97 451 c 0
 97 473 105 479 121 479 c 0
 146 479 191 463 244 463 c 0
 267 463 293 467 312 479 c 1
 312 518 305 582 298 602 c 0
 292 620 247 639 247 659 c 0
 247 675 261 682 281 682 c 0
 322 682 379 651 379 613 c 0
 379 586 370 546 367 495 c 1
 440 505 508 518 579 535 c 1
648 605 m 1
 648 548 l 1
 660 550 684 554 693 559 c 1
 670 573 659 593 648 605 c 1
EndSplineSet
EndChar

StartChar: uni305C
Encoding: 12380 12380 31
Width: 1000
Flags: HMW
LayerCount: 3
Back
SplineSet
818 298 m 4x103018
 818 271 810 253 780 253 c 4
 773 253 768 255 768 258 c 4x103018
 768 260 750 278 750 287 c 5
 750 287 739 311 739 312 c 4
 739 314 737 314 736 316 c 6
 730 329 l 6
 729 329 726 338 726 341 c 4
 726 344 720 360 720 363 c 4
 720 366 716 372 716 377 c 4
 716 387 726 389 731 389 c 4
 743 389 802 357 802 352 c 4x103028
 802 351 803 350 804 350 c 4
 807 350 818 326 818 298 c 4x103018
805 422 m 4
 805 429 807 432 833 432 c 4x023008
 846 432 886 416 886 414 c 4
 886 410 929 394 933 368 c 4
 935 354 938 342 938 331 c 4
 938 303 912 300 904 300 c 4
 885 300 871 315 871 318 c 4
 871 319 857 343 850 350 c 4x043008
 839 361 837 373 835 373 c 4x023008
 833 373 836 375 825 385 c 4
 822 389 806 402 805 422 c 4
872 521 m 4
 872 519 880 517 880 511 c 4x00b448
 880 508 879 505 879 505 c 5
 879 484 869 479 867 479 c 4
 866 479 865 478 865 478 c 5
 865 475 836 465 824 465 c 6
 822 465 l 5
 762 473 l 6
 744 476 746 478 738 478 c 6
 738 478 677 477 656 469 c 5
 651 459 l 5
 647 449 l 6
 645 446 645 437 645 426 c 6
 645 406 l 6x007088
 645 369 639 374 639 353 c 4
 639 340 642 331 642 320 c 4x007108
 642 317 641 315 641 311 c 6
 639 298 l 6
 638 289 635 290 635 288 c 4
 635 286 628 277 628 272 c 4
 628 267 622 262 622 260 c 4
 622 255 611 244 611 243 c 4
 611 242 610 241 610 241 c 5
 608 241 604 228 602 228 c 5
 602 228 600 218 594 217 c 4
 590 216 581 207 572 207 c 4x007048
 570 207 569 206 569 205 c 4x007088
 569 204 555 196 551 196 c 4
 527 196 501 243 501 243 c 5
 500 251 492 252 486 260 c 4
 476 274 483 286 471 286 c 4
 470 286 470 287 470 288 c 4
 470 289 441 318 441 320 c 4
 441 322 437 326 436 326 c 4
 432 326 412 351 412 361 c 4
 412 364 413 366 417 366 c 4
 454 365 477 336 503 324 c 4
 521 316 518 314 522 314 c 6
 522 314 537 310 548 310 c 4
 553 310 556 310 556 313 c 4
 556 314 559 314 559 316 c 4x087108
 559 319 566 339 566 346 c 4
 566 357 569 344 569 365 c 4
 569 388 571 397 571 404 c 4
 571 409 569 416 569 427 c 4x087088
 569 441 572 448 572 453 c 4
 572 461 565 464 555 464 c 6x08b048
 531 462 l 6
 481 457 458 437 431 436 c 5
 370 420 367 412 367 380 c 4
 367 377 367 374 367 371 c 4x013848
 367 346 368 303 369 230 c 5
 370 213 l 6
 370 202 374 215 374 194 c 4
 374 158 378 137 395 105 c 4
 403 89 409 82 434 81 c 4
 471 79 461 77 473 77 c 4x213208
 502 77 536 82 552 82 c 4x803208
 595 83 569 87 604 92 c 4
 614 93 639 98 666 98 c 4
 681 98 682 97 689 97 c 4
 696 97 705 98 715 98 c 4
 732 98 750 95 761 81 c 4
 768 72 777 63 777 51 c 4
 777 48 776 45 775 42 c 4
 762 13 735 14 710 7 c 4x403208
 677 -1 612 -7 553 -7 c 4x803208
 502 -7 457 -3 444 6 c 4
 442 7 414 14 411 14 c 4
 390 21 335 63 322 91 c 5
 322 91 306 133 306 147 c 4x203208
 306 168 300 289 300 319 c 4
 300 334 302 343 302 355 c 4
 302 362 302 369 300 378 c 5x203808
 293 378 l 6
 276 378 250 369 250 369 c 5
 241 369 224 350 195 350 c 4
 153 350 110 395 110 399 c 5
 110 399 98 416 98 437 c 4
 98 449 100 463 115 463 c 4
 117 463 210 448 241 448 c 4
 264 448 287 452 306 464 c 5x24b208
 306 478 l 6x007208
 306 540 301 546 292 592 c 4
 290 599 278 605 278 605 c 5
 275 605 263 622 253 625 c 4
 243 628 242 632 242 637 c 6
 242 642 l 6
 242 662 255 667 272 667 c 4
 301 667 343 649 347 647 c 4
 372 639 381 595 381 582 c 4
 381 566 372 532 369 481 c 5
 372 480 375 480 379 480 c 4x013408
 391 480 460 500 493 503 c 4
 516 505 510 513 520 513 c 4
 523 513 528 511 537 511 c 4x00b408
 558 511 571 521 571 521 c 6
 572 521 572 530 572 589 c 6
 572 610 l 6
 572 658 566 656 566 657 c 4
 566 664 550 683 549 683 c 6
 549 683 525 695 525 708 c 4
 525 718 536 731 577 731 c 4
 590 731 599 730 602 730 c 6
 607 730 l 6
 614 730 623 730 630 717 c 4
 637 704 642 712 651 660 c 4
 652 655 650 642 658 629 c 4
 660 626 663 623 663 621 c 4
 663 613 737 563 746 563 c 4x007448
 747 563 754 560 759 559 c 4
 795 552 847 544 851 542 c 4
 858 538 872 523 872 521 c 4
680 547 m 5
 677 567 666 566 666 566 c 5
 663 566 661 560 661 554 c 4
 661 552 662 549 662 547 c 5
 680 547 l 5
EndSplineSet
Fore
Refer: 90 12441 N 1 0 0 1 998 -317 2
Refer: 30 12379 N 1 0 0 1 0 0 2
EndChar

StartChar: uni305D
Encoding: 12381 12381 32
Width: 1000
Flags: HMW
LayerCount: 3
Back
SplineSet
452 569 m 0xd3
 452 575 513 642 513 658 c 0xd320
 513 659 513 660 514 660 c 2
 514 660 518 667 518 674 c 0
 518 678 516 689 505 689 c 0xd610
 495 689 483 679 483 679 c 2
 482 679 475 671 473 671 c 1
 453 654 l 2
 448 650 438 648 426 638 c 0
 409 623 400 621 396 621 c 2
 393 621 l 2
 383 621 376 626 372 626 c 0
 370 626 369 627 369 627 c 1
 369 631 327 632 304 655 c 0
 303 656 293 674 293 690 c 0
 293 704 300 716 312 716 c 0
 326 716 320 708 356 708 c 0
 377 708 388 711 388 711 c 1xca10
 409 711 429 737 474 737 c 0
 495 737 516 733 516 733 c 1
 547 733 609 716 609 691 c 0
 609 680 605 671 605 663 c 0xc610
 605 659 598 650 598 647 c 0
 598 646 588 629 579 619 c 1
 579 619 550 593 549 593 c 2
 549 593 546 592 544 589 c 1
 534 581 l 2
 525 573 526 568 511 557 c 2
 501 549 l 2
 500 548 497 545 496 545 c 0
 494 545 474 527 471 522 c 0
 453 494 442 497 428 476 c 0
 413 454 408 451 408 449 c 0
 408 446 392 433 389 431 c 0xd720
 388 431 379 417 366 409 c 1
 366 409 349 393 349 392 c 2
 336 378 l 1
 336 378 307 339 307 312 c 2
 307 308 l 1
 315 304 322 302 329 302 c 0
 357 302 403 335 403 335 c 1
 417 344 432 350 439 355 c 0
 465 373 442 363 497 390 c 0
 509 395 536 418 579 436 c 0
 607 448 620 475 688 475 c 0xe320
 727 475 767 463 767 431 c 0xd320
 767 422 765 412 759 401 c 0
 753 389 726 381 711 381 c 0
 704 381 702 382 690 382 c 0
 636 382 556 349 548 345 c 0
 544 343 540 337 536 337 c 0
 535 337 523 328 522 328 c 0
 521 327 522 326 521 326 c 0
 519 326 491 305 485 302 c 0
 484 301 486 299 459 276 c 0
 444 262 446 253 443 250 c 0
 419 223 427 188 423 188 c 0
 422 188 422 183 422 178 c 2xe280
 424 167 l 2
 425 163 432 152 432 148 c 1
 432 148 456 96 516 96 c 0
 533 96 645 72 658 59 c 0
 670 47 677 34 677 13 c 0
 677 -4 666 -6 654 -12 c 0
 646 -15 648 -16 643 -16 c 0
 640 -16 632 -15 614 -15 c 2
 600 -15 l 2
 554 -15 520 1 520 1 c 1
 499 10 l 1
 458 25 436 45 407 79 c 0
 390 98 387 103 385 139 c 0xe240
 385 152 379 171 379 192 c 0xe280
 379 210 388 225 388 237 c 0
 388 239 388 243 387 243 c 0
 366 243 319 207 285 207 c 0
 270 207 263 218 248 225 c 0
 247 226 247 229 247 229 c 1
 241 259 233 273 233 289 c 0
 233 306 244 324 285 368 c 0
 330 418 321 414 346 442 c 0
 347 443 353 448 353 449 c 0
 353 450 362 462 363 462 c 0
 365 462 374 472 375 472 c 0
 376 472 398 505 407 511 c 1
 407 511 418 524 427 532 c 0
 435 539 444 560 447 560 c 0
 448 560 452 568 452 569 c 0xd3
EndSplineSet
Fore
SplineSet
345 676 m 0
 404 676 476 737 511 737 c 0
 537 737 560 721 569 714 c 0
 573 711 579 689 579 654 c 0
 579 642 546 602 533 588 c 0
 515 568 382 427 275 323 c 1
 379 382 585 477 643 477 c 0
 701 477 789 476 789 430 c 0
 789 394 758 387 750 387 c 0
 737 387 691 404 657 404 c 0
 603 404 560 384 522 354 c 0
 482 322 436 265 436 187 c 0
 436 147 456 86 591 86 c 0
 644 86 695 63 695 37 c 0
 695 15 677 -4 631 -6 c 0
 628 -6 625 -6 622 -6 c 0
 534 -6 387 37 387 159 c 0
 387 243 417 302 455 356 c 1
 325 306 289 208 247 208 c 0
 225 208 197 254 197 291 c 0
 197 310 311 417 361 473 c 0
 411 529 507 669 507 690 c 3
 507 700 506 703 498 703 c 0
 493 703 483 694 474 679 c 0
 447 635 399 594 347 594 c 0
 304 594 295 623 295 632 c 0
 295 640 305 676 345 676 c 0
EndSplineSet
EndChar

StartChar: uni305E
Encoding: 12382 12382 33
Width: 1000
Flags: HMW
LayerCount: 3
Back
SplineSet
657 676 m 0x8124
 657 684 673 694 681 694 c 0
 708 694 780 664 790 644 c 0
 792 642 801 624 801 608 c 0
 801 594 790 580 773 580 c 0
 737 580 745 594 709 627 c 0
 689 646 657 661 657 676 c 0x8124
894 673 m 0
 894 651 881 621 860 621 c 0
 842 621 825 645 805 672 c 1
 805 672 776 702 773 702 c 0
 772 702 768 710 768 713 c 0
 768 715 769 721 770 721 c 0
 772 721 774 727 777 727 c 2
 777 727 785 729 798 729 c 0
 822 729 860 723 889 693 c 0
 893 689 894 682 894 673 c 0
424 310 m 1
 424 314 448 338 448 345 c 0
 448 347 446 348 441 348 c 0x9134
 435 348 425 340 425 340 c 1
 425 342 420 337 417 337 c 0xa134
 412 337 406 329 402 329 c 0
 400 329 398 329 398 328 c 0
 398 326 387 326 378 318 c 2
 341 288 l 2
 340 288 330 277 328 277 c 0xc134
 327 277 292 239 291 238 c 0
 289 235 281 225 274 220 c 2
 264 213 l 2
 258 210 254 208 249 208 c 0
 214 208 197 278 197 289 c 0
 197 303 235 326 238 333 c 0
 239 335 241 337 242 337 c 0xa134
 243 337 245 343 248 346 c 0
 268 368 298 402 299 402 c 0
 301 402 308 415 308 415 c 1
 308 418 316 423 316 425 c 0
 316 427 336 447 338 447 c 0
 339 447 341 452 343 454 c 0
 352 464 363 472 366 480 c 0
 370 488 405 526 406 527 c 2
 418 546 l 1
 438 575 445 573 445 577 c 0
 445 579 455 589 455 591 c 1
 455 591 490 651 493 651 c 1
 493 651 494 651 494 653 c 0x8b34
 494 660 500 657 503 671 c 0
 504 679 508 687 508 693 c 0
 508 702 500 703 498 703 c 0x8bac
 491 703 478 687 478 687 c 1
 463 661 l 1
 457 654 448 645 433 636 c 0
 426 632 424 623 417 617 c 0
 406 609 387 604 387 600 c 0
 387 597 369 595 351 595 c 0
 336 595 323 596 320 598 c 1
 320 598 295 613 295 628 c 0
 295 659 319 663 326 673 c 0
 327 675 331 676 336 676 c 0
 341 676 345 675 345 675 c 1
 380 676 389 686 394 686 c 0
 397 686 406 695 413 695 c 0
 416 695 425 702 428 702 c 0
 431 702 476 724 476 724 c 2x816c
 478 724 491 735 496 735 c 0
 499 735 499 737 507 737 c 0
 533 737 537 730 545 727 c 0
 548 725 570 717 570 715 c 0x81ac
 570 713 579 676 579 652 c 0
 579 651 569 633 567 631 c 0
 564 628 562 626 562 625 c 0
 562 622 552 616 552 613 c 0
 551 597 498 564 498 564 c 1
 476 540 459 536 455 527 c 0
 451 519 398 465 398 464 c 0
 398 462 392 455 390 455 c 0
 384 455 357 417 353 412 c 0
 353 411 353 410 352 410 c 0
 347 410 305 360 304 360 c 0x8bb4
 300 360 288 344 288 339 c 0
 288 338 289 337 291 337 c 0
 300 337 322 348 333 356 c 0
 363 376 404 387 404 387 c 2
 405 387 414 393 417 393 c 0xa134
 424 393 441 405 443 405 c 0x9134
 447 405 473 417 487 431 c 0
 490 433 514 435 528 443 c 0
 531 445 535 446 537 446 c 0
 552 446 602 477 643 477 c 0
 749 477 788 466 788 424 c 2
 788 416 l 1
 787 416 784 409 783 407 c 0
 778 396 760 387 749 387 c 0
 738 387 706 404 653 404 c 0x8534
 594 404 562 380 562 380 c 2
 562 379 541 371 541 369 c 1
 541 369 500 339 500 334 c 0
 500 327 475 311 470 304 c 1
 467 297 465 300 465 297 c 1
 465 297 441 238 439 225 c 2
 437 212 l 2
 436 201 435 193 435 186 c 0
 435 154 447 147 447 141 c 1
 448 141 451 138 451 137 c 0
 451 132 467 115 473 111 c 0
 480 106 510 100 510 98 c 0
 510 97 512 97 514 97 c 0
 521 97 518 94 526 94 c 0
 531 94 552 88 581 86 c 0
 635 83 635 84 662 70 c 0
 665 68 667 68 667 67 c 0
 667 66 686 59 689 48 c 0
 691 43 696 37 696 30 c 0
 696 26 694 23 690 19 c 0
 675 2 665 -4 638 -4 c 0
 534 -4 459 32 445 42 c 0
 443 43 413 82 409 88 c 0
 396 105 387 114 387 176 c 0
 387 201 390 225 394 225 c 1
 394 225 400 237 400 239 c 0
 400 240 409 275 412 275 c 0
 413 275 424 310 424 310 c 1
EndSplineSet
Fore
Refer: 90 12441 N 1 0 0 1 955 -19 2
Refer: 32 12381 N 1 0 0 1 0 0 2
EndChar

StartChar: uni305F
Encoding: 12383 12383 34
Width: 1000
Flags: HMW
LayerCount: 3
Back
SplineSet
604 336 m 0x7040
 604 319 578 283 578 268 c 0
 578 264 574 259 574 253 c 0
 574 252 570 248 570 240 c 0
 570 229 566 214 566 198 c 0
 566 185 569 173 580 163 c 0
 587 156 602 135 616 135 c 0x7040
 618 135 640 125 659 125 c 0
 669 125 697 137 773 137 c 0
 797 137 818 135 826 129 c 0
 836 122 851 116 851 90 c 0
 851 74 840 53 828 47 c 0
 803 33 756 31 709 31 c 0
 690 31 672 32 655 32 c 2
 642 32 l 2xb040
 613 32 584 53 584 53 c 1
 581 53 563 75 560 75 c 1
 560 81 551 83 547 92 c 0
 546 93 541 101 540 101 c 0
 539 101 536 105 536 106 c 0
 536 109 526 116 526 120 c 0
 526 122 525 123 524 123 c 2
 524 123 509 138 509 175 c 0
 509 207 518 248 536 267 c 1
 556 299 l 1
 559 299 579 340 596 340 c 0
 600 340 604 339 604 336 c 0x7040
561 566 m 1
 605 596 654 604 691 604 c 0
 725 604 751 598 754 597 c 0
 775 595 771 585 784 580 c 0
 828 563 832 542 832 527 c 2
 832 518 l 2
 832 488 816 479 816 477 c 0
 816 472 797 458 781 450 c 0
 775 446 766 446 762 445 c 2
 751 442 l 2
 718 433 636 355 618 355 c 0
 614 355 610 357 610 361 c 0
 610 366 615 372 616 372 c 0
 619 372 634 393 643 401 c 1
 643 401 642 402 643 404 c 2
 653 416 l 1
 655 416 672 433 672 436 c 1
 696 464 l 2
 697 464 698 467 699 469 c 0
 705 475 710 476 716 481 c 0
 723 487 717 487 732 497 c 0
 733 497 740 507 740 515 c 0
 740 517 731 523 729 523 c 0
 722 523 693 535 657 535 c 0x3840
 627 535 567 521 566 521 c 0
 560 517 556 510 544 510 c 0
 531 510 529 510 529 522 c 0
 529 541 561 560 561 566 c 1
473 593 m 0
 473 578 470 576 470 572 c 0
 470 569 454 555 452 555 c 0
 451 555 450 554 450 553 c 0
 450 552 439 549 439 547 c 1
 414 533 l 1
 410 532 396 524 379 515 c 1
 379 515 361 508 361 496 c 0
 361 492 358 493 358 487 c 0x3540
 358 443 331 310 331 310 c 1
 327 255 316 256 313 219 c 0
 307 155 286 82 281 47 c 0
 279 29 270 -6 231 -6 c 0
 222 -6 216 -4 216 -1 c 0
 216 0 215 1 214 1 c 0
 212 1 203 10 203 12 c 2
 203 12 199 18 199 20 c 0
 199 24 195 30 195 51 c 0
 195 62 196 69 196 69 c 1
 200 84 l 2
 201 84 222 131 222 137 c 0
 222 167 242 189 246 212 c 0
 261 287 273 304 273 318 c 0
 273 320 273 321 274 321 c 2x3640
 297 447 l 1x3540
 297 453 295 457 289 457 c 0
 260 457 248 454 233 454 c 0
 194 454 163 471 161 471 c 0
 156 471 136 483 136 492 c 0
 136 494 129 503 129 508 c 0
 129 515 151 516 157 516 c 6
 178 516 l 6
 198 516 222 523 226 523 c 5
 286 542 l 6
 286 543 287 544 289 544 c 4
 293 544 306 555 308 555 c 4
 310 555 317 574 318 574 c 4
 319 574 320 595 320 619 c 4x34c0
 320 673 319 659 309 676 c 0
 299 694 274 686 274 709 c 0x3640
 274 727 302 731 321 731 c 0
 340 731 368 718 368 677 c 0
 368 675 368 673 368 671 c 0
 368 657 369 644 387 637 c 0
 401 631 389 628 429 628 c 0
 443 628 467 609 468 609 c 0x34c0
 473 609 473 602 473 593 c 0
EndSplineSet
Fore
SplineSet
410 601 m 1
 396 607 379 614 368 622 c 1
 367 592 365 586 363 571 c 1
 385 581 398 590 410 601 c 1
231 -6 m 3
 201 -6 194 37 194 51 c 3
 194 90 274 266 302 481 c 1
 271 471 252 463 201 463 c 3
 171 463 129 474 129 508 c 3
 129 511 133 516 151 516 c 3
 217 516 261 528 315 556 c 1
 320 587 324 616 324 627 c 3
 324 662 309 684 294 688 c 0
 278 693 274 698 274 709 c 3
 274 727 302 731 321 731 c 3
 343 731 368 717 368 676 c 3
 368 642 382 634 410 630 c 0
 451 625 476 615 476 585 c 3
 476 567 424 535 358 503 c 1
 341 342 305 143 281 47 c 0
 277 29 270 -6 231 -6 c 3
657 413 m 0
 654 413 650 414 650 419 c 3
 650 422 651 425 655 430 c 0
 688 469 740 499 740 511 c 3
 740 526 698 535 660 535 c 3
 610 535 549 508 540 508 c 3
 529 508 524 513 524 522 c 3
 524 531 532 547 561 566 c 0
 599 591 650 604 692 604 c 3
 755 604 833 586 833 518 c 3
 833 502 827 488 810 484 c 0
 736 467 675 413 657 413 c 0
686 31 m 3
 581 31 509 111 509 175 c 3
 509 263 565 343 584 343 c 3
 590 343 596 340 596 332 c 3
 596 304 566 256 566 198 c 3
 566 140 638 124 673 124 c 3
 710 124 781 136 807 136 c 3
 824 136 851 121 851 90 c 3
 851 43 790 31 686 31 c 3
EndSplineSet
Validated: 1
EndChar

StartChar: uni3060
Encoding: 12384 12384 35
Width: 1000
Flags: HMW
LayerCount: 3
Back
SplineSet
535 173 m 0x8020
 560 173 539 119 603 119 c 0
 612 119 625 120 648 120 c 2
 663 120 l 2x8020
 696 120 732 138 796 138 c 0
 810 138 823 136 826 124 c 0
 829 112 832 105 832 96 c 0
 832 87 829 78 818 62 c 1x4020
 802 62 806 31 680 31 c 0
 659 31 634 32 613 35 c 0
 576 40 531 80 528 80 c 1
 528 80 515 121 515 131 c 0
 515 136 517 173 535 173 c 0x8020
673 470 m 0
 673 485 683 495 683 497 c 0
 683 501 681 508 667 509 c 0x0820
 590 511 595 528 582 530 c 0x0420
 579 530 551 555 551 576 c 0x0820
 551 584 555 587 562 587 c 0x0420
 575 587 609 576 629 576 c 0x0820
 651 576 688 581 721 581 c 0
 751 581 779 578 792 560 c 0
 801 549 809 544 809 532 c 0
 809 526 808 520 803 511 c 0
 790 484 750 494 723 479 c 0
 690 462 684 460 680 460 c 0x1020
 675 460 673 465 673 470 c 0
755 656 m 0
 755 665 769 668 777 668 c 0x0120
 788 668 797 663 831 653 c 1
 846 648 l 1x0220
 890 635 896 615 896 597 c 0x0120
 896 575 887 568 887 566 c 1
 887 566 878 559 869 559 c 0x0220
 859 559 840 578 837 578 c 1
 833 582 830 586 828 586 c 0
 827 586 812 597 811 597 c 2x0120
 811 597 778 619 777 620 c 0
 766 635 755 647 755 656 c 0
956 672 m 0
 956 664 964 649 964 647 c 0
 964 626 944 618 926 618 c 0
 896 618 880 650 859 669 c 0
 850 676 828 696 828 707 c 0
 828 714 837 720 851 720 c 2
 855 720 l 1
 877 718 l 2
 888 718 907 705 907 705 c 1
 907 703 956 689 956 672 c 0
234 522 m 0x20a0
 274 522 327 546 327 562 c 2
 327 632 l 2
 327 676 322 668 285 702 c 0
 281 705 279 709 279 712 c 0
 279 714 280 717 282 719 c 0
 289 727 290 728 310 728 c 0
 345 728 396 705 396 654 c 0
 396 637 398 629 398 626 c 0x2060
 398 622 399 618 400 616 c 1
 453 616 464 608 469 603 c 0
 480 592 482 584 482 579 c 1
 482 579 481 557 453 537 c 0
 450 535 419 508 396 493 c 0
 391 490 387 487 384 484 c 1
 384 484 367 389 367 382 c 0
 367 359 329 172 329 147 c 0
 329 128 305 42 305 42 c 1
 302 24 308 23 292 5 c 0
 283 -4 275 -8 265 -8 c 0
 242 -8 219 15 219 23 c 0
 219 30 216 30 216 42 c 0
 216 111 226 95 235 129 c 2
 235 129 281 283 281 313 c 1
 290 342 305 420 305 437 c 2
 305 445 l 2
 305 448 304 448 303 450 c 1
 186 452 173 473 149 519 c 0
 148 521 147 522 147 524 c 0
 147 534 161 544 169 544 c 0
 187 544 209 522 234 522 c 0x20a0
EndSplineSet
Fore
Refer: 90 12441 N 1 0 0 1 1010 43 2
Refer: 34 12383 N 1 0 0 1 0 0 2
Validated: 1
EndChar

StartChar: uni3061
Encoding: 12385 12385 36
Width: 1000
Flags: HMW
LayerCount: 3
Back
SplineSet
505 272 m 2xdd
 505 272 464 256 457 197 c 0
 457 194 453 186 452 186 c 2
 446 175 l 1
 446 170 419 146 408 146 c 0
 384 146 347 212 347 297 c 0xdd
 347 404 368 484 368 518 c 2
 368 533 l 2
 368 540 354 540 336 540 c 2
 332 540 l 2
 315 540 299 540 292 545 c 0
 281 552 229 566 229 582 c 0
 229 586 220 588 220 602 c 0
 220 613 220 614 249 614 c 0xeb
 260 614 274 608 306 608 c 0
 327 608 340 611 356 611 c 0
 358 611 375 615 385 625 c 0
 389 629 390 646 390 663 c 0
 390 682 388 698 386 698 c 1
 382 712 l 2
 382 713 375 721 374 721 c 0
 373 721 355 732 355 744 c 0
 355 767 364 769 381 769 c 0
 386 769 391 769 396 769 c 0
 439 769 446 734 446 734 c 1
 448 734 453 698 458 687 c 0
 462 678 480 661 531 661 c 2
 540 661 l 2
 546 661 557 648 557 641 c 0
 557 634 564 638 564 627 c 0
 564 608 546 612 537 603 c 0
 536 602 535 601 534 601 c 0
 529 601 528 588 501 582 c 0
 481 577 490 581 482 572 c 0
 475 565 477 564 474 564 c 0
 473 564 437 558 417 544 c 0
 411 540 410 536 410 529 c 2
 410 521 l 2xdb
 410 478 404 416 404 366 c 0
 404 327 408 295 420 284 c 1
 429 285 479 315 479 315 c 1
 497 324 l 1
 497 326 545 352 606 352 c 0
 632 352 661 348 688 334 c 0
 694 331 700 331 703 329 c 0
 704 329 748 287 748 286 c 0
 748 285 748 284 749 284 c 0
 755 284 780 235 780 202 c 0
 780 179 773 157 773 145 c 0
 773 142 762 117 751 104 c 0
 750 104 730 58 713 53 c 0
 698 48 628 -11 594 -11 c 0
 587 -11 505 -31 470 -31 c 0
 453 -31 447 -23 447 -21 c 0
 447 -14 468 -5 473 -5 c 0
 474 -5 506 9 527 18 c 0
 535 21 538 19 547 23 c 2
 558 28 l 2
 579 37 602 51 602 51 c 1
 602 57 694 88 694 189 c 0
 694 207 692 224 686 245 c 0
 677 273 669 278 631 297 c 0
 613 306 599 308 587 308 c 0
 556 308 518 281 518 281 c 2
 517 281 506 272 505 272 c 2xdd
EndSplineSet
Fore
SplineSet
445 667 m 5
 436 635 l 5
 473 644 l 5
 462 649 451 658 445 667 c 5
539 661 m 7
 549 661 564 638 564 627 c 7
 564 612 493 571 429 554 c 5
 416 492 402 426 402 370 c 7
 402 337 407 307 420 284 c 5
 429 285 530 352 606 352 c 7
 738 352 780 235 780 202 c 7
 780 58 602 -31 470 -31 c 7
 460 -31 449 -26 449 -20 c 7
 449 -15 455 -10 473 -5 c 4
 575 24 694 90 694 189 c 7
 694 268 647 308 587 308 c 7
 572 308 474 294 453 187 c 4
 449 169 419 146 408 146 c 7
 384 146 347 212 347 297 c 7
 347 358 361 461 373 543 c 5
 360 541 347 540 336 540 c 7
 295 540 263 554 229 582 c 4
 220 589 220 596 220 602 c 7
 220 611 223 614 244 614 c 7
 264 614 287 608 303 608 c 7
 334 608 359 614 384 622 c 5
 387 644 391 663 391 667 c 7
 391 738 355 713 355 744 c 7
 355 767 366 769 396 769 c 7
 434 769 453 731 453 706 c 7
 453 674 474 661 539 661 c 7
EndSplineSet
EndChar

StartChar: uni3062
Encoding: 12386 12386 37
Width: 1000
Flags: HMW
LayerCount: 3
Back
SplineSet
788 528 m 0x90e0
 762 528 735 575 729 575 c 0
 727 575 715 590 707 600 c 0
 704 604 703 600 703 610 c 0
 703 624 708 629 733 629 c 0
 784 629 761 626 786 618 c 0
 796 615 808 607 808 606 c 0
 808 605 820 587 822 559 c 1
 822 557 l 2
 822 552 820 544 819 544 c 0
 818 544 817 543 817 542 c 0
 817 535 802 528 788 528 c 0x90e0
797 655 m 0
 797 669 821 673 834 673 c 0
 849 673 869 669 869 667 c 0
 869 666 886 660 893 656 c 0
 902 650 920 637 920 630 c 1
 920 630 926 615 926 599 c 0
 926 569 908 560 896 560 c 0
 878 560 863 578 859 584 c 0
 854 593 833 609 833 610 c 0
 833 616 797 637 797 655 c 0
676 116 m 2
 709 158 l 1
 709 167 716 169 716 199 c 0
 716 228 713 225 713 244 c 0
 713 252 693 297 689 301 c 0
 670 318 653 324 633 324 c 0
 613 324 593 318 573 307 c 2
 561 301 l 2
 540 291 512 250 512 250 c 1
 512 247 498 228 498 225 c 0
 498 218 491 218 485 196 c 0
 483 186 480 186 480 185 c 0
 480 171 474 164 473 151 c 0
 472 143 467 142 467 139 c 0
 467 137 459 129 459 128 c 0
 459 126 451 118 444 118 c 0
 421 118 383 136 380 173 c 0
 378 204 368 213 368 297 c 2
 368 299 l 2xcce0
 368 321 368 376 375 383 c 1
 387 480 l 1
 386 500 382 501 382 501 c 1
 380 501 373 505 358 505 c 0xc9e0
 350 505 349 504 339 504 c 0
 305 504 288 513 288 513 c 2
 286 513 276 521 266 523 c 0
 250 526 254 534 244 537 c 0
 241 538 218 560 216 565 c 1
 216 565 211 579 211 591 c 0
 211 610 228 605 229 607 c 1
 229 606 234 605 238 605 c 0
 254 605 269 581 283 581 c 0xa1e0
 287 581 309 576 321 576 c 0
 352 576 387 596 393 596 c 0
 396 596 407 616 407 630 c 1
 407 630 415 662 415 674 c 0
 415 700 368 723 368 743 c 0
 368 749 376 753 383 753 c 0
 388 753 393 752 393 752 c 1xc2e0
 393 750 398 750 404 744 c 0
 417 732 416 742 437 731 c 0
 450 724 455 732 463 722 c 0
 478 706 477 694 483 687 c 0
 490 677 511 675 511 675 c 1
 532 674 515 666 565 666 c 0
 572 666 577 667 580 667 c 0
 595 667 606 654 606 638 c 0
 606 624 599 608 597 608 c 0
 596 608 596 607 596 606 c 0
 596 604 589 600 587 600 c 0
 586 600 584 596 584 595 c 0
 584 594 577 593 575 593 c 0
 506 593 489 544 469 544 c 0
 468 544 441 528 441 523 c 0xc9e0
 441 521 436 519 436 514 c 0
 430 456 432 370 427 366 c 1
 425 356 425 348 425 340 c 0xcce0
 425 304 438 293 438 290 c 1
 438 290 446 282 451 279 c 1
 458 282 471 300 475 300 c 0
 478 300 487 310 489 310 c 0
 496 310 522 337 536 341 c 0
 537 341 592 368 628 368 c 0
 653 368 681 357 691 355 c 0
 698 353 755 317 755 311 c 1
 755 311 788 267 788 204 c 0
 788 74 622 24 622 24 c 1
 582 10 l 2
 582 9 529 -8 494 -16 c 0
 492 -17 394 -31 383 -31 c 0
 376 -31 370 -30 362 -28 c 2
 344 -24 l 1
 330 -22 328 -11 328 -11 c 1
 332 6 409 3 459 20 c 0
 540 47 635 79 660 102 c 0
 674 114 676 115 676 116 c 2
EndSplineSet
Fore
Refer: 90 12441 N 1 0 0 1 949 -58 2
Refer: 36 12385 N 1 0 0 1 0 0 2
EndChar

StartChar: uni3063
Encoding: 12387 12387 38
Width: 1000
Flags: HMW
LayerCount: 3
Back
SplineSet
252 267 m 6xf0
 252 267 223 277 223 278 c 4
 223 281 204 286 204 308 c 4
 204 314 206 319 209 321 c 6
 220 329 l 5
 225 331 229 331 234 331 c 6
 238 331 l 6
 249 331 248 335 255 335 c 4
 258 335 260 334 262 334 c 6
 301 351 l 5
 304 351 326 364 332 368 c 6
 353 381 l 5
 353 381 410 415 417 417 c 4
 419 417 440 435 442 436 c 4
 450 441 466 450 466 451 c 5
 476 451 528 478 560 478 c 6
 603 478 l 6
 608 478 612 478 616 477 c 4
 619 477 695 449 706 441 c 4
 730 424 747 398 747 398 c 5
 747 394 765 379 770 364 c 4
 770 363 778 353 778 351 c 4
 778 346 782 343 782 339 c 5
 783 339 782 339 782 337 c 4xe8
 782 335 796 293 796 263 c 4
 796 254 793 258 787 223 c 4
 784 204 758 175 736 148 c 4
 726 137 713 133 706 126 c 4
 664 91 560 48 550 47 c 4
 518 42 482 23 440 23 c 4
 422 23 402 25 402 25 c 6
 399 25 384 29 384 36 c 4
 384 51 412 49 429 55 c 4
 457 65 502 79 502 79 c 5
 502 79 657 141 689 191 c 5
 689 191 730 240 730 272 c 4
 730 274 734 290 734 295 c 4
 734 304 730 314 730 314 c 5
 730 361 692 395 690 397 c 6
 690 397 680 412 678 412 c 4
 672 412 654 424 646 424 c 4
 644 424 643 424 643 425 c 4
 643 427 613 443 574 443 c 4
 559 443 550 435 546 435 c 4
 540 435 521 416 507 411 c 4
 481 401 488 401 470 387 c 5
 470 387 457 383 419 351 c 4
 418 350 420 349 416 346 c 4
 393 328 397 327 383 317 c 4
 363 301 348 297 330 278 c 4
 326 274 314 271 314 271 c 6
 314 270 281 262 271 262 c 4
 257 262 254 267 254 267 c 6
 254 268 253 267 252 267 c 6xf0
EndSplineSet
Fore
Refer: 39 12388 N 0.86 0 0 0.86 70 -20 2
Validated: 1
Substitution2: "'vrt2' +fiZm+DBNW1dfYjBoVt6O4m4IMH9lh1tX lookup 2-1" uni3063.vert
Substitution2: "'vert' +fiZm+DBNW1dfYjAQXsNrYjAR lookup 1-1" uni3063.vert
EndChar

StartChar: uni3064
Encoding: 12388 12388 39
Width: 1000
Flags: HMW
LayerCount: 3
Back
SplineSet
172 463.1 m 2x70
 186 463.1 185 468.1 194 468.1 c 0
 198 468.1 201 467.1 203 467.1 c 0
 250 487.1 251 489.1 251 489.1 c 1
 255 489.1 282 505.1 290 510.1 c 2
 316 526.1 l 1
 316 526.1 387 568.1 396 571.1 c 0
 399 571.1 425 594.1 427 595.1 c 0
 437 601.1 458 613.1 458 614.1 c 1
 470 614.1 535 647.1 575 647.1 c 0
 593 647.1 611 647.1 629 647.1 c 0
 635 647.1 640 647.1 645 646.1 c 0
 649 646.1 743 611.1 757 601.1 c 0
 787 580.1 809 547.1 809 547.1 c 1
 809 542.1 832 524.1 838 505.1 c 0
 838 504.1 847 490.1 847 488.1 c 0
 847 482.1 852 479.1 852 474.1 c 1
 853 474.1 853 473.1 853 471.1 c 0xa8
 853 468.1 870 416.1 870 379.1 c 0
 870 368.1 867 372.1 859 328.1 c 0
 855 304.1 824 268.1 795 235.1 c 0
 783 220.1 767 215.1 757 207.1 c 0
 705 162.1 576 110.1 563 109.1 c 0
 521 103.1 497 87.0996 479 86.0996 c 0
 458 84.0996 451 78.0996 425 78.0996 c 0
 403 78.0996 377 81.0996 377 81.0996 c 2
 373 81.0996 355 86.0996 355 95.0996 c 0
 355 114.1 390 111.1 411 119.1 c 0
 446 132.1 503 149.1 503 149.1 c 1
 503 149.1 696 226.1 736 288.1 c 1
 736 288.1 787 350.1 787 390.1 c 0
 787 393.1 792 412.1 792 418.1 c 0
 792 429.1 787 442.1 787 442.1 c 1
 787 452.1 780 489.1 769 507.1 c 0
 752 536.1 751 530.1 738 546.1 c 0
 735 550.1 737 551.1 733 554.1 c 0
 732 555.1 723 565.1 722 565.1 c 0
 715 565.1 692 580.1 682 580.1 c 0
 680 580.1 679 580.1 679 581.1 c 0
 679 584.1 641 603.1 592 603.1 c 0
 573 603.1 563 593.1 558 593.1 c 0
 551 593.1 527 570.1 509 564.1 c 0
 476 552.1 484 550.1 462 533.1 c 1
 462 533.1 446 528.1 399 488.1 c 0
 398 487.1 400 486.1 395 482.1 c 0
 366 459.1 371 459.1 354 446.1 c 0
 329 426.1 309 421.1 287 397.1 c 0
 282 392.1 268 388.1 268 388.1 c 2
 268 387.1 226 377.1 214 377.1 c 0xb0
 197 377.1 193 383.1 193 383.1 c 2
 193 384.1 191 384.1 190 384.1 c 0
 185 384.1 180 390.1 170 391.1 c 0
 162 392.1 154 395.1 154 397.1 c 0
 154 401.1 130 408.1 130 435.1 c 0
 130 442.1 132 448.1 136 451.1 c 2
 150 461.1 l 1
 156 463.1 161 463.1 167 463.1 c 2
 172 463.1 l 2x70
EndSplineSet
Fore
SplineSet
604 649 m 3
 731 649 870 547 870 393 c 3
 870 189 507 77 422 77 c 3
 381 77 354 84 354 94 c 3
 354 104 370 110 384 113 c 0
 428 123 790 217 790 413 c 3
 790 558 662 603 602 603 c 3
 532 603 345 443 290 397 c 0
 276 385 239 378 218 378 c 3
 154 378 129 419 129 438 c 3
 129 457 157 464 179 464 c 3
 274 464 433 649 604 649 c 3
EndSplineSet
Validated: 1
EndChar

StartChar: uni3065
Encoding: 12389 12389 40
Width: 1000
Flags: HMW
LayerCount: 3
Back
SplineSet
248 387 m 4xd4
 266 387 334 431 342 431 c 4
 352 431 340 440 408 467 c 5
 421 473 l 6
 441 482 467 488 472 490 c 6
 483 495 l 5
 511 506 516 514 557 519 c 5
 581 521 l 5
 646 514 719 501 779 426 c 5
 794 410 l 6
 800 404 805 395 805 394 c 6
 805 394 837 345 837 294 c 4xd4
 837 237 822 214 811 181 c 4
 808 172 797 164 797 162 c 5
 790 152 l 6
 786 146 781 141 781 141 c 5
 781 141 764 124 751 115 c 4
 719 94 665 66 665 66 c 5
 661 66 563 37 508 37 c 4
 499 37 488 44 488 53 c 4
 488 71 518 69 553 78 c 4
 556 79 556 81 558 81 c 4
 618 102 624 94 682 138 c 4
 690 144 706 158 707 158 c 4
 717 158 751 218 751 239 c 5xd8
 751 239 758 262 758 295 c 4
 758 382 721 415 721 415 c 6
 721 417 700 436 694 439 c 4
 668 451 633 469 615 469 c 4
 596 469 554 469 521 452 c 5
 501 441 l 6
 469 424 475 422 403 382 c 4
 370 364 328 325 328 322 c 5
 315 313 285 299 271 299 c 4xd4
 251 299 217 305 217 307 c 4
 217 308 213 309 207 309 c 4
 185 312 199 314 178 321 c 4
 174 322 148 345 148 369 c 4
 148 377 156 382 156 382 c 5
 161 382 188 389 209 389 c 4xb4
 223 389 237 387 248 387 c 4xd4
871 538 m 4
 871 525 868 503 847 503 c 4
 836 503 826 507 824 509 c 4
 788 542 807 521 755 556 c 4
 741 565 736 573 736 579 c 4
 736 596 762 598 773 598 c 4
 805 598 841 582 841 582 c 6
 843 582 851 574 857 570 c 5
 859 570 867 554 868 554 c 6
 868 554 871 548 871 538 c 4
938 592 m 4
 938 571 918 563 910 563 c 4
 889 563 874 592 852 605 c 4
 830 617 801 629 801 647 c 4
 801 658 814 663 832 663 c 4
 865 663 914 647 931 623 c 4
 934 619 938 605 938 592 c 4
EndSplineSet
Fore
Refer: 90 12441 S 1 0 0 1 1010 39 2
Refer: 39 12388 N 1 0 0 1 0 0 2
Validated: 1
EndChar

StartChar: uni3066
Encoding: 12390 12390 41
Width: 1000
Flags: HMW
LayerCount: 3
Back
SplineSet
493 74 m 1x2004
 493 78 487 72 476 90 c 1
 467 90 448 125 448 134 c 0
 448 140 440 166 440 221 c 0
 440 242 441 269 445 300 c 2
 448 329 l 2
 451 351 453 351 453 367 c 0
 453 390 459 383 459 394 c 0
 459 403 488 509 501 527 c 0
 505 533 519 550 519 553 c 0x2044
 519 554 535 571 535 572 c 0x0404
 535 576 546 587 547 591 c 1
 546 593 548 594 545 593 c 0
 533 590 521 591 507 585 c 0
 483 575 452 553 447 553 c 0x0044
 444 553 420 538 414 536 c 0
 387 528 371 511 365 511 c 0x0104
 363 511 348 504 344 504 c 0x0204
 340 504 329 490 319 490 c 0x0404
 313 490 317 487 312 487 c 0x0804
 308 487 280 477 262 477 c 0
 258 477 244 478 244 479 c 0
 244 480 243 480 241 480 c 0
 237 480 227 484 227 485 c 0
 227 490 182 491 182 522 c 0
 182 534 186 546 186 546 c 1
 186 555 201 561 206 561 c 0
 215 561 223 552 227 552 c 0
 234 552 229 548 236 548 c 0x1004
 250 548 297 563 297 563 c 1x0804
 303 563 300 570 312 572 c 0x0404
 315 572 338 583 347 583 c 0
 349 583 352 581 352 583 c 0x0204
 352 584 354 584 358 584 c 0x0104
 369 584 396 597 399 597 c 0
 401 597 401 596 403 596 c 0
 406 596 414 603 418 603 c 0x0044
 419 603 438 609 447 609 c 0
 462 609 506 628 506 628 c 1
 519 631 532 628 549 637 c 0
 553 639 555 639 556 639 c 0x0084
 559 639 559 638 562 638 c 0x0024
 566 638 655 669 672 669 c 0x000c
 676 669 688 673 688 673 c 1
 688 679 741 685 741 685 c 1
 751 685 748 687 754 687 c 1
 754 687 804 682 804 677 c 0
 804 676 805 675 806 675 c 0
 808 675 815 668 815 665 c 1
 816 665 818 659 818 652 c 0
 818 624 781 613 779 612 c 1
 775 612 771 608 761 608 c 0x0014
 749 608 697 618 696 618 c 0x000c
 665 618 623 594 623 593 c 0
 623 592 617 589 615 589 c 0x0024
 607 589 590 571 573 561 c 0
 567 558 565 559 559 554 c 1
 556 553 555 550 554 550 c 2
 554 550 535 538 535 530 c 0
 535 525 530 524 530 520 c 0
 530 518 514 458 513 430 c 0
 513 428 487 338 487 212 c 0
 487 161 499 143 506 143 c 0x2084
 511 143 513 132 529 130 c 0
 547 127 551 126 554 126 c 0
 558 126 557 128 562 128 c 0
 569 128 581 126 588 126 c 0
 590 126 592 126 592 127 c 0
 592 130 627 132 659 132 c 0
 695 132 682 131 695 126 c 0
 711 119 721 113 721 87 c 0
 721 57 685 53 659 35 c 0
 657 34 655 34 652 34 c 0
 644 34 634 37 619 37 c 0
 603 37 604 35 594 35 c 0x8004
 581 35 572 41 561 41 c 2
 556 41 l 2
 548 41 540 49 536 49 c 0x4004
 535 49 533 49 533 50 c 0
 533 51 514 63 508 63 c 0
 495 65 493 74 493 74 c 1x2004
EndSplineSet
Fore
SplineSet
653 16 m 3
 525 16 415 71 415 225 c 3
 415 370 455 524 500 598 c 1
 456 582 337 538 327 532 c 0
 290 510 267 505 232 505 c 3
 213 505 151 558 151 581 c 3
 151 592 156 602 169 602 c 3
 176 602 202 589 242 589 c 3
 257 589 373 621 427 636 c 0
 543 668 698 704 751 704 c 3
 781 704 820 697 820 667 c 3
 820 640 804 627 776 627 c 3
 729 627 620 620 568 611 c 1
 548 589 513 545 501 501 c 0
 479 418 478 260 478 215 c 3
 478 156 523 107 580 107 c 3
 604 107 622 110 643 110 c 3
 671 110 719 87 719 62 c 3
 719 31 691 16 653 16 c 3
EndSplineSet
Validated: 1
EndChar

StartChar: uni3067
Encoding: 12391 12391 42
Width: 1000
Flags: HMW
LayerCount: 3
Back
SplineSet
631 477 m 4xc018
 631 486 636 488 646 488 c 4
 659 488 672 482 672 480 c 4
 672 479 673 479 674 479 c 6
 674 479 704 458 705 458 c 4
 709 458 740 436 740 425 c 5
 747 422 750 410 750 395 c 4
 750 360 735 356 727 356 c 6
 724 356 l 6
 682 356 682 377 677 390 c 4
 676 392 631 451 631 477 c 4xc018
766 504 m 4
 818 504 857 466 857 466 c 6
 857 465 858 464 858 464 c 5
 862 464 865 452 865 438 c 4
 865 417 855 405 852 405 c 4
 850 405 845 399 828 399 c 4
 815 399 801 403 796 417 c 4
 792 429 778 440 778 442 c 4
 778 444 771 452 771 452 c 6
 770 452 764 464 764 464 c 6xa018
 764 465 762 469 761 469 c 4
 760 469 758 473 758 474 c 4
 758 480 742 481 742 494 c 5
 746 502 756 504 766 504 c 4
814 652 m 5
 813 652 812 651 812 650 c 4
 812 640 778 625 769 625 c 4
 763 625 762 629 747 629 c 4
 736 629 654 625 593 611 c 4
 579 608 562 591 562 591 c 5
 562 588 544 586 532 563 c 4
 531 560 513 542 513 526 c 4
 513 524 509 515 509 515 c 6
 509 513 498 494 498 494 c 6
 494 488 488 416 488 416 c 5
 488 407 479 344 479 336 c 6
 479 327 l 6
 479 321 477 322 477 268 c 6
 477 237 l 6
 477 220 477 204 479 190 c 4x81b8
 481 175 496 163 496 156 c 4
 496 153 507 141 507 140 c 4
 507 136 531 119 532 119 c 4
 541 119 555 109 593 109 c 4
 616 109 627 112 631 112 c 4
 646 112 718 93 718 61 c 6
 718 57 l 5
 714 39 711 40 711 38 c 5
 711 38 700 20 687 20 c 6
 634 20 l 6
 592 20 556 22 511 43 c 4
 466 64 431 126 431 141 c 4x8158
 431 159 417 145 417 228 c 4
 417 362 454 462 454 471 c 4
 454 472 460 521 464 521 c 4x8998
 466 521 467 535 474 542 c 4
 478 545 479 549 479 550 c 4
 479 553 486 563 486 566 c 4
 486 568 489 576 490 576 c 4
 492 576 493 583 492 586 c 4
 491 588 485 589 480 589 c 4x82b8
 461 589 425 566 419 566 c 4
 415 566 400 563 400 561 c 4
 400 560 382 552 377 552 c 4
 374 552 376 553 354 543 c 6x84b8
 309 522 l 6
 307 520 296 518 292 516 c 4
 288 514 282 505 244 505 c 4x90b8
 201 505 210 521 201 521 c 4x88b8
 200 521 187 531 184 537 c 4
 183 538 180 543 179 543 c 4
 174 543 151 569 151 585 c 4
 151 594 158 602 169 602 c 4x84b8
 186 602 192 590 214 590 c 4x90b8
 244 590 289 596 289 596 c 6
 294 596 339 612 341 612 c 6
 354 615 l 6
 381 622 390 630 406 632 c 4
 441 637 482 649 487 649 c 4x82b8
 492 649 499 651 499 653 c 5
 499 653 597 678 617 678 c 4
 621 678 619 680 628 681 c 6
 666 687 l 6
 666 688 669 688 673 688 c 4
 686 688 681 692 687 692 c 4
 694 692 687 705 713 705 c 4
 722 705 729 704 729 704 c 5
 756 704 767 705 773 705 c 4x81b8
 783 705 815 685 815 680 c 4
 815 678 816 678 817 678 c 4
 818 678 821 669 821 664 c 4
 821 660 814 655 814 652 c 5
EndSplineSet
Fore
Refer: 90 12441 S 1 0 0 1 918 -231 2
Refer: 41 12390 N 1 0 0 1 0 0 2
Validated: 1
EndChar

StartChar: uni3068
Encoding: 12392 12392 43
Width: 1000
Flags: HMW
LayerCount: 3
Back
SplineSet
531 144 m 4x9c
 542 144 544 143 554 143 c 4
 589 143 615 160 652 160 c 4
 690 160 702 154 727 126 c 4
 731 121 732 116 732 111 c 4
 732 91 701 76 701 76 c 5
 682 65 l 6
 680 64 677 63 675 63 c 4x3c
 666 63 663 54 645 54 c 4
 625 54 553 37 514 37 c 4x9c
 495 37 486 47 465 47 c 4
 448 47 394 63 394 66 c 4
 394 67 393 67 392 67 c 4
 385 67 372 80 371 80 c 4
 369 80 307 136 307 149 c 4
 307 150 301 161 301 162 c 4
 298 170 290 202 290 225 c 4
 290 233 291 240 294 244 c 4
 298 252 303 286 303 286 c 5
 303 286 313 326 350 369 c 4
 368 390 369 391 379 393 c 4
 383 393 387 392 387 388 c 4
 387 377 372 352 372 350 c 4
 372 349 370 345 367 342 c 5
 361 332 l 5
 347 302 l 5
 347 299 332 267 332 225 c 4
 332 181 351 178 368 162 c 4
 377 154 432 142 472 142 c 4x5c
 494 142 514 144 531 144 c 4x9c
442 485 m 21
 447 485 471 514 475 514 c 4
 478 514 475 519 485 519 c 4
 488 519 492 518 492 518 c 5
 499 515 502 485 502 485 c 5
 504 485 503 478 506 475 c 4
 509 472 515 457 516 457 c 4
 567 404 589 401 589 376 c 4
 589 356 569 332 548 332 c 4
 532 332 521 349 493 377 c 4
 489 381 486 388 486 388 c 5
 484 388 487 391 467 403 c 4
 456 409 426 429 417 432 c 5
 417 437 378 436 366 450 c 5
 365 449 357 452 357 453 c 4
 357 455 333 455 330 463 c 4
 328 467 317 465 300 478 c 6
 276 497 l 6
 263 508 257 517 257 535 c 4
 257 536 257 537 257 538 c 4
 257 545 257 561 276 561 c 4
 288 561 294 543 307 537 c 4
 324 530 344 517 347 517 c 4
 360 517 386 496 406 496 c 4
 411 496 420 492 420 490 c 4
 420 486 431 483 437 483 c 4
 439 483 440 484 442 485 c 21
684 668 m 5
 699 646 719 642 719 641 c 6
 728 627 l 6
 729 627 741 621 741 614 c 4
 740 593 735 565 714 565 c 4
 710 565 706 566 705 566 c 4
 689 566 691 562 681 559 c 4
 679 559 674 560 674 558 c 4
 674 557 672 556 668 556 c 6
 615 547 l 6
 614 546 612 546 611 546 c 4
 608 546 602 538 597 538 c 4
 594 538 580 527 573 527 c 4
 572 527 571 527 571 526 c 4
 571 524 553 517 549 517 c 4
 544 517 537 507 534 507 c 4
 528 507 511 509 511 519 c 4
 511 527 526 533 527 533 c 4
 530 533 548 551 555 552 c 4
 568 555 592 579 614 598 c 4
 616 600 618 603 618 603 c 5
 618 608 620 610 620 615 c 4
 620 623 615 627 615 628 c 4
 615 630 611 636 606 639 c 4
 604 640 600 639 600 639 c 5
 595 640 592 641 592 641 c 5
 592 643 538 653 537 653 c 4
 528 654 524 663 524 670 c 4
 524 687 557 680 570 687 c 4
 573 689 579 689 587 689 c 4
 614 689 638 685 642 685 c 6
 645 685 l 6
 649 685 657 683 676 674 c 4
 678 674 684 670 684 668 c 5
EndSplineSet
Fore
SplineSet
650 54 m 0
 615 45 558 38 508 38 c 3
 463 38 417 48 384 67 c 0
 347 88 290 130 290 225 c 3
 290 279 326 351 366 397 c 0
 374 407 384 409 390 409 c 3
 393 409 404 407 404 399 c 3
 404 394 403 390 396 383 c 0
 375 362 363 336 354 312 c 0
 344 285 338 263 338 225 c 3
 338 176 387 142 476 142 c 3
 543 142 579 144 598 149 c 0
 612 152 633 160 656 160 c 3
 707 160 736 133 736 111 c 3
 736 93 688 63 650 54 c 0
287 488 m 0
 258 509 239 549 239 570 c 3
 239 586 247 601 257 601 c 3
 278 601 284 567 319 536 c 0
 331 525 370 509 403 493 c 24
 426 482 440 477 463 467 c 17
 463 471 463 475 463 480 c 0
 463 507 464 546 473 546 c 0
 486 546 497 501 502 485 c 0
 506 471 514 457 525 447 c 0
 556 422 589 401 589 372 c 3
 589 355 570 332 548 332 c 3
 502 332 479 394 423 424 c 0
 367 454 338 451 287 488 c 0
611 544 m 0
 589 537 547 512 532 504 c 0
 528 502 524 501 521 501 c 3
 515 501 508 504 508 509 c 3
 508 514 515 520 521 525 c 0
 550 550 620 585 620 613 c 3
 620 637 589 641 564 647 c 0
 545 651 524 645 524 665 c 3
 524 680 561 686 587 686 c 3
 661 686 741 635 741 607 c 3
 741 578 723 563 697 563 c 3
 668 563 638 553 611 544 c 0
EndSplineSet
Validated: 1
EndChar

StartChar: uni3069
Encoding: 12393 12393 44
Width: 1000
Flags: HMW
LayerCount: 3
Back
SplineSet
653 124 m 4x9c40
 692 124 705 97 705 97 c 6
 705 96 706 95 707 95 c 4
 709 95 710 86 710 78 c 4
 710 70 709 63 708 63 c 4
 707 63 704 60 704 59 c 4
 681 28 644 35 561 20 c 4
 553 19 545 19 537 19 c 4x9c40
 502 19 467 29 455 29 c 4
 439 29 424 42 422 42 c 4
 418 42 391 52 389 56 c 4
 389 57 387 58 386 58 c 4
 376 58 347 91 347 91 c 5
 347 93 342 96 340 105 c 4
 338 119 330 119 324 130 c 6
 316 146 l 6
 312 152 311 155 311 164 c 4
 311 175 320 245 321 245 c 4
 322 245 326 260 326 262 c 4x3c40
 326 279 341 289 344 300 c 4
 350 324 360 326 368 326 c 4
 376 326 378 318 378 313 c 4x3c20
 378 306 374 300 374 298 c 6
 374 298 362 246 362 213 c 4
 362 194 374 161 380 157 c 4
 381 156 389 150 389 149 c 4
 389 147 396 142 404 138 c 6
 416 132 l 6
 425 128 432 135 447 121 c 4
 455 114 468 112 482 112 c 4x3c40
 500 112 517 115 520 116 c 4x5c40
 529 117 636 118 641 121 c 4
 644 123 648 124 653 124 c 4x9c40
618 344 m 4
 618 329 607 322 588 322 c 4
 559 322 518 340 518 340 c 6
 514 340 507 347 504 347 c 4
 502 347 447 379 411 400 c 4
 404 404 401 402 394 409 c 4
 386 416 381 410 365 424 c 6
 354 434 l 6
 349 439 343 443 343 445 c 4
 343 447 315 471 315 479 c 4
 315 481 284 504 284 504 c 5
 284 508 257 518 257 531 c 4
 257 532 258 533 258 534 c 4
 258 542 255 549 255 555 c 4
 255 560 257 563 266 563 c 4
 268 563 271 563 274 562 c 6
 285 557 l 6
 288 556 290 555 291 555 c 4
 293 555 302 545 310 542 c 4
 323 536 340 526 340 526 c 6
 340 525 359 514 359 514 c 5
 362 514 380 496 395 487 c 4
 416 475 429 480 450 462 c 4
 455 459 469 454 478 448 c 4
 500 434 520 440 537 427 c 4
 552 416 542 430 562 410 c 4
 568 405 572 400 572 399 c 4
 572 398 590 389 590 387 c 4
 590 386 596 383 598 381 c 4
 599 380 599 378 599 378 c 6
 600 378 611 361 611 360 c 4
 611 358 618 354 618 344 c 4
723 548 m 4
 723 525 688 519 688 519 c 5
 679 519 671 526 660 526 c 4
 641 525 623 519 614 519 c 4
 601 519 584 507 566 507 c 4
 565 507 519 492 489 487 c 4
 486 487 485 489 485 494 c 5
 504 515 564 547 564 547 c 6
 564 548 565 549 566 549 c 4
 569 549 577 561 578 561 c 4
 580 561 586 567 586 565 c 4
 586 564 590 566 590 571 c 5
 586 578 571 588 569 588 c 4x1e
 565 589 548 589 533 594 c 4
 513 601 506 601 477 604 c 4
 456 606 462 603 459 610 c 4
 457 613 456 617 456 621 c 4
 456 641 482 646 507 646 c 4x1d
 520 646 525 644 538 644 c 4
 559 644 556 649 577 649 c 4x1e
 644 649 697 612 697 605 c 4
 697 604 723 586 723 548 c 4
850 611 m 4
 850 601 834 579 815 579 c 4
 798 579 778 596 778 600 c 4
 778 602 774 608 773 608 c 4
 771 608 758 632 758 635 c 4
 758 639 735 656 735 656 c 5
 728 665 l 6
 727 666 690 692 690 704 c 4
 690 710 698 712 708 712 c 4
 725 712 748 706 753 704 c 4
 754 703 754 702 755 702 c 4
 760 702 760 697 781 695 c 4
 793 694 813 677 820 675 c 4
 821 674 820 672 821 672 c 4
 824 672 850 639 850 611 c 4
791 738 m 4
 791 741 801 758 814 758 c 4
 819 758 823 757 823 757 c 5
 835 757 l 6
 880 757 874 747 889 747 c 4
 905 747 934 725 934 719 c 4
 934 717 938 716 938 710 c 4
 938 708 938 707 939 707 c 4
 940 707 941 700 941 692 c 4
 941 680 941 666 935 662 c 6
 924 654 l 5
 920 649 917 647 913 647 c 4x1c80
 910 647 907 649 904 649 c 4
 861 652 875 674 860 680 c 4
 853 683 791 737 791 738 c 4
EndSplineSet
Fore
Refer: 43 12392 N 1 0 0 1 0 0 2
Refer: 90 12441 N 1 0 0 1 1010 39 2
Validated: 1
EndChar

StartChar: uni306A
Encoding: 12394 12394 45
Width: 1000
Flags: HMW
LayerCount: 3
Back
SplineSet
750.073242188 72.08984375 m 2x6018
 748.400390625 61.7744140625 741.2265625 59.0888671875 741.2265625 59.0888671875 c 2
 740.290039062 59.2412109375 730.354492188 45.453125 716.288085938 47.734375 c 0
 702.221679688 50.0146484375 680.298828125 63.1943359375 677.486328125 63.650390625 c 0
 671.859375 64.5625 673.252929688 67.2236328125 669.501953125 67.8330078125 c 0
 658.249023438 69.6572265625 634.602539062 84.078125 625.224609375 85.5986328125 c 0
 622.412109375 86.0546875 620.383789062 85.421875 619.16796875 77.9189453125 c 0
 618.407226562 73.23046875 618.584960938 68.3896484375 618.280273438 66.5146484375 c 0
 617.9765625 64.638671875 616.734375 62.916015625 615.796875 63.0673828125 c 0
 612.983398438 63.5234375 608.725585938 37.2666015625 605.912109375 37.72265625 c 1
 605.912109375 37.72265625 602.034179688 31.6142578125 601.8828125 30.6767578125 c 0
 601.122070312 25.98828125 595.34375 25.962890625 594.583984375 21.2744140625 c 0
 589.870117188 -7.7958984375 538.19140625 -11.927734375 487.552734375 -3.71484375 c 0xa014
 435.977539062 4.6484375 419.833007812 17.8525390625 413.268554688 18.9169921875 c 1
 413.268554688 18.9169921875 361.743164062 51.3330078125 367.19140625 90.8701171875 c 0
 367.799804688 94.6220703125 367.318359375 97.5869140625 367.318359375 97.5869140625 c 2
 368.23046875 103.213867188 370.688476562 112.438476562 371.145507812 115.251953125 c 0
 374.947265625 138.6953125 398.745117188 160.821289062 406.85546875 163.35546875 c 0
 408.883789062 163.989257812 411.0625 165.560546875 411.21484375 166.499023438 c 0
 411.51953125 168.374023438 439.3984375 185.989257812 439.3984375 185.989257812 c 1
 441.2734375 185.68359375 449.20703125 193.059570312 458.888671875 193.4140625 c 0
 469.5078125 193.6171875 480.40625 201.473632812 496.171875 203.728515625 c 0
 507.09375 205.807617188 510.388671875 202.385742188 526.000976562 203.705078125 c 0
 539.5859375 204.388671875 558.619140625 209 565.3359375 208.874023438 c 1
 567.514648438 210.446289062 567.819335938 212.3203125 568.124023438 214.197265625 c 0
 569.33984375 221.698242188 564.296875 232.140625 562.294921875 261.338867188 c 1
 559.684570312 286.783203125 l 1
 558.163085938 313.014648438 556.717773438 286.301757812 561.356445312 332.708007812 c 0
 563.712890625 365.047851562 565.48828125 387.858398438 568.224609375 404.737304688 c 0
 571.41796875 424.430664062 576.715820312 427.420898438 577.626953125 433.047851562 c 0
 578.236328125 436.797851562 583.659179688 446.505859375 584.59765625 446.353515625 c 0
 585.53515625 446.201171875 586.625976562 446.987304688 586.77734375 447.924804688 c 0
 587.385742188 451.674804688 593.46875 453.576171875 598.157226562 452.81640625 c 0
 615.974609375 449.927734375 604.290039062 407.55078125 604.84765625 387.250976562 c 0
 604.696289062 386.3125 605.811523438 381.319335938 604.442382812 372.879882812 c 0
 602.161132812 358.8125 605.380859375 372.727539062 604.670898438 320.873046875 c 0
 604.467773438 295.881835938 608.193359375 301.052734375 608.700195312 292.30859375 c 0
 608.598632812 244.205078125 619.244140625 203.01953125 619.876953125 200.993164062 c 1
 647.604492188 182.059570312 707.21484375 157.95703125 706.150390625 151.393554688 c 0
 705.998046875 150.456054688 728.200195312 144.9296875 736.994140625 133.879882812 c 0
 753.798828125 112.869140625 754.990234375 90.541015625 753.31640625 80.2255859375 c 0
 752.556640625 75.537109375 751.465820312 74.751953125 750.528320312 74.9033203125 c 1
 750.073242188 72.08984375 l 2x6018
428.879882812 127.0625 m 0
 427.004882812 127.366210938 420.162109375 120.77734375 419.401367188 116.088867188 c 0
 418.489257812 110.461914062 418.99609375 101.717773438 418.69140625 99.841796875 c 1
 418.69140625 99.841796875 421.201171875 97.5107421875 420.896484375 95.634765625 c 0
 420.440429688 92.822265625 420.135742188 90.9462890625 421.07421875 90.7939453125 c 0x6014
 425.762695312 90.0341796875 444.466796875 62.9404296875 464.16015625 59.7470703125 c 0
 471.661132812 58.53125 477.111328125 62.458984375 493.053710938 59.873046875 c 0
 528.6875 54.095703125 529.118164062 62.6875 544.198242188 78.52734375 c 0
 545.440429688 80.2509765625 557.985351562 104.201171875 558.137695312 105.139648438 c 0
 559.810546875 115.455078125 548.3046875 139.456054688 533.30078125 141.888671875 c 0
 501.416992188 147.059570312 456.353515625 130.306640625 446.038085938 131.979492188 c 0x9014
 430.8828125 133.474609375 433.568359375 126.301757812 428.879882812 127.0625 c 0
814.245117188 467.8203125 m 2
 813.333007812 462.194335938 807.30078125 448.736328125 778.23046875 453.450195312 c 0x0810
 767.915039062 455.122070312 759.779296875 458.366210938 756.63671875 462.725585938 c 0
 746.270507812 475.956054688 737.856445312 471.545898438 720.166015625 481.15234375 c 0
 709.521484375 486.727539062 712.486328125 487.208984375 690.918945312 490.706054688 c 2
 688.104492188 491.163085938 l 2
 681.541015625 492.227539062 658.249023438 496.965820312 659.921875 507.282226562 c 0
 662.354492188 522.286132812 705.745117188 528.723632812 708.177734375 543.727539062 c 0
 709.39453125 551.228515625 694.036132812 563.34375 694.1875 564.282226562 c 1x0210
 689.499023438 565.041992188 681.642578125 575.939453125 663.34375 581.794921875 c 0x0110
 645.04296875 587.6484375 640.3046875 599.965820312 633.106445312 603.059570312 c 0
 631.383789062 604.301757812 624.971679688 606.303710938 621.043945312 611.751953125 c 2x0090
 613.034179688 621.712890625 l 1
 608.016601562 626.376953125 606.749023438 630.430664062 607.357421875 634.182617188 c 0
 609.333984375 646.373046875 619.16796875 647.665039062 647.30078125 643.102539062 c 0x0210
 686.686523438 636.717773438 697.380859375 619.583984375 711.294921875 616.365234375 c 0
 729.74609375 611.448242188 770.043945312 575.079101562 770.043945312 575.079101562 c 1x0810
 774.733398438 574.319335938 805.602539062 551.02734375 815.385742188 528.267578125 c 0
 821.544921875 512.831054688 818.19921875 492.202148438 815.91796875 478.135742188 c 2
 814.245117188 467.8203125 l 2
234.411132812 666.75 m 0x0150
 235.779296875 675.190429688 249.795898438 684.46484375 257.297851562 683.249023438 c 0
 261.047851562 682.641601562 266.21875 678.916015625 265.915039062 677.040039062 c 1x0150
 265.915039062 677.040039062 266.700195312 675.950195312 267.637695312 675.796875 c 0
 269.513671875 675.494140625 278.307617188 664.442382812 280.18359375 664.140625 c 0
 287.686523438 662.922851562 283.65625 655.877929688 303.348632812 652.682617188 c 0
 309.913085938 651.619140625 318.352539062 650.250976562 332.875 650.783203125 c 2
 350.36328125 651.796875 l 2
 370.6640625 652.354492188 384.349609375 665.534179688 384.349609375 665.534179688 c 1
 386.681640625 668.041992188 385.717773438 673.973632812 385.717773438 673.973632812 c 2
 388.912109375 693.666015625 358.168945312 723.673828125 360.75390625 739.615234375 c 0
 361.362304688 743.366210938 363.998046875 747.750976562 378.064453125 745.469726562 c 1
 385.870117188 746.129882812 392.434570312 745.065429688 399 744 c 0
 434.633789062 738.221679688 449.10546875 714.703125 449.10546875 714.703125 c 1
 453.793945312 713.942382812 447.55859375 711.103515625 458.8125 709.278320312 c 0
 476.629882812 706.389648438 489.884765625 710.9765625 492.698242188 710.51953125 c 2
 503.013671875 708.846679688 l 2
 511.453125 707.479492188 531.931640625 703.1953125 526.3046875 668.499023438 c 0
 522.046875 642.241210938 498.197265625 631.672851562 493.508789062 632.43359375 c 0
 492.572265625 632.5859375 445.024414062 612.385742188 417.779296875 592.745117188 c 0
 415.447265625 590.235351562 402.6484375 552.8515625 398.137695312 548.770507812 c 0
 394.868164062 546.4140625 391.978515625 528.596679688 386.5546875 518.888671875 c 0
 374.008789062 494.938476562 352.314453125 420.501953125 349.500976562 420.958007812 c 0
 347.625 421.262695312 343.92578125 410.313476562 339.743164062 402.330078125 c 0
 331.227539062 385.424804688 324.20703125 383.67578125 318.225585938 358.66015625 c 0
 304.387695312 308.934570312 276.610351562 268.205078125 276.610351562 268.205078125 c 1
 276.610351562 268.205078125 271.66796875 255.534179688 271.36328125 253.658203125 c 0
 270.451171875 248.03125 238.948242188 202.1328125 215.50390625 205.935546875 c 0
 208.001953125 207.151367188 203.76953125 210.724609375 201.868164062 216.80859375 c 0
 195.05078125 240.048828125 188.131835938 250.793945312 191.325195312 270.487304688 c 0
 192.998046875 280.802734375 196.546875 290.8125 203.97265625 306.932617188 c 0
 208.306640625 315.853515625 217.8359375 315.270507812 224.045898438 323.888671875 c 2
 249.643554688 363.045898438 l 1
 249.643554688 363.045898438 267.055664062 381.395507812 267.359375 383.271484375 c 0
 267.663085938 385.145507812 273.264648438 390.01171875 274.202148438 389.860351562 c 0
 275.139648438 389.708007812 288.623046875 413.506835938 289.9921875 421.947265625 c 0
 291.208984375 429.448242188 296.353515625 431.501953125 296.961914062 435.251953125 c 0
 297.114257812 436.190429688 297.265625 437.127929688 298.204101562 436.9765625 c 0
 300.079101562 436.671875 301.7265625 452.766601562 308.087890625 462.321289062 c 0
 323.903320312 488.62890625 352.821289062 554.1953125 356.471679688 576.701171875 c 0
 356.774414062 578.576171875 357.079101562 580.451171875 356.29296875 581.541992188 c 1
 343.012695312 582.733398438 330.517578125 582.834960938 316.451171875 585.114257812 c 0x04b0
 298.634765625 588.00390625 280.3359375 593.858398438 258.69140625 614.693359375 c 0
 248.654296875 624.01953125 246.018554688 619.633789062 238.44140625 638.186523438 c 0x0230
 237.655273438 639.27734375 233.853515625 651.442382812 232.916015625 651.594726562 c 0
 231.978515625 651.747070312 232.282226562 653.622070312 232.5859375 655.497070312 c 0
 233.1953125 659.248046875 233.803710938 662.999023438 234.411132812 666.75 c 0x0150
EndSplineSet
Fore
SplineSet
218 322 m 0
 252 361 278 405 293 433 c 0
 307 461 353 550 358 584 c 1
 354 584 342 583 338 583 c 3
 287 583 260 605 244 627 c 0
 236 638 231 649 231 659 c 3
 231 670 240 684 254 684 c 3
 270 684 286 650 329 650 c 3
 363 650 364 652 387 668 c 1
 387 696 360 721 360 740 c 3
 360 744 363 746 377 746 c 3
 407 746 451 725 451 704 c 3
 451 702 451 702 450 700 c 1
 465 706 478 711 495 711 c 3
 506 711 526 709 526 681 c 3
 526 662 513 637 495 634 c 0
 481 631 447 610 417 596 c 1
 407 572 396 547 385 520 c 0
 367 475 349 423 339 403 c 0
 327 376 309 315 278 267 c 0
 260 239 246 207 214 207 c 3
 193 207 189 249 189 264 c 3
 189 285 197 298 218 322 c 0
514 -6 m 3
 461 -6 448 3 412 22 c 0
 393 32 365 60 365 89 c 3
 365 144 406 168 438 187 c 0
 453 196 512 208 540 208 c 3
 557 208 558 208 570 207 c 1
 568 217 565 233 562 249 c 0
 560 259 558 279 558 304 c 3
 558 339 562 373 568 404 c 0
 573 432 582 454 596 454 c 3
 604 454 607 444 607 427 c 0
 607 406 603 366 603 335 c 3
 603 301 618 204 620 195 c 1
 669 176 716 151 739 131 c 0
 750 121 753 104 753 89 c 3
 753 65 735 49 719 49 c 3
 704 49 694 56 680 64 c 0
 670 70 650 90 625 106 c 1
 623 80 601 -6 514 -6 c 3
418 103 m 3
 418 90 428 79 450 65 c 0
 460 58 482 55 498 55 c 3
 526 55 540 73 547 83 c 0
 560 103 562 110 566 135 c 1
 550 145 526 146 498 146 c 3
 469 146 418 130 418 103 c 3
645 597 m 0
 628 607 599 623 599 633 c 3
 599 643 613 646 626 646 c 3
 674 646 723 613 757 586 c 0
 788 561 819 545 819 505 c 3
 819 464 811 452 789 452 c 3
 760 452 760 461 742 473 c 0
 734 479 710 497 679 497 c 0
 677 497 674 497 672 497 c 0
 663 497 655 497 655 504 c 3
 655 517 707 531 707 546 c 3
 707 559 675 579 645 597 c 0
EndSplineSet
EndChar

StartChar: uni306B
Encoding: 12395 12395 46
Width: 1000
Flags: HMW
LayerCount: 3
Back
SplineSet
752 177 m 0x40
 775 177 790 171 790 170 c 0
 790 169 804 171 812 156 c 0
 815 151 816 146 816 140 c 0
 816 118 795 96 788 94 c 2x40
 788 94 743 91 735 86 c 1
 729 84 701 83 675 83 c 0x80
 624 83 617 86 611 87 c 0
 592 92 519 143 519 145 c 0
 519 147 484 189 484 209 c 0
 484 216 489 218 492 218 c 0
 503 218 514 200 516 200 c 0
 518 200 540 177 541 177 c 0x40
 588 169 565 159 634 159 c 0x80
 680 159 671 169 684 169 c 1
 684 169 720 177 752 177 c 0x40
748 607 m 0x10
 748 577 616 563 613 563 c 2x20
 613 563 554 567 547 577 c 0
 545 580 504 586 489 599 c 0
 480 606 480 607 479 607 c 0
 478 607 471 615 471 616 c 0
 471 617 471 623 472 623 c 2x10
 472 623 471 636 490 636 c 0
 501 636 515 632 533 632 c 0
 556 632 545 636 591 636 c 2
 619 636 l 2x20
 633 636 643 636 644 639 c 0
 644 640 645 641 646 641 c 0
 651 641 646 646 666 647 c 0
 686 649 677 655 693 655 c 0
 703 655 702 657 706 657 c 1
 706 657 751 650 751 629 c 0
 751 622 748 615 748 607 c 0x10
211 74 m 1
 211 75 208 80 207 84 c 0
 204 97 203 111 200 116 c 0
 193 126 184 217 184 257 c 0
 184 265 185 270 186 272 c 0
 190 287 189 368 194 430 c 0x0a
 195 443 199 449 201 461 c 0
 206 493 202 512 212 543 c 0
 213 546 222 570 222 577 c 0
 222 592 226 603 226 615 c 0
 226 653 192 643 192 683 c 0
 192 688 194 690 203 690 c 2
 210 690 l 1
 231 688 l 1
 247 685 291 652 291 595 c 0x04
 291 533 235 441 235 330 c 0
 235 257 249 257 251 256 c 0
 253 256 256 264 257 264 c 1
 257 265 260 272 260 272 c 1
 281 327 l 1
 285 339 l 1
 285 344 288 347 294 347 c 0
 302 347 305 339 305 326 c 0x09
 305 305 297 274 296 266 c 2
 292 244 l 1
 290 239 289 225 289 209 c 0
 290 84 302 123 302 61 c 0
 302 20 290 12 275 12 c 0
 253 12 244 37 244 37 c 2x02
 244 38 240 43 239 43 c 0
 238 43 217 62 217 63 c 0
 217 66 212 74 211 74 c 1
EndSplineSet
Fore
SplineSet
656 73 m 3
 603 73 547 108 518 139 c 0
 509 149 484 188 484 207 c 3
 484 213 486 217 492 217 c 3
 505 217 527 188 545 174 c 0
 565 158 615 149 639 149 c 3
 682 149 705 170 753 170 c 3
 779 170 818 166 818 134 c 3
 818 116 809 100 790 89 c 0
 772 79 729 73 656 73 c 3
591 627 m 3
 646 627 668 652 716 652 c 3
 738 652 767 637 767 610 c 3
 767 568 678 557 639 557 c 3
 589 557 484 588 484 620 c 3
 484 632 499 636 514 636 c 3
 530 636 576 627 591 627 c 3
181 311 m 3
 181 386 223 584 223 616 c 3
 223 634 216 643 206 652 c 0
 198 659 191 673 191 685 c 3
 191 689 195 693 213 693 c 3
 254 693 294 647 294 604 c 3
 294 517 239 458 239 330 c 3
 239 277 247 258 253 254 c 1
 270 281 273 299 285 327 c 0
 289 336 296 348 302 348 c 3
 308 348 310 343 310 333 c 3
 310 312 299 274 298 266 c 0
 294 253 289 229 289 194 c 3
 289 116 304 99 304 60 c 3
 304 22 286 11 269 11 c 3
 244 11 223 40 211 62 c 0
 193 96 181 221 181 311 c 3
EndSplineSet
Validated: 1
EndChar

StartChar: uni306C
Encoding: 12396 12396 47
Width: 1000
Flags: HMW
LayerCount: 3
Back
SplineSet
820 259 m 1x322140
 820 258 821 255 821 247 c 0x320180
 821 237 820 237 818 196 c 1
 819 196 821 185 826 179 c 0
 829 174 837 170 837 168 c 0
 837 164 863 151 863 130 c 0
 863 124 865 126 865 111 c 0
 865 91 858 78 857 78 c 0
 856 78 850 61 822 61 c 0
 800 61 777 70 777 75 c 0
 777 77 768 86 768 87 c 0x320120
 768 97 744 109 741 109 c 0
 729 109 717 89 685 83 c 1
 663 78 l 1
 640 74 645 71 612 71 c 0
 563 71 531 88 531 91 c 0
 531 93 488 147 488 161 c 0
 488 164 489 167 492 175 c 2
 498 189 l 2
 501 195 504 203 509 212 c 0
 514 219 523 228 524 228 c 0
 530 230 548 243 565 247 c 0
 591 254 594 258 601 260 c 2
 613 262 l 1
 621 261 620 261 637 261 c 0
 681 259 695 248 707 248 c 0
 718 248 734 267 734 301 c 0x720180
 734 326 738 319 738 344 c 0
 738 477 718 469 713 503 c 0
 708 534 700 534 700 539 c 0
 700 542 682 567 668 580 c 2
 654 594 l 2
 643 604 614 611 614 612 c 0
 598 613 586 613 575 613 c 0x720140
 525 613 523 606 520 606 c 0
 505 606 452 575 448 572 c 1
 444 567 443 559 443 549 c 0x340940
 443 531 448 509 448 498 c 0
 448 456 437 481 437 422 c 0
 437 420 437 418 437 416 c 0x3405
 437 394 428 380 427 351 c 0x3411
 426 318 416 307 416 290 c 0x3421
 416 273 428 274 428 270 c 0
 428 268 435 257 435 247 c 0
 435 235 405 205 385 198 c 1
 384 194 377 194 373 180 c 0
 371 172 350 156 350 146 c 0
 350 143 343 136 343 134 c 0
 343 128 282 64 242 64 c 0
 231 64 232 67 215 67 c 0
 198 67 204 70 199 70 c 0
 197 70 197 71 197 72 c 0
 197 75 188 72 175 93 c 0
 173 98 162 108 162 110 c 0
 162 112 157 114 157 119 c 0
 157 123 155 119 155 137 c 0
 155 148 157 156 157 162 c 0xb543
 157 166 156 164 156 182 c 0
 156 238 165 228 165 238 c 0
 165 240 165 241 166 241 c 0
 168 241 172 260 176 264 c 0
 183 272 179 288 189 298 c 0
 190 300 214 359 214 362 c 0
 214 368 209 372 209 376 c 0xb481
 209 378 210 379 210 380 c 0
 210 385 204 391 204 397 c 0
 204 402 199 401 199 405 c 0
 199 407 196 416 196 416 c 1
 194 416 192 425 187 430 c 0
 185 433 183 435 171 481 c 0
 171 482 165 496 165 498 c 0
 165 507 163 519 163 530 c 0
 163 544 166 555 179 555 c 0
 180 555 185 551 186 551 c 0
 199 551 194 511 245 440 c 0
 248 435 252 435 254 435 c 0
 263 435 270 446 270 446 c 2
 270 447 280 457 280 460 c 0
 280 462 293 475 301 486 c 0
 305 492 309 504 310 504 c 0
 311 504 312 504 312 505 c 0
 312 508 330 523 333 523 c 1
 342 529 l 1
 342 532 347 539 349 539 c 0
 351 539 369 558 369 563 c 0
 369 564 368 582 355 587 c 0
 347 590 347 596 344 596 c 0xb849
 342 596 331 606 323 606 c 2
 317 606 l 2
 308 606 304 609 304 619 c 0
 304 627 308 635 313 635 c 1x3421
 313 641 330 647 356 647 c 0x3821
 399 647 407 625 413 625 c 0
 417 625 422 617 429 617 c 1
 438 621 446 629 457 632 c 0
 485 641 532 665 600 665 c 0
 632 665 663 660 670 654 c 0
 676 648 709 637 732 624 c 0
 737 621 739 614 742 614 c 0
 744 614 764 591 764 591 c 2
 764 590 777 575 777 573 c 0
 777 570 786 564 788 552 c 0
 791 539 796 528 796 521 c 0
 796 509 813 473 813 444 c 0
 813 431 816 435 816 429 c 0
 816 422 822 415 822 403 c 0
 822 395 825 393 826 385 c 0
 827 363 831 333 831 315 c 0
 831 307 830 303 828 301 c 0
 824 299 821 259 820 259 c 1x322140
343 460 m 0x3043
 343 452 315 439 289 385 c 1
 289 378 283 373 281 368 c 1
 281 368 280 364 281 362 c 0
 282 361 323 325 345 313 c 1
 356 313 348 318 360 345 c 0
 362 348 364 357 364 358 c 2
 364 371 l 1x3091
 377 410 l 1x3005
 377 428 385 436 385 454 c 0
 385 477 382 483 371 483 c 0
 366 483 361 483 361 480 c 0
 361 479 360 479 359 479 c 0
 358 479 350 471 350 469 c 0
 350 468 343 461 343 460 c 0x3043
273 174 m 0
 273 175 292 196 296 196 c 0
 297 196 308 213 308 214 c 0
 308 226 313 227 313 231 c 0
 313 241 262 283 245 293 c 1
 239 290 243 294 239 287 c 0
 238 285 231 266 231 266 c 2
 231 264 230 262 229 262 c 2
 229 262 223 241 222 241 c 0
 221 241 215 213 215 196 c 0
 215 192 215 190 216 188 c 0
 221 175 213 166 227 154 c 1
 230 150 234 149 238 149 c 0xb121
 250 149 259 164 259 164 c 1
 259 166 273 172 273 174 c 0
608 139 m 0x7001
 626 139 669 164 669 174 c 1
 669 174 661 192 654 193 c 0
 641 195 626 204 612 204 c 0
 590 204 557 186 557 186 c 2
 554 186 548 175 548 165 c 0
 548 144 573 139 608 139 c 0x7001
EndSplineSet
Fore
SplineSet
674 176 m 1
 652 196 637 204 612 204 c 0
 588 204 548 190 548 164 c 0
 548 148 566 139 606 139 c 0
 634 139 655 156 674 176 c 1
246 298 m 1
 224 258 215 231 215 200 c 0
 215 172 223 148 235 148 c 0
 252 148 290 180 318 230 c 1
 293 252 268 276 246 298 c 1
387 512 m 1
 345 467 307 415 285 373 c 1
 304 351 322 335 349 315 c 1
 372 379 387 433 387 512 c 1
604 666 m 0
 750 666 828 541 828 343 c 0
 828 263 821 234 809 198 c 1
 843 166 865 143 865 113 c 3
 865 82 850 60 824 60 c 0
 790 60 768 82 742 114 c 1
 701 85 674 70 614 70 c 0
 536 70 490 111 490 163 c 0
 490 215 554 260 612 260 c 0
 666 260 674 258 716 242 c 1
 734 270 738 308 738 368 c 0
 738 508 682 614 590 614 c 0
 506 614 486 596 444 568 c 1
 444 448 433 360 413 286 c 1
 421 278 434 266 434 248 c 0
 434 230 403 204 385 200 c 1
 346 136 297 62 227 62 c 0
 187 62 153 108 153 162 c 0
 153 256 191 285 216 363 c 25
 195 424 162 475 162 520 c 0
 162 544 166 554 178 554 c 0
 205 554 187 515 254 424 c 1
 285 474 308 504 372 568 c 1
 352 594 335 605 323 605 c 0
 310 605 304 607 304 620 c 0
 304 636 320 647 353 647 c 0
 389 647 399 629 429 617 c 17
 497 654 532 666 604 666 c 0
EndSplineSet
Validated: 1
EndChar

StartChar: uni306D
Encoding: 12397 12397 48
Width: 1000
Flags: HMW
LayerCount: 3
Back
SplineSet
464 147 m 5xb006
 466 159 476 164 476 169 c 4
 476 170 487 179 487 180 c 4
 487 181 488 182 489 182 c 4
 493 182 520 202 523 202 c 4xd006
 527 202 540 219 595 219 c 4
 610 219 635 208 693 208 c 4
 706 208 701 208 704 221 c 4
 709 245 711 265 711 282 c 4
 711 298 710 310 710 322 c 4xb00480
 710 353 718 349 718 375 c 4xb00440
 718 394 713 414 713 414 c 5
 713 448 691 496 691 505 c 4xb005
 690 545 677 547 677 552 c 5
 677 552 666 570 633 570 c 4
 605 570 587 561 576 557 c 4
 548 547 550 548 536 535 c 4
 535 534 520 516 519 516 c 4
 515 516 504 502 500 502 c 5
 500 502 448 456 448 451 c 4
 448 449 434 441 434 441 c 5
 434 436 405 408 405 400 c 4
 405 398 404 395 403 395 c 4
 402 395 399 390 399 389 c 4
 399 386 393 381 392 377 c 5
 392 372 388 363 386 363 c 5
 386 363 371 346 371 341 c 6
 371 341 365 324 365 302 c 4
 365 256 378 277 378 218 c 6
 378 165 l 6
 378 139 381 144 381 139 c 4xb106
 381 134 391 130 395 76 c 4
 395 69 396 63 397 63 c 6
 397 63 395 56 395 51 c 4
 395 36 387 -40 343 -40 c 4
 314 -40 301 17 301 25 c 4xb024
 301 32 273 120 273 135 c 4
 273 138 267 145 261 145 c 4
 254 145 240 108 233 108 c 4
 232 108 232 107 232 106 c 4xb904
 232 102 224 98 219 89 c 4
 209 68 193 61 193 61 c 5
 193 56 186 54 177 54 c 4
 170 54 162 56 162 58 c 4xb204
 162 59 161 59 160 59 c 4
 157 59 151 66 151 70 c 4xb804
 151 73 145 70 145 101 c 4
 145 163 145 145 156 169 c 4
 161 181 173 180 182 189 c 4
 188 195 193 204 193 204 c 5xb204
 193 208 222 220 222 241 c 4
 222 262 203 286 201 291 c 4
 195 303 204 293 183 329 c 4
 158 373 154 400 154 411 c 6
 154 415 l 6xb404
 154 418 152 423 153 423 c 5
 153 424 151 430 151 437 c 4
 151 463 197 493 202 495 c 4
 284 525 257 528 281 533 c 4
 288 534 292 538 295 540 c 4
 295 541 309 562 309 566 c 4xb814
 309 614 310 642 310 655 c 4xb00c
 310 660 310 662 309 662 c 6xb014
 298 694 l 5
 297 701 290 705 290 710 c 4
 290 712 288 717 287 717 c 5
 287 724 l 6xb084
 287 748 313 756 313 756 c 5
 321 756 329 749 329 745 c 4xb044
 329 740 360 729 360 717 c 4xb084
 360 716 361 714 361 714 c 5
 363 714 368 704 370 704 c 5
 370 704 371 702 371 701 c 4
 371 694 381 696 381 656 c 6
 381 654 l 6xb00c
 381 644 382 640 382 637 c 4
 382 634 381 634 378 630 c 5
 376 625 367 592 367 591 c 4xb014
 367 565 375 562 376 561 c 4
 390 560 395 551 395 551 c 5
 410 536 l 6
 415 531 419 531 419 522 c 4
 419 518 426 498 426 498 c 5
 428 497 430 498 430 498 c 6
 432 498 434 498 434 499 c 6
 434 499 453 515 456 517 c 4
 472 523 544 602 586 611 c 4
 624 619 622 621 633 621 c 4
 679 621 726 589 729 589 c 4
 732 589 747 580 750 577 c 4
 752 575 761 554 761 554 c 5xb026
 761 551 768 537 768 531 c 5xb005
 768 531 794 483 794 394 c 4
 794 381 793 379 793 377 c 4
 793 375 800 322 800 322 c 5
 800 312 796 263 796 238 c 4
 796 234 797 233 797 228 c 4
 797 213 796 191 793 191 c 5xb00440
 793 191 786 154 786 153 c 4
 786 144 803 142 814 132 c 4
 816 130 818 129 819 129 c 4
 824 129 859 102 859 77 c 4
 859 56 854 49 854 49 c 5
 851 49 852 43 848 41 c 4
 838 38 839 31 825 31 c 4
 792 31 754 56 742 56 c 4
 732 56 720 46 715 46 c 4
 714 46 694 25 677 21 c 4
 671 20 668 14 665 14 c 6
 665 14 647 5 617 5 c 4
 611 5 606 5 600 6 c 4
 565 10 561 4 549 16 c 4
 537 30 527 25 527 29 c 5
 527 29 510 36 501 44 c 4
 498 46 495 49 495 49 c 5
 492 49 482 59 482 61 c 4
 482 70 462 81 462 97 c 4
 462 99 457 108 457 120 c 4
 457 128 462 147 464 147 c 5xb006
237 450 m 5
 237 450 183 444 183 411 c 4
 183 390 201 363 214 330 c 4
 219 318 235 307 235 306 c 6
 248 296 l 5
 256 305 l 5
 256 309 269 313 271 323 c 4
 271 325 272 327 273 327 c 4x9504
 274 327 280 335 280 339 c 5
 281 339 284 352 284 353 c 4
 284 356 295 383 297 383 c 5
 297 383 301 389 301 397 c 4x9024
 301 412 304 427 304 441 c 4
 304 459 297 462 293 462 c 4
 276 462 240 450 237 450 c 5
651 106 m 4
 651 112 625 137 621 137 c 4xd004
 616 137 621 141 599 142 c 4
 581 142 571 143 564 143 c 4xb004
 554 143 541 137 536 137 c 4xd004
 531 137 525 127 525 119 c 4
 525 116 526 113 528 111 c 4
 533 106 572 84 580 84 c 4
 591 84 596 82 602 82 c 4
 616 82 639 98 643 98 c 4
 645 98 651 102 651 106 c 4
EndSplineSet
Fore
SplineSet
321 271 m 1
 295 207 l 1
 307 160 319 132 323 132 c 3
 328 132 330 142 330 150 c 3
 330 162 330 221 321 271 c 1
658 113 m 1
 637 137 610 154 586 154 c 0
 541 154 519 136 519 121 c 0
 519 100 554 82 596 82 c 0
 618 82 643 93 658 113 c 1
304 463 m 17
 236 455 183 441 183 413 c 0
 183 388 222 314 251 280 c 1
 275 306 295 348 303 385 c 1
 304 463 l 17
313 755 m 0
 331 755 379 707 379 671 c 1
 379 641 369 598 361 565 c 1
 390 561 424 538 424 490 c 1
 510 568 582 621 637 621 c 0
 670 621 726 600 748 574 c 0
 762 557 798 469 798 342 c 0
 798 274 793 213 781 154 c 1
 824 126 859 103 859 70 c 0
 859 38 846 31 820 31 c 0
 794 31 768 40 738 61 c 1
 706 28 672 4 602 4 c 0
 532 4 456 71 456 119 c 0
 456 167 526 220 590 220 c 0
 628 220 676 206 702 195 c 1
 718 234 723 275 723 354 c 0
 723 463 692 570 636 570 c 0
 550 570 414 444 366 320 c 1
 366 258 397 95 397 70 c 0
 397 12 380 -40 344 -40 c 0
 302 -40 297 56 266 158 c 1
 234 107 207 54 179 54 c 0
 151 54 142 70 142 135 c 0
 142 158 167 171 225 244 c 1
 190 312 151 375 151 432 c 0
 151 477 220 502 307 546 c 1
 309 571 310 604 310 653 c 0
 310 673 287 713 287 721 c 0
 287 748 307 755 313 755 c 0
EndSplineSet
EndChar

StartChar: uni306E
Encoding: 12398 12398 49
Width: 1000
Flags: HMW
LayerCount: 3
Back
SplineSet
759 143 m 4x7004
 759 138 735 112 729 111 c 4
 726 111 724 110 724 109 c 4x7002
 724 104 701 102 692 94 c 4
 688 90 656 77 653 77 c 5
 633 66 l 21
 626 66 634 58 562 40 c 4
 550 37 540 38 540 36 c 4
 540 34 527 32 515 32 c 4
 509 32 467 25 456 25 c 4
 452 25 448 27 414 27 c 6
 409 27 l 6
 400 27 398 27 398 31 c 4
 398 70 475 56 485 63 c 4
 489 65 516 68 535 77 c 4
 541 79 543 83 548 84 c 4
 570 90 573 98 594 105 c 4
 611 110 634 123 634 123 c 6
 634 124 651 137 651 137 c 6
 652 137 679 157 681 157 c 5
 692 166 l 5
 692 172 706 177 706 180 c 4xb044
 706 182 720 195 722 195 c 4
 724 195 729 212 731 215 c 4
 733 220 741 222 741 226 c 4
 741 228 745 236 746 236 c 4
 747 236 755 257 755 257 c 5xb00080
 755 267 773 281 773 333 c 4xb00010
 773 336 775 338 776 341 c 4
 779 363 780 379 780 389 c 4
 780 406 777 409 777 409 c 6
 776 409 775 410 775 412 c 4
 775 414 776 417 776 422 c 4xb00408
 776 442 772 447 772 454 c 4
 772 455 771 456 771 456 c 5
 772 460 772 464 772 468 c 4xb00020
 772 483 766 488 766 491 c 4xb00040
 766 494 759 502 759 509 c 5
 758 509 749 520 749 523 c 4xb001
 749 532 735 539 735 539 c 5
 731 539 724 552 724 559 c 4
 724 561 721 567 720 567 c 4
 718 567 713 578 712 578 c 4
 711 578 710 579 710 580 c 4
 710 584 647 621 646 622 c 4
 637 629 608 637 603 640 c 4
 593 646 571 644 561 651 c 4
 556 655 545 657 536 657 c 4
 521 657 518 655 518 646 c 4
 518 637 521 626 521 622 c 4xb022
 521 619 519 619 519 590 c 4xb010
 519 549 523 480 523 480 c 6
 523 478 521 470 521 466 c 4xb020
 521 451 515 451 515 445 c 4xb040
 515 443 511 443 508 426 c 4
 503 395 503 420 498 393 c 4
 495 379 485 371 482 361 c 4
 478 345 466 325 466 324 c 4
 466 321 461 318 461 316 c 4
 461 311 441 267 435 267 c 5
 435 262 428 262 428 261 c 4
 428 257 418 250 418 245 c 4
 418 237 407 232 407 227 c 4
 407 224 407 222 406 222 c 4
 404 222 406 217 400 212 c 4
 398 210 396 208 396 207 c 4
 396 205 391 200 387 194 c 4
 382 186 377 178 373 173 c 4
 368 167 351 156 347 152 c 4
 329 133 334 143 320 136 c 5
 309 129 l 5
 302 126 301 118 249 118 c 4
 238 118 249 121 230 126 c 6
 219 129 l 5
 209 129 205 143 200 143 c 4
 199 143 198 143 198 144 c 4
 198 146 191 147 189 152 c 4
 183 164 178 160 178 171 c 4
 178 173 177 175 176 175 c 4
 173 175 175 178 175 185 c 4x7180
 175 191 174 194 173 194 c 4
 171 194 164 212 164 219 c 4x72
 164 222 156 233 156 239 c 4
 156 242 156 244 155 244 c 4
 154 244 153 244 153 245 c 4
 153 249 146 254 146 264 c 4x74
 146 296 142 341 142 347 c 5x78
 145 347 153 426 153 426 c 5
 153 448 175 482 175 487 c 4
 175 488 197 520 197 524 c 4
 197 529 214 545 215 550 c 4
 215 553 230 578 257 603 c 4
 268 613 274 611 282 619 c 4
 289 625 298 631 301 631 c 4
 302 631 303 631 303 632 c 4
 303 633 334 654 343 654 c 5
 390 690 528 695 528 695 c 5
 569 689 l 5
 578 689 576 686 599 683 c 4
 706 673 736 614 740 613 c 4
 747 610 773 585 773 582 c 4x710010
 773 573 805 558 805 542 c 4x7002
 805 539 811 536 811 535 c 4x7001
 811 533 821 526 821 522 c 4
 821 521 831 505 831 496 c 4
 831 493 834 495 834 491 c 4x700080
 836 462 839 469 839 463 c 4
 839 445 853 444 853 423 c 4x700008
 853 394 858 336 858 319 c 4x700010
 858 299 834 249 834 245 c 4x700080
 834 241 825 235 825 230 c 4
 825 219 808 204 808 204 c 5
 808 195 776 169 776 166 c 4
 776 164 759 145 759 143 c 4x7004
408 642 m 6
 405 642 390 634 387 633 c 4
 373 631 367 629 361 627 c 5
 351 620 l 5
 351 620 327 602 327 601 c 4
 327 600 326 600 324 600 c 4
 322 600 314 587 307 586 c 4
 298 584 279 564 270 549 c 4
 266 541 272 541 260 527 c 4
 253 520 239 497 239 497 c 6
 239 496 231 484 231 484 c 6
 230 484 227 474 227 473 c 4x7108
 227 470 223 466 223 464 c 4
 223 462 219 454 218 454 c 6
 218 454 213 419 208 419 c 4
 206 419 206 419 206 415 c 4
 206 398 201 398 201 332 c 4x78
 201 309 209 274 209 272 c 4x74
 209 269 214 261 215 261 c 4
 216 261 216 259 216 258 c 4
 216 254 220 255 220 244 c 4
 220 228 237 210 239 210 c 4
 241 210 248 210 248 211 c 4
 248 214 268 220 280 221 c 4
 283 221 297 236 303 237 c 4
 319 240 352 296 365 301 c 4
 381 308 379 317 382 317 c 4
 383 317 384 318 384 319 c 4x7280
 384 323 398 328 400 340 c 4
 402 347 404 345 404 348 c 4
 404 351 410 355 410 358 c 4
 410 360 424 394 425 394 c 4
 426 394 428 399 428 400 c 4
 428 402 436 410 436 412 c 4
 436 414 439 422 440 422 c 4
 441 422 441 423 441 424 c 4
 441 432 449 434 449 438 c 4x7040
 449 448 460 459 460 469 c 4x7020
 460 478 473 497 473 516 c 6
 473 526 l 6x7010
 473 562 480 589 480 611 c 6
 480 619 l 6
 480 628 483 630 483 634 c 4
 483 640 480 639 480 647 c 6
 480 652 l 6x7008
 480 656 479 659 463 659 c 4
 431 659 408 642 408 642 c 6
EndSplineSet
Fore
SplineSet
448 25 m 3
 429 25 401 28 401 40 c 3
 401 51 426 59 447 59 c 3
 492 59 779 122 779 378 c 3
 779 466 749 542 707 581 c 0
 638 645 568 659 516 661 c 1
 520 631 525 565 525 518 c 3
 525 416 469 272 386 187 c 0
 343 143 293 117 245 117 c 0
 207 117 188 153 172 189 c 24
 146 246 142 311 142 347 c 3
 142 377 153 465 212 550 c 0
 256 614 288 634 346 662 c 0
 408 692 500 695 524 695 c 3
 585 695 690 666 739 623 c 0
 794 574 860 500 860 378 c 3
 860 95 565 25 448 25 c 3
480 599 m 3
 480 627 479 640 476 660 c 1
 433 654 405 649 368 630 c 0
 322 606 280 575 240 506 c 0
 207 449 200 363 200 347 c 3
 200 307 222 220 242 220 c 3
 307 220 480 372 480 599 c 3
EndSplineSet
Validated: 1
EndChar

StartChar: uni306F
Encoding: 12399 12399 50
Width: 1000
Flags: HMW
LayerCount: 3
Back
SplineSet
182 545 m 5x3c3810
 182 549 174 548 174 573 c 4
 174 578 175 582 180 582 c 4
 201 582 226 558 228 558 c 4
 229 558 236 551 238 551 c 5
 256 526 254 521 256 521 c 4
 257 521 257 520 257 519 c 4
 257 513 262 520 263 504 c 4x3c3810
 263 502 269 481 269 461 c 4x3c5810
 269 439 256 430 253 424 c 5
 245 387 l 5
 245 382 236 367 236 358 c 4x3d1810
 236 344 229 337 229 337 c 6
 228 337 226 333 226 328 c 4x3c9810
 226 307 220 315 216 293 c 4
 213 272 201 262 201 189 c 4x3e1810
 201 163 203 143 203 142 c 4
 203 140 205 139 208 139 c 4
 210 139 214 140 217 142 c 4
 222 145 233 174 233 176 c 4
 233 186 241 188 241 194 c 4
 241 199 248 199 248 207 c 4
 248 213 251 210 251 216 c 4
 251 221 272 270 272 271 c 6
 297 331 l 5
 308 351 308 353 318 353 c 4
 321 353 325 352 325 349 c 4
 325 319 307 275 307 273 c 4
 307 270 298 254 298 251 c 4
 298 240 291 243 263 135 c 5x3c3810
 263 135 258 93 258 72 c 4
 258 59 269 55 269 -32 c 4x3c5810
 269 -64 259 -71 253 -71 c 4
 232 -71 205 -56 203 -56 c 4
 201 -56 194 -48 194 -46 c 6
 189 -36 l 5
 189 -36 188 -34 188 -32 c 4
 188 -31 160 56 160 64 c 6
 160 64 151 91 151 138 c 4
 151 166 157 192 157 228 c 4x3e1810
 157 235 156 232 156 239 c 4
 156 257 162 276 164 293 c 4
 166 327 177 313 177 358 c 6
 177 366 l 6x3d1810
 177 375 177 381 181 389 c 4
 190 405 185 464 190 464 c 4
 191 464 191 467 191 470 c 4x3c5810
 191 474 192 476 192 476 c 6
 193 476 199 485 199 497 c 4
 199 509 192 527 190 527 c 5
 182 545 l 5x3c3810
812 68 m 5
 814 68 818 58 820 58 c 4
 822 58 835 46 835 44 c 4
 835 39 849 29 849 2 c 4
 849 -17 843 -27 843 -32 c 4
 843 -36 837 -43 834 -43 c 4
 833 -43 832 -43 832 -44 c 4
 832 -45 817 -49 812 -49 c 4
 805 -49 765 -22 759 -9 c 4
 749 11 747 -2 740 21 c 4xbc1830
 738 26 737 30 736 30 c 4x7c1830
 735 30 735 31 735 33 c 4
 735 34 725 38 708 55 c 4
 703 60 700 61 698 61 c 4
 694 61 693 58 693 58 c 5
 684 58 676 32 672 31 c 4
 667 30 657 19 657 16 c 4
 657 15 657 14 656 14 c 4
 655 14 648 0 645 -4 c 4
 640 -10 624 -21 619 -21 c 4
 610 -21 602 -41 566 -41 c 4
 547 -41 528 -38 524 -38 c 4
 508 -38 503 -27 493 -27 c 4xbc1850
 488 -27 491 -26 479 -23 c 4
 462 -19 460 -12 456 -12 c 4
 454 -12 414 23 414 33 c 5
 410 41 l 6
 409 41 402 53 402 72 c 4
 402 83 404 94 411 108 c 4
 412 110 435 141 440 144 c 6
 440 144 459 173 496 173 c 4
 503 173 505 178 520 178 c 4
 550 178 582 173 603 173 c 6
 625 174 l 6
 626 174 634 178 634 182 c 4x7c1830
 634 196 616 206 616 284 c 4x7c1a10
 616 304 617 329 618 364 c 5
 618 364 620 371 620 381 c 4x7c1910
 620 392 618 395 614 395 c 4
 611 395 614 392 582 392 c 4
 520 392 539 401 500 424 c 4
 498 425 500 426 495 428 c 4
 476 436 466 461 466 461 c 6
 466 462 457 476 457 483 c 4
 457 487 459 488 468 488 c 4
 494 488 518 458 580 458 c 4
 597 458 606 461 606 461 c 5
 606 463 621 470 621 492 c 4x7c1850
 621 501 620 509 620 509 c 6x7c1910
 620 526 620 540 621 540 c 5x7c1850
 621 549 612 612 611 612 c 4
 609 611 608 615 603 615 c 4
 602 615 578 627 578 643 c 4
 578 663 594 670 613 670 c 4
 656 670 676 636 676 636 c 6x7c1c10
 676 635 680 627 681 627 c 4
 682 627 687 617 687 611 c 4x7c1890
 687 605 684 608 684 598 c 4
 684 596 684 594 685 594 c 4
 686 594 686 575 688 574 c 4
 689 574 690 565 690 564 c 4
 690 560 696 548 709 548 c 4
 715 548 719 552 725 552 c 4
 744 552 764 521 767 521 c 4
 769 521 776 513 776 511 c 4
 776 510 780 504 780 503 c 6
 780 503 785 488 785 486 c 5
 784 486 780 479 780 476 c 4
 780 462 765 459 761 459 c 4
 760 459 759 458 759 458 c 6
 759 457 717 434 708 431 c 6
 667 415 l 6
 660 412 658 403 658 392 c 4x7c1910
 658 370 666 340 666 329 c 4
 666 327 665 327 665 316 c 4x7c1a10
 665 297 669 258 673 229 c 4
 675 213 683 215 683 191 c 4x7c1830
 683 189 688 165 688 165 c 5
 688 165 735 143 756 125 c 4
 757 123 795 88 795 87 c 4
 795 80 812 72 812 68 c 5
674 522 m 4
 670 522 664 520 664 514 c 4
 664 507 667 498 671 498 c 4
 672 498 672 497 672 496 c 4x3c1850
 672 494 674 493 675 493 c 4
 679 493 685 498 685 501 c 4
 685 504 686 502 686 509 c 4
 686 518 680 522 674 522 c 4
433 75 m 4
 433 47 456 45 456 37 c 4
 456 35 464 30 467 30 c 4x7c1810
 477 30 498 21 527 21 c 4xbc1810
 546 21 568 25 593 38 c 4
 602 43 623 67 623 73 c 4
 623 75 626 90 626 103 c 4
 626 109 625 113 623 115 c 4
 618 120 564 134 507 134 c 4
 489 134 480 133 458 117 c 4
 439 104 433 89 433 75 c 4
EndSplineSet
Fore
SplineSet
150 252 m 3
 150 322 197 546 197 579 c 0
 197 600 174 631 174 647 c 3
 174 654 173 662 180 662 c 3
 200 662 222 644 238 630 c 0
 248 620 254 610 260 598 c 0
 266 586 269 576 269 541 c 0
 269 519 245 474 240 452 c 0
 236 433 202 333 202 257 c 3
 202 234 204 223 212 205 c 1
 297 411 l 0
 307.222222222 430.592592593 307.285322359 432.043895748 315.115581974 432.043895748 c 0
 316.477366255 432.043895748 318.074074074 432 320 432 c 3
 324 432 325 429 325 424 c 0
 325 405 307 360 298 331 c 0
 279 272 257 221 257 173 c 0
 257 166 257 159 258 152 c 0
 261 130 269 85 269 52 c 0
 269 27 265 9 253 9 c 3
 188 9 184 52 170 94 c 0
 158 130 150 216 150 252 c 3
777 164 m 0
 823 117 848 99 848 56 c 3
 848 22 832 11 818 11 c 3
 787 11 753 56 740 82 c 0
 731 100 701 122 690 127 c 1
 684 103 662 70 648 56 c 0
 627 35 597 19 566 19 c 3
 520 19 479 33 459 46 c 0
 432 63 402 94 402 132 c 3
 402 154 429 240 529 240 c 3
 561 240 598 237 628 234 c 1
 622 266 615 311 615 349 c 0
 615 399 615 434 616 458 c 1
 607 453 578 451 569 451 c 0
 568 451 l 0
 523 451 456 524 456 542 c 3
 456 547 459 548 470 548 c 3
 485 548 496 536 524 527 c 0
 540 522 561 518 592 518 c 3
 603 518 608 523 616 527 c 1
 617 547 618 570 618 591 c 0
 618 628 616 661 610 669 c 0
 603 678 579 684 579 701 c 3
 579 729 599 730 612 730 c 3
 634 730 666 716 681 687 c 0
 691 668 684 668 684 658 c 3
 684 636 693 608 709 608 c 3
 717 608 720 613 729 613 c 3
 736 613 767 583 775 573 c 0
 783 564 785 553 785 546 c 3
 785 538 771 526 759 518 c 0
 747 510 717 495 708 491 c 2
 662 472 l 1
 662 420 667 417 669 376 c 0
 671 341 680 255 686 224 c 1
 721 209 743 198 777 164 c 0
685 561 m 1
 687 563 687 567 687 571 c 0
 687 586 676 612 668 630 c 1
 665 614 664 580 664 548 c 1
 673 552 685 557 685 561 c 1
507 194 m 0
 505 194 504 194 502 194 c 0
 475 194 434 168 434 134 c 3
 434 114 452 102 465 95 c 0
 482 86 498 81 527 81 c 3
 550 81 580 88 602 106 c 0
 620 121 631 134 631 174 c 1
 604 186 572 184 507 194 c 0
EndSplineSet
Validated: 1
EndChar

StartChar: uni3070
Encoding: 12400 12400 51
Width: 1000
Flags: HMW
LayerCount: 3
Back
SplineSet
217 243 m 0x8e08
 217 234 222 235 222 230 c 0
 222 227 226 222 229 222 c 0
 241 222 247 272 259 282 c 0
 260 283 262 289 262 290 c 0x8e28
 262 292 270 302 270 305 c 2
 274 319 l 1
 274 319 277 328 277 330 c 0
 285 348 292 356 302 356 c 0
 308 356 317 354 317 340 c 0x8c18
 317 319 296 285 296 269 c 0x8c28
 296 267 293 256 292 256 c 0
 282 256 269 167 269 131 c 0
 269 102 277 117 297 4 c 0
 297 -1 290 -5 290 -6 c 0
 290 -9 271 -26 253 -26 c 0
 236 -26 224 -13 216 4 c 2
 201 36 l 2
 201 38 193 48 193 51 c 0
 193 52 187 57 184 68 c 0
 181 77 182 88 181 106 c 0
 181 110 179 114 179 116 c 0x8d08
 179 137 172 146 172 200 c 2
 172 235 l 2x8e08
 172 276 169 243 169 305 c 0
 169 407 181 369 190 443 c 0
 192 456 207 473 207 520 c 0x8c88
 207 537 215 525 215 568 c 0x8c48
 215 583 214 596 208 596 c 0
 207 596 207 597 207 599 c 0
 207 601 189 608 187 625 c 0
 186 636 176 643 176 657 c 0
 176 662 176 679 189 679 c 0
 190 679 211 679 230 660 c 0
 248 642 266 628 272 614 c 0
 272 613 277 607 277 606 c 0x8c98
 277 596 291 583 291 567 c 0x8c48
 291 562 290 559 290 559 c 1
 290 515 289 507 280 497 c 0
 276 493 271 480 271 477 c 0x8c88
 269 464 260 460 259 444 c 0
 259 441 251 431 247 416 c 0
 243 398 243 413 235 397 c 0
 234 393 232 383 231 383 c 0
 230 383 228 356 228 355 c 0
 220 338 222 301 219 266 c 0
 219 259 217 250 217 243 c 0x8e08
733 673 m 0
 733 676 735 680 736 680 c 0
 740 680 738 688 765 688 c 0
 819 688 849 654 853 647 c 0
 855 645 857 645 857 644 c 2
 868 626 l 1
 870 625 871 623 871 622 c 0
 871 620 877 608 877 606 c 0
 877 600 870 577 863 566 c 0
 860 562 857 556 842 556 c 0
 818 556 810 569 795 585 c 0
 786 595 794 601 780 616 c 0
 772 624 767 639 764 641 c 0
 757 646 733 661 733 673 c 0
651 42 m 0
 651 37 629 30 613 16 c 1
 607 16 577 -5 543 -5 c 0
 535 -5 532 -3 505 7 c 0
 488 13 458 7 458 15 c 1
 458 15 457 16 456 16 c 0
 453 16 452 19 442 22 c 0
 421 28 422 38 414 53 c 0
 411 60 410 70 410 76 c 2
 410 81 l 1
 411 133 427 135 427 139 c 0
 427 143 435 141 441 155 c 0
 452 177 513 198 516 198 c 2
 516 198 623 208 628 211 c 0
 632 214 634 227 634 244 c 0x9c0820
 634 295 628 301 628 308 c 0
 628 310 627 312 627 312 c 2
 626 312 625 319 625 331 c 2
 625 362 l 2x9c0840
 625 415 620 405 620 415 c 0x9c0880
 620 418 620 420 619 420 c 0
 618 420 617 423 617 425 c 0
 617 437 608 438 608 438 c 2
 607 438 606 438 606 439 c 0
 606 443 513 456 499 462 c 0
 485 467 487 462 475 480 c 0
 471 486 462 495 462 506 c 0
 462 520 476 528 480 528 c 0
 486 528 491 521 499 521 c 0
 506 521 541 512 570 512 c 0
 609 512 610 525 610 547 c 0
 610 570 606 605 604 636 c 0x9c09
 603 654 606 646 601 652 c 0
 599 654 597 658 597 659 c 0x9c0a
 597 665 590 674 585 674 c 0
 583 674 575 680 575 683 c 0
 575 686 555 691 555 700 c 2
 555 700 556 703 555 704 c 0
 554 704 552 700 552 702 c 0
 552 705 552 708 552 711 c 0
 552 721 561 734 577 734 c 0
 584 734 592 733 606 731 c 0
 643 726 652 691 653 691 c 0
 654 691 659 683 659 680 c 2x9c0c
 659 680 661 677 661 664 c 0
 661 649 659 647 659 635 c 0x9c0a
 659 612 667 614 667 610 c 0
 667 609 694 585 696 584 c 0
 698 582 703 580 703 579 c 0
 703 578 713 574 715 574 c 0
 717 574 763 556 764 552 c 0
 765 546 768 546 768 543 c 2
 771 529 l 2
 772 527 771 524 771 522 c 0
 771 507 759 501 759 498 c 0
 759 497 759 496 758 496 c 0
 756 496 755 482 730 482 c 0
 723 482 705 473 702 473 c 0
 680 473 658 448 658 434 c 0x9c0880
 658 429 660 421 662 402 c 0x9c0840
 662 400 667 293 673 293 c 1
 678 284 680 277 680 270 c 0
 680 262 678 254 678 247 c 0
 678 237 682 235 682 214 c 2
 682 209 l 2
 682 201 682 198 695 198 c 0xac0820
 716 197 723 182 730 182 c 0
 731 182 732 181 732 180 c 0
 732 178 746 174 752 174 c 0
 755 174 776 167 790 158 c 0
 804 150 818 134 821 132 c 0
 830 122 858 115 858 83 c 0
 858 58 844 37 841 37 c 1
 841 37 834 29 826 29 c 0
 822 29 818 31 818 32 c 0
 818 33 806 38 806 40 c 1
 777 58 l 1
 777 60 764 62 764 65 c 0
 763 73 738 77 736 80 c 0
 735 81 712 100 710 100 c 0xcc0820
 705 100 700 102 695 102 c 0
 688 102 682 100 682 93 c 0xac0820
 682 89 683 85 683 84 c 0
 683 82 673 62 673 60 c 0
 673 57 654 44 653 44 c 0
 652 44 651 43 651 42 c 0
615 135 m 1
 588 143 541 147 536 147 c 0
 514 147 475 124 475 124 c 2
 466 121 462 113 462 105 c 0
 462 94 468 83 483 77 c 1
 494 71 l 2
 495 70 505 69 519 69 c 0
 540 69 568 71 587 80 c 0
 608 90 607 88 613 101 c 0
 617 110 619 116 619 122 c 0
 619 128 617 132 615 135 c 1
848 738 m 2
 907 738 923 708 923 708 c 1
 923 705 947 687 947 657 c 2
 947 648 l 2
 947 620 941 612 917 612 c 0
 879 612 880 640 857 659 c 0
 845 670 838 680 832 691 c 0
 829 696 824 691 818 704 c 0
 816 707 815 710 814 710 c 0
 812 710 812 713 812 717 c 0
 812 725 815 738 826 738 c 2
 848 738 l 2
EndSplineSet
Fore
Refer: 90 12441 S 1 0 0 1 1015 18 2
Refer: 50 12399 N 1 0 0 1 0 0 2
Validated: 1
EndChar

